<svg fill="none" height="213" viewBox="0 0 213 213" width="213" xmlns="http://www.w3.org/2000/svg"><path d="m105.122 1.48069c.745-.799912 2.011-.799914 2.756 0l15.15 16.28411c.552.5936 1.422.7667 2.16.4296l20.228-9.24678c.994-.45422 2.164.03054 2.546 1.05438l7.765 20.8423c.283.7597 1.021 1.2527 1.831 1.2235l22.228-.8018c1.092-.0394 1.987.8564 1.948 1.9482l-.802 22.2275c-.029.8102.464 1.548 1.224 1.8311l20.842 7.7653c1.024.3815 1.509 1.5518 1.054 2.5455l-9.246 20.2287c-.337.7373-.164 1.6076.429 2.1598l16.284 15.1499c.8.745.8 2.011 0 2.756l-16.284 15.15c-.593.552-.766 1.422-.429 2.16l9.246 20.228c.455.994-.03 2.164-1.054 2.546l-20.842 7.765c-.76.283-1.253 1.021-1.224 1.831l.802 22.228c.039 1.092-.856 1.987-1.948 1.948l-22.228-.802c-.81-.029-1.548.464-1.831 1.224l-7.765 20.842c-.382 1.024-1.552 1.509-2.546 1.054l-20.228-9.246c-.738-.337-1.608-.164-2.16.429l-15.15 16.284c-.745.8-2.011.8-2.756 0l-15.1499-16.284c-.5522-.593-1.4225-.766-2.1598-.429l-20.2287 9.246c-.9937.455-2.164-.03-2.5455-1.054l-7.7653-20.842c-.2831-.76-1.0209-1.253-1.8311-1.224l-22.2275.802c-1.0918.039-1.9876-.856-1.9482-1.948l.8018-22.228c.0292-.81-.4638-1.548-1.2235-1.831l-20.8423-7.765c-1.02383-.382-1.5086-1.552-1.05438-2.546l9.24678-20.228c.3371-.738.164-1.608-.4296-2.16l-16.28411-15.15c-.799912-.745-.799914-2.011 0-2.756l16.28411-15.1499c.5936-.5522.7667-1.4225.4296-2.1598l-9.24678-20.2287c-.45422-.9937.03054-2.164 1.05438-2.5455l20.8423-7.7653c.7597-.2831 1.2527-1.0209 1.2235-1.8311l-.8018-22.2275c-.0394-1.0918.8564-1.9876 1.9482-1.9482l22.2275.8018c.8102.0292 1.548-.4638 1.8311-1.2235l7.7653-20.8423c.3815-1.02383 1.5518-1.5086 2.5455-1.05438l20.2287 9.24678c.7373.3371 1.6076.164 2.1598-.4296z" fill="#e6452d"/><g fill="#fff"><path d="m73.5496 44.3461c-.0252.0612-.7308.954-.9144.8388l.3924.4824c-1.0152.396.072 1.728-1.17 1.8576v.1908c.3672-.1836.432.4788.3744.6552s-.5364.0252-.2592.9108l-.8928.5796c.5436-.0864.4032.36.3888.7812l.3852-.7776c-.018 1.4148.2484 2.5344-.1908 3.9024l.3852-.198.0324 1.6668.3672.198-.2052.558c.6732.2844.3816 1.1412.9792 1.5804l-.3888.0972v.288c.864.288.3312.6876.558.9828.1224.1584.918.7884 1.1916.8748l-.5832.5796h.9756l-.198.3924c.7128-.1836.9144.9432 1.1664 1.4796l.7884-.1116.0216.9576c1.0116-.288 1.1844.4788 1.5444 1.1844l.2808-.3852c.5796.1296.8496.6084 1.1808.7884.7596.4104 2.0448.3348 2.0484 1.3536l.3852-.5832.198.7776.8784-.3132c.648.3384.5004.5976 1.3392.3456l.3168.7488.3924-.5832c.8964.6444 2.3328.4536 3.2436-.0756.594-.342.3564-1.3572 1.2384-.8964-.0432-.7992 1.1124-1.566 1.7568-.7812l-.2952-.7812.6876-.3888.1944.3888c.0108-.81.5148-.81 1.08-1.17l.1908.3924c.3204-.702.558-1.0044 1.3644-1.17l-.0936.5868c.7848-.432.8928-.0072.7812-1.17l.3852.7776v-.972c.7812-.2484 1.584-.1872 2.34-.2772.2628-.0324.4788-.3132.8676-.3204 1.6418-.0288 3.4348 1.3788 2.8368 3.1284l-.583-.198-.684 1.5624 1.465-.5868-.169-.36c.68-.288 1.13-.9108 1.922-.4176.123-.6876.799-1.6272 1.563-1.1736l-.195-.5832c.72.2592.767-.324.922-.3996.327-.1584 1.015-.3168 1.418-.5184.281-.1368.706-.9252 1.563-.6444l.097.972.583-1.17c.907.4896 1.757.6588 2.617 1.3932l-.162 2.2068-.597.4968c.831-.1872 1.238-.6408 1.85-1.17l.288.3888.029-.7596c.702-.0972 1.091-.8352 1.875-1.134.785-.2988 2.135-.2376 2.387.7236l.292-.3924c.155.3744.223.4428.666.4032l-.18 1.1592.583-.1944c-.263.6156.126.9612.752.954l.321-.5652.194.3888.393-.3888.176.3744c.331-.1656.803-.2736 1.156-.18.14.036.129.3276.162.3384.111.0468.36-.1656.597-.0972.994.2952 2.585.9828 2.689 2.0988l.378-.1908.216.7704 3.892-.3852c-.101.2736-.18.5076.194.5832-.09-.9396 1.826-1.2168 2.589-1.6056 2.862-1.458 5.396-4.0716 7.11-6.7284.558-.8676.464-.5796.954-1.6164.194-.4104.835-.4356.464-1.1664h.591l-.342-.486c1.076-.8604.529-2.7468 1.706-3.2256l-.389-.486.407-.2124c-.619-1.0332.572-.882.378-1.5444-.022-.072-.407-.1044-.403-.198 0-.2592.27-.4716.299-.6588.133-.8856.115-1.3896.126-2.4372 0-.2628.216-.5832.187-.774-.029-.18-.411-.1764-.508-.3204-.151-.2232.306-.774-.482-.7812l.389-.3852-.544-.0324c-.151-.0972-.054-1.116.004-1.2852.018-.0504.622-.2376.442-.846.789-.1152 1.138-.8748 1.952-.9684.079-.0108 1.083.0072 1.137.0216.148.0432.108.36.256.3816.417.0648.864-.4752 1.044.5796l.781-.3204c.158.0432 1.012.864 1.166 1.0548.483.5904 1.304 2.1312 1.908 2.0448l.832 1.314.378-.1944-.18.5688c.41.09.734.378.947.7344.399.6732 1.123 2.4048 1.361 3.2868.77 2.8476.698 5.0292.702 7.992 0 .3168.54.6336-.09 1.3716-.231.27-.652.1872-.594.4716 1.216.2016.19 2.106 0 2.9268l-.386-.3888-.198.4896c.735.2664.198 1.62 0 2.2356l-.194-.3888c-.778.3456.281 1.2456-.972 1.1736l.58.4824-1.167 2.3436c-.363.2664-.003-.7272-.583 0l.385.3888c-.86.324-.32.5688-.471.8748-.17.3384-2.348 2.4156-2.783 2.736-.436.3204-1.113.1188-1.257 1.1484l-.36-.1728c.486.612-.86 1.4832-1.364 1.17.353.9792-.454.7488-.972 1.0872-.299.1944.032.6696-.785.2772.331.792-1.069.9144-1.602 1.2312-.281.1656-.414.4572-.709.666s-.702-.0792-.616.4392l-.385-.3852c-.086.6804-.68.8784-.878.1944l-.292.5832.389.1944c-.468.0468-.626.45-.587-.1908l-.32.594c-.781.0648-1.447.8928-2.113.1872l.097.5832c-.533.1044-.544-1.0332-.81-.0504-.378-.1152-.605-.1116-.85.2448l-.191-.3924-.489.198.597 1.4508-.403.2988c.889.072.367.7812.418 1.2744.039.3852.5.5868.165 1.0656 2.085.1692 2.268-2.088 3.899-2.538l-.194-.3816.975-.2016-.165-.3564c.288-.4428 1.055-.2376 1.105-.2664.072-.0468.137-.4104.31-.5544 1.411-1.1736 2.901-1.7784 4.406-2.6496.173-.1008.299-.5832.684-.6588.112-.0216.007.6336.482.3924-.162-.8424.411-.5472.825-.7956 1.548-.9324 2.405-1.026 3.845-1.4688.849-.2628 2.883-1.1592 3.657-1.1988.306-.018.533.1656.749.3456.464-.9468 2.38-.054 3.118-.7776l.414.5976 1.936-.378.278.3564c-.227-.4176.637-.4392.853-.3744.68.198.507.0864 1.382.18 1.163.1224 2.257.6228 3.424.5904l-.198.3888c.842-.3384 1.382.0108 2.073.4608.803.522.465.18 1.041.4068.252.0972 1.465.63 1.526.738.13.2376-.039.6696.13.9432.137.216 1.371.3456 1.793 1.0152.057.09-.058.3312.025.4752.435.774 1.044.9072.777 2.0556-.136.5868-.756 1.1592-.91 1.476-1.005 2.0592-1.689 4.248-3.14 6.1416-.082.108-.248.1584-.385.144l.389.288-2.632 3.2184-.288-.3888-.586.5868.388.288c-.547.3528-.86 1.044-1.558 1.0764l.388.1944c.09.108-1.936 1.6884-2.16 1.836-.244.162-.583.162-.824.306-1.166.6984-2.023 1.278-3.319 1.8252-.735.3096-2.365 1.5337-2.765.5148-.716.7632-1.667 1.1339-2.722.9648-.367-.0576-.673-.3564-.993-.3744-.551-.0324-.969.5655-1.159-.198-.616 1.0115-1.898.2088-2.769.0792-1.681-.2484-6.275-.8352-7.553-1.6596-.183-.1188-.306-.3456-.313-.5652l-.288.3888c-1.249-.8856-3.431-1.0368-3.809-2.7288l-.756.4104-.021 7.0017-.385-.198c-.094.569.212 1.098.201 1.649-.007.324-.392 3.186-.464 3.341-.187.414-1.037.112-.619.637l.464.151c.014.404.112.929.025 1.311-.036.151-.335.101-.349.223-.029.252.191.875-.036 1.274l-.385-.198c.129.832 0 1.998-.159 2.848-.201 1.073-.536 1.969-.73 3.035-.209 1.145-.774 2.279-1.03 3.189-.036.123.22.612.032 1.023-.165.36-.612.101-.453.637l.385-.198c-.281.792-.216 2.689-.972 2.93l.407.479-.407.785.4.205c-.213.821-.314 1.915-.324 2.754-.015 1.17-.004 4.173.313 5.188.075.245.443.23.583.435l-.583-.097v.583l.752-.18.807 2.135.583-.198c.162.439.295 1.642.63 1.894.057.043.288-.087.349-.033.169.152 1.35 3.723 1.433 4.169.515 2.693.875 6.617.072 9.234-.256.835-.958 1.84-1.116 2.776l-.393-.094.389.486c-.594.508-.777 1.681-1.17 2.171-.255.32-.565.054-.579.079-.065.112.014.533-.098.781-.381.846-2.707 2.862-3.571 3.5-1.649 1.206-3.798 1.836-4.921 3.38-.104.144-.349.137-.36.162-.101.184.626.713-.418.562l.584.482c-.22.594-1.12.637-1.17.688-.029.028.244.399.126.784-.134.436-.558.472-.706.731-1.717 3.067-3.038 3.651-5.71 5.71-.338.259.054.482-.925.187l.389.385-.486.011-.292-.4c-.097.987-.741.555-.939.638-.029.01-.051.309-.403.453-2.042.832-4.212 1.267-6.372 1.66l-.476-.407c-.111.918-1.303.353-1.857.371-1.869.057-3.953.223-5.814-.051-1.458-.216-2.6102-1.087-4.1294-1.101l.0972-.389-.486.389c-.3384-.465-.9072-.418-1.3392-.619-.3888-.184-.0252-.202-.7668-.429-1.9728-.605-3.7548-2.333-5.4036-3.143-.0792-.039-.1188-.151-.1944-.198l.3456-.133-.1512-.547-.288.389c-.2844-.137-.2016-.594-.3492-.735-.1044-.097-.4284.015-.5472-.158-.522-.756-1.2276-2.977-1.4868-3.791-.2772-.871-.8856-1.8-.6372-2.725l-1.1736-.198.1944-.583-.6768.392-.3132-.569c-.2376.231-1.5768-.345-1.8036-.59-.216-.23-.0936-.547-.1332-.598-.0288-.036-.3852.101-.7668-.14-1.782-1.127-2.8836-2.794-4.4856-3.982.3744-.705-.8712-1.53-1.1196-2.016-.0792-.154.1656-.669.1368-.687h-.5904l.1476-.353c-.8244-.317-.6372-1.422-.8352-2.088-.2736-.907-.6264-1.804-.8784-2.718l.4032-.205c-.6552-.256-.6876-1.073-.198-1.563l-.3744-.176c.2664-2.351.4428-4.615 1.2924-6.894.2844-.767 1.0692-1.681 1.4292-2.336.2556-.465-.1692-1.203.774-1.026l-.3888-.386c.5436.069.378-.532.6048-.864.162-.241.4752-.252.6264-.554.2844-.569.1764-1.94.7164-1.901l-.3996-.302c.378-.835.2628-2.095 1.1844-2.524l-.4032-.205c.0792-.256.2052-.504.2124-.781.0612-3.057-.3672-5.71-.3888-8.557 0-.116-.5004-.09-.414-.4l.4068-1.076h-.6912c-.1548-.184-.2412-2.024-.3312-2.394-.2412-1.019-.72-2.243-.918-3.017-.18-.699-.5292-1.534-.0144-2.002-.7452.065-.2376-.68-.288-1.08-.09-.727-1.2276-1.537-.2952-2.541-.738-1.35-1.0224-3.878-1.1196-5.656-.018-.32-.0828-2.009-.0612-2.11.0468-.226.486.004.3996-.316l-.5832-.112c.1332-.5725.0036-1.1557-.0036-1.7389 0-.2664.2124-.576.198-.7632 0-.0576-.6048-.2484-.3924-.702l-.5724.2088.1836.3744c-.2304.0144-1.242.5184-.81-.0936l-.3564-.0936c.1908.864-.5544.5544-.972.8892-.2484.198-.0684.6444-.5832.468l-.1008-.3816c-.2196.2844-.486.7704-.8676.8568-1.3716.3024-2.448 1.0727-4.05 1.4437-.5688.133-1.512-.248-1.422.428l-.3852-.385c.018.144.0324.328-.1404.385-.5292.177-3.7476.404-4.4388.382s-.6912.004-1.3644.022-1.7172-.368-2.3796-.533c-.306-.076-.774.41-.8532-.457l-.6732.392-.1008-.7777-.4716.3707-1.4796-.3779.198-.3852-.4968.1728-.2016-.3708c-1.2636.09-3.1716-1.404-4.2912-2.3112-.2088-.1692-.5832-.1872-.7812-.4176l.1152-.5832-.7776.1944c.0288-1.0476-1.4832-1.2492-1.7892-2.1132l-.3528.1656c.0108-.8892-1.0152-1.2672-1.5552-1.8648s-.9756-1.3464-1.5696-1.9404l.3888-.1944c-.63-.4392-1.2024-.7812-1.17-1.6596l-.3852.198c.1836-.6804-.5184-.918-.6228-1.2528-.126-.396.0468-.8532-.0576-1.08-.1656-.3636-.666-.4464-.8172-.6516-.072-.0972-.9576-2.088-.9828-2.2068-.072-.3276.09-2.0664.2412-2.4156.0756-.18 1.026-1.6632 1.116-1.7136.2268-.1296.6264.0216.7416-.0396.0216-.0108-.216-.2844-.0144-.4824.3312-.324 1.0332-.342 1.3212-.5508.3852-.2844.9792-1.0152 1.584-1.2852.7812-.3492 1.7136-.6192 2.5704-.6084l-.3888-.3852c.684.036 1.2168.0864 1.7532-.3924l.1944.3888.1296-.3924c.4068-.1224 1.3932.0648 1.6992-.0108.0792-.0216.3168-.5076 1.0836-.648.252-.0468 4.194.0648 4.4064.1224.1332.036.1152.3888.468.4572 1.9872.3996 4.4568.2196 6.4044 1.1844l2.9628 1.2528-.1836.3708h.9756v.7848l.1908-.3888c.8568-.0936 1.3752.5904 1.9368.9036.72.3996.8064-.0108 1.5516.9792.2556.3384.054.7992.6084.648l-.0972-.5832c.2232.2484.5292.3816.7884.5868 1.0044.8028 2.2716 1.3212 3.3156 2.142.3528.2772.8064.7992.4824 1.17l.486-.3888c.7848.3816.4356.9432.4896.972.0936.054.3636-.1656.5904-.0864.2844.1008.6624.8064 1.1628.6696.0612-.6624.2772-1.6596.4824-2.34.1332-.4464.6984-.6264.2952-1.2492l.3888-.1152c.3348-.3852-2.3364-.7524-2.1456-1.3608l-.4608.3708c-.7056-.504-1.9116-.5436-2.61-.9072-.3564-.1836-.3996-.5508-.468-.5904-.2988-.1728-1.8576-.4752-2.538-.846s-1.314-1.3464-2.232-1.5372l.1188-.5868c-.756.3528-.5688-.1332-.8424-.324-.3024-.2124-.864-.0324-.522-.648l-.7668-.0288c.1152-.756-.45-.4824-.8172-.8316-.7452-.7128-2.1168-2.016-1.7388-3.0384l-.5832.1944c.4104-.6552-.0828-.2304-.3204-.45-.5544-.5112-.7164-.936-1.044-1.5984l.3888-.288c-1.1412.0432-.7956-.756-1.0872-1.3536-1.188-2.43-1.2924-3.2724-1.512-5.9364-.0432-.504-.432-1.1232-.1296-1.8792l.5832.3888c.072-.072-.4896-.9144-.5364-1.1232-.3204-1.5192.3456-4.482.8676-6.048.234-.6984.7632-1.3896.8424-2.1852l.3816.1944c-.3636-.9036.7092-1.4184.7848-2.34l.288.3888c.3708-.2124.3708-.63.5652-.9072.1512-.216.5904.1764-.0792-.648l.5472-.0432c.432-.5904.864-1.7604 1.296-2.3112s1.2528-.7992 1.5732-1.548l.1944.3888c.3276-1.0764.7668-.7452 1.2096-1.0368 1.35-.8892 1.62-1.5084 3.3552-2.1852.3528-.1368.6768-.54 1.1664-.5832.396-.036 1.9044.7308 2.07 1.0764.09.1872.1116 2.0988.036 2.286zm76.0824 3.7872c-.065-.1008-.878-.378-1.037-.6084l-.68 1.0692.587.0972c-.411 1.0188-.126 2.6208-.587 3.5676-.339.6948-.274.6516-.511 1.476-.36 1.2492-.882 2.4624-1.142 3.7404-.928.0072-.208.2268-.435.72-.151.3312-.889.882-1.055 1.1124-.151.2088.126.4464-.371.612l.198.468c-1.08.0108-.727.756-1.029 1.4148-.108.234-.533 1.1484-.602 1.2564-.381.5904-1.368.9504-1.483 1.7352l-.792-.1116c.36 1.0368-.428.9936-.875 1.3608-2.196 1.7928-3.97 3.3768-6.616 4.3308-.796.288-1.696-.3276-1.865.4644l-.573-.0972-.403.864c.13.3276.519.1008.551.1332.137.1476.104.576.245.7812.813 1.2312.9.6192 1.353 2.5524.022.0972.807.5256.58 1.116l.385-.198c.133.792.346 1.8792 1.361 1.566l.007.5796.385-.0936-.097-.4932c.159-.2196.58.18.493-.3816h.389l.191.3852c-.022-.6912.569-.4572.821-.6084.194-.1152.608-.504.81-.594.403-.1836 1.181.0612 1.105-.5472l.288.3888c.428-1.3104 1.67-.5724 2.344-1.9476l.194.3888c.166-.6984.947-1.1988 1.66-.9756l-.198-.3852c.975.0396.817-.45 1.047-.702.67-.7236 1.275-1.2132 1.879-1.8864 1.289-1.44 2.355-3.1464 3.669-4.482 1.339-4.6224 2.505-9.7272 1.357-14.292-.166-.6624-1.289-2.3148-1.584-3.0672-.115-.2916.058-.6588.032-.6984zm-81.7056 3.5064c-1.0944-.3024-.27-1.7568-.6552-2.5596-.2952.3672-1.2744.7128-.8748 1.1664h-.5904l.1944.7812-.3852-.3888c.1656.5148-.306.5508-.3816.7308-.072.1656.0396.486-.0684.7776-.0936.2484-.8676.4716-.9216.576-.1656.3096.0396.7416-.0036.9144-.1512.6048-.5544 1.7136-.8208 2.4192-.0216.054-.2664.0504-.288.1404-.1008.414-.1296.9036.3456.9756-.9972.864-.2088 2.4336-1.17 3.5172.2952.1692.3492.1116.4932.4752.378.9396.3204 2.6172.6048 3.7332.1584.612.8676 2.6712 1.0872 3.0636.0936.1692.9936.3096.738 1.0152l-.3852-.3888v.7812c.0216.0288.3132-.1692.4572-.144.1224.0216 1.2312 1.4832 1.4976 1.8036.144.1728.1224.4932.2484.6228.324.3276 1.4328.4572.918 1.2276l.5796-.1044 1.5696 1.5696.594-.0108.1944.6876c.774-.2196 1.5732.0504 1.548.9792l.3852-.5832c-.09.5832.4068.1908.8208.396.1404.0684.1656.2772.3132.3636.45.2664 1.1088.072 1.0188.9936 1.2492-.7236 2.394.5508 3.708.4824v.4896l.3816-.0036.0072-.3816.5796.3888c-.1548-1.3248 1.152-1.9152 1.1736-3.1212l.3852.198v-.594l.3888.2016c-.3168-.5004.2412-1.0836.6876-1.368l.1908.3924.2916-.2916c-.468-.3384-.3348-.594-.1872-1.0728l.3564.1656 1.1952-1.8216-.486-.4932-.0972.3852c-.5076.18-.3276-.2844-.4788-.3492-.162-.0684-.99.0648-1.3464-.072-.2772-.108-.2556-.432-.3636-.5148-.0936-.072-.864.1512-1.098-.072l-.0288-.5472c-.6912.6336-.5004.162-.972-.0612-1.458-.6876-4.2804-1.8648-5.2344-3.1896-.1836-.2556-.3924-.9936-.4392-1.026s-.342.234-.5652.09c-.1944-.1224-1.296-1.1628-1.4796-1.3536-1.1772-1.2168-2.0376-2.916-2.6172-3.96-.1224-.2232-.5364-1.008-.5508-1.1664-.018-.2268.4644-.7488.1548-1.2348l-.3852.198c-.2988-.5004-.162-1.296-.2376-1.6632-.0252-.1224-.3456-.0936-.36-.1944-.0612-.4464.4608-.7776.3996-.8712-.0144-.0216-.288.0828-.45-.2448-.198-.4068-.036-2.1024-.3312-2.682l.5832.5832.1728-.7524zm37.6126 17.2944c.04-.09-.14-.3456-.039-.5328.212-.4032.554-.7848.892-1.0872l-.021-.6804-.49.7776-.093-.3852c-.807-.0972-.339.6696-.404.7524-.118.162-1.429.6984-1.746.4176.353.468-.176.3096-.198.774l-.482-.3852-.493 1.368c-.861-.3348-.655.2664-.889.558-.317.396-1.034 1.656-1.113 1.7244-.137.1188-.421-.0216-.5362.18s-.1188.7632-.1908 1.044c-.3528.0792-.1224-.3276-.1944-.3888-.054-.0468-.9.6084-1.3644.198l.9756.5832h-.9756l.1944.3852c-.8208.3024-1.2816.8244-2.34.7848l.198-.3888-2.1492-.5904.2088-.6588c-.6876-.2232-.3456-.8604-.4032-1.4832l.3564.1656.4212-.6552c-.5904-.1368-.4608-.7704-.306-1.2852.1296-.4284.4608-.3852.576-.5616.1764-.27-.0864-.8352.702-1.08l-.5832-.0972.5832-1.5588c-.2844-.2772-2.6892 1.6632-2.9376 1.8396-.5436.3888-1.3248.3096-1.1592 1.0836l-.3852-.3888c.0684.3816-.1728.6624-.4464.8892-.2916.2412-1.1664.8136-1.5048 1.1628-.378.3924-.1296 1.0872-1.1736.8748l.3888.2916c-.6588.1728-1.1052 1.3284-1.368 1.548-.504.4212-.864.0828-.7776 1.2816l-.3852-.198c-.1368.8172-.0756.8352-.7848 1.0764l.198.6768h-.5904c.3744.4752-.162.3492-.3348.7488-.1908.4356-.0828.8964-.4608 1.2816-.3456.3528-.7272.288-.756.3204-.054.0612.3384 1.1772-.2304 1.5228l-.3564-.1656c.486 1.314-.6012 1.1736-.756 1.3896-.1188.1656.0252.864-.0324 1.2096-.0072.0396-.5184.5652-.5364.6192-.2088.6768-.3132 2.0124-.4932 2.7036-.09.3492-.6876.4752-.3276 1.0008l-.3888-.0972c-.0792.414.4068.6876.3852 1.0728s-.6516.7596-.1872 1.4616h-.5868c.45.6444.6948.7632.198 1.476v3.0096l-.3924-.2916.3924.5832-.2448.0972-.144.7776.3852-.3888.0072.684-.594.1944c.8028.1872.1368.9252.198 1.5444.306 3.1893.6084 7.9703 1.1772 10.7063.3816 1.847 1.116 4.309 1.5408 6.131.2736 1.166.3276 2.383.7956 3.47l-.3888.188.5868.777-.5868.393.5832.097c-.2808 1.022.3276.903.3888.979.0504.065-.5688.623-.3852.972l.3888-.097c0 .882.144 1.778.2736 2.642.108.713.2268 1.39.2124 2.164-.0216.9-.3528 1.955-.0972 2.898l-.4896-.159-.288.454.5832-.097c.0504.471-.2016.572-.5832.389l.1944.975c.0792.079 1.1664-.763 1.3788-.875.4932-.266 1.3932-.651 1.9764-.939 2.3328-1.152 5.2668-2.041 7.8732-2.653 1.1232-.263 2.3436.172 3.3012-.602l.288.58c-.0144-.176-.054-.22.108-.335.5364-.385.9432-.014 1.3572-.079 1.3426-.209 1.3536-.36 2.8156-.256.324.022.543-.439 1.281-.108l-.097.386c.623-.209 1.458-.468 2.117-.472.561-.004 1.112.288 1.479.284.112 0 .101-.601.598-.396l-.094.386.49.205c.346-.925 1.861-.162 2.599-.112.738.051 2.56-.417 2.765.497l.209-.367 1.616.169.317.396.094-.385 1.861.389-.198.388c1.231-.511 2.502.404 3.647.706 2.102.554 3.063.724 5.133 1.688.205.098.447.051.659.116l.13.586.766.026.098.579c.378-.209.37-.626.565-.903.075-.108.302-.058.309-.072.033-.051-.442-.508-.41-1.077.011-.169.191-.151.248-.947.519-7.369 2.895-14.864 4.007-22.208.126-.846.069-2.149.259-2.938.04-.158.389-.136.396-.237.036-.389-.324-.605-.324-.774-.007-.929.411-2.6355.404-3.7047-.008-1.0692-.522-2.6856-.249-3.6576.076-.2664.454-.3744.357-.7344l-.389.0972-.18-.7956.374-.1728-.407-1.1592.404-.2124c-.911-1.2744-.72-3.4704-1.019-5.0256s-1.138-2.8728-.933-4.4316l-.385.3888-.198-.4896.396-.1908-.007-.4896c-.878.234-1.508-1.8144-.972-2.5344l-.392.5832c-.209.2016-.735-2.0268-1.167-2.07l.177-.45c-.872-.0684-.558-.7956-.749-1.0548-.126-.1728-.378-.1152-.403-.1368-.141-.108.72-.3204.385-.7776l-.562.1872c-.194-.6048-.709-.8748-.41-1.5552l-.393.1008c-.003-.7416-.298-.3708-.558-.6012-.741-.666-1.447-1.4184-2.3-2.0088-.277-.1908-1.033-.2232-.511-.6156l.446-.1908h-1.17l.198-.3924c-.799.1728-1.404-.1836-2.203.1944-.335.1584-.666.9648-.864 1.1808-.158.1728-.626.234-.781.4356-.267.3456-.029.882-.069.9036-.104.054-.388-.054-.518.054-.068.0576-.569 1.278-.641 1.5192l-.583-.1944.198.3852-1.562.3924v-.5868c-.504-.0972-.303.1008-.483.3924-1.051-.2916-.972-.9468-1.332-1.3176-.101-.1044-.662-.0072-.813-.6444-.126-.522.507-2.2356.471-2.8368-.014-.2556-.205-.5184-.475-.4644-.738.54-.216 1.5912-1.469 1.3644.018.2448.213.4392.025.6912-.349.468-1.864 1.4364-2.318 2.0844l-.047.7344-.583-.1944c.263.4824.108.6516-.295.972l-.195-.3888c-.928 1.9404-3.751.2232-3.736-1.4328 0-.342.604-3.0672.712-3.312.047-.1044.317-.126.335-.1692zm54.072 9.5976h-.385v.5832c-.878-.5688-1.685.1512-2.254.1908-.385.0288-.741-.198-.975-.1656-1.141.1476-2.578 1.0476-3.377 1.26-1.444.378-2.966 1.0116-4.266 1.5696-.796.342-1.476.9468-2.387 1.0512l.389.3852c-1.256-.0576-2.376 1.6848-3.128 2.0448-.281.1332-1.264.3996-1.548.5832-.112.072-1.066 1.818-1.422 2.1924-.209.2196-.958.5328-1.311.9792-.443.5544.126.6408-1.17.6408-.043 1.098.418.9576.976 1.656h-.778l.861.3024.118-.396h.386l.032.3456.356-.1548-.19.7812c1.26-.3672 2.034.09 3.132.6372.277.1368.5-.1872.572.7272l.22-.3564c.633-.2376 1.137.4608 1.533.6192.529.2124.573.1224 1.271.5148.536.2988-.151-.558.382-.3852 1.332.4356 1.166.648 2.746.6084.105 0 .062.3168.209.3564 1.609.4212 3.287-.234 4.824-.126.259.018.508.3348.807.3276.32-.0072.86-.6336 1.461-.3816l.191.3888c0-.2268 0-.5436.191-.684.072-.054 1.479-.6012 1.685-.6624.392-.1188.86-.2052 1.245-.0144l.018-.5652c1.671-.5652 3.881-2.1456 5.314-3.5244.191-.1836.079-.4752.252-.612.151-.1188.529-.0936.633-.2016.022-.0216-.118-.324-.021-.5004.835-1.4868 2.048-3.3264 2.973-4.6872.332-.4896-.014-.8352.976-1.1268l-.583-.3888c.381-.0864.543-.6264.561-.9864.004-.1044-.284-.0756-.37-.216-.119-.1908-.144-.594-.209-.6408s-.385.1296-.58.0792c-.875-.2268-1.634-1.1304-2.441-.6876l-.165-.3636-.699.1836.098-.3924c-.58.3168-.792.0684-1.17-.3852-.357.9-.965-.0144-1.163-.0252-.612-.0288-1.44.396-2.142.2304l-.299-.5976c.076.6588-.857.6372-1.231.3996-.173-.108-.123-.3888-.137-.3996zm-107.2582 1.5552-1.17-.3888-.108.6012c-.8604.0396-1.8504.0504-2.6928.2052-.4932.09-1.5084.5868-1.7748.576-.1512-.0072-.0144-.6516-.4968-.4032v.5868l-.4968-.1764-.1944.3816c-1.0512-.5724-.2592.4356-1.368.558-.9324-1.0296-.6516.2232-.7668.5868-.2088.6516-.7884.828-.2304 1.9044.1224.2376.8964 1.0692 1.08 1.3464.3348.5004.5976 1.0764 1.0044 1.5408l-.3888.288c1.2816-.0792 1.1736 1.1736 1.9476 1.8576l-.3888.288c.7596-.216.6876.234.9216.3924 1.0728.7416 1.6884 1.7352 2.6748 2.538.2376.1908.5796.1836.8136.378l-.1188.5904c.9756-.5076.972.6624 1.9296.81l-.1764.36c.738-.3888.5148.1296.7092.1764 1.2744.2988 2.3364.792 3.5676 1.1052.9108.2304 2.0844.234 3.0312.4788-.1008.9972.2808-.0216.7776-.108.3924-.0684.9144.1512 1.368.1224 1.9476-.1332 4.3236-.5112 6.1488-1.1196.8856-.2952 2.2284-.9288 3.2472-1.3968 1.4688-.6768 2.8872-1.4832 4.3308-2.2068l-.1728-1.7244-.3852.5832c.2268-.9216-.7596-.504-1.1772-.8784-.3204-.288.018-.774-1.0692-.8676.2304-.6588-.198-.2448-.6804-.5004s-1.2636-1.5048-1.3572-1.5624c-.1656-.0972-.4212.0756-.6948-.0792-.6192-.342-1.1376-1.2276-1.4076-1.3932-.306-.1872-.7272.0216-.9432-.1584-.18-.1512-.2304-.5148-.3096-.5688-.036-.0216-.396.1188-.828-.0468s-.7236-.6588-1.2312-.9324c-2.1636-1.17-4.6404-2.0844-6.8832-3.0132-.6084-.252-1.5624-.0864-1.8504-.918h-.288c-.3276 1.2384-.648.1656-1.0728.0828-.4968-.0936-2.3796.2844-2.6388.108l.198-.3852h-.5868l.198.3852zm48.6182 49.8561c-.072-.05-.072-.219-.061-.316h-.188c-.093.892-.529.313-1.058.388-1.5876.227-3.2364.562-4.8744.8-.7488.108-1.6416.313-2.358.576l-.2952-.4c.1692.99-1.89.893-2.6244 1.375l-.2052-.399-.2016.194c.2988.76-.6624.36-.8352.443-1.6632.785-3.1644 2.246-4.842 3.233-.2628.154-.5472.23-.8532.223.3708.36-.252 1.037-.594 1.267-.216.148-.594-.169-.7668.194l.378.101c.198.475-.2124.306-.3816.522-.414.54-1.2312 1.444-1.5012 1.851-.036.057-.0648 1.09-.2556 1.328l-.5796-.198.3888.482c-.9324.99-.5364 1.89-.6408 2.877-.324 3.074-.5724 5.335 1.0944 8.179.3708.634 1.6992 1.627 1.2996 2.502.9972-.083 1.5084 1.015 2.2428 1.562 2.376 1.772 4.4892 2.672 7.308 3.615 2.016.673 4.2588 1.371 6.1488 1.649 5.0794.741 9.4034 1.087 14.5724.727.562-.04 1.548-.346 1.995-.342.072 0 .198.662.698.396l-.097-.393c.612.44.418-.162.612-.198.166-.032.421.144.67.094 1.918-.392 3.834-.878 5.763-1.26l.364.392c.522-1.108 1.991-.871 2.97-1.321 2.912-1.35 5.148-2.959 7.38-5.303.536-.565.021-.712 1.256-.396l-.583-.388 1.318-2.877c1.267-3.96.108-6.887-.818-10.562-.054-.216.137-.526.083-.601-.014-.022-.306.201-.482.018-.198-.209-.238-.681-.493-.9l.388-.094v-.389c-.99.457-1.148-1.058-1.746-1.613-3.952-3.679-10.393-6.051-15.969-6.667-.295-.032-.583.115-.879.105l-.129-.404-.385.386-.126-.393-2.582-.036-.122-.349-.374.41c-1.923-.158-3.885 0-5.793-.126-1.299-.082-.363-.014-.882.116-.435.108-1.008-.094-1.339-.393l-.374.551c-.198-.104-.454-.101-.638-.234zm19.832 34.395c-.687-.144-.295.972-.587 1.361l-.583-.386.018.483-.968.27-.216-.364c-.155.648-1.714.889-2.383 1.026-1.592.321-3.186.306-4.554.526-.562.09-1.181-.015-1.743.205l.191-.396c-.504.014-1.217.259-1.678.281-1.94.09-5.18.097-7.063-.101-.428-.047-1.7962-.263-2.1418-.374-.1764-.058-.1584-.242-.1404-.386l-.3132.404c-.5832-.191-1.5048.054-1.7316-.602l-.558.378-2.4696-.655-.1908-.695h-.3852l-.1008.393-.288-.007-.0864-.36-1.6668.068 1.5876 2.596c1.2132.687 2.5272 1.771 4.1004 2.21.6228.482 1.8288.806 2.6964.95l-.198.386c.6048-.184 1.6022-.166 2.2032.007.176.05.162.637 1.188.173l.216.406.198-.392.371.374c2.505-.349 5.13.148 7.639-.55l.274.37c.046-.871.885-.514 1.274-.626 1.555-.454 3.697-1.292 5.213-2.293.205-.137.705-.742.993-.904.224-.126.558-.05.713-.162.09-.065 1.015-1.796 1.044-1.904.155-.58-.281-1.12.123-1.71z"/><path d="m91.4494 94.276c.126.198.972 2.6892 1.0116 2.988.1764 1.3464.018 5.918-.7776 6.988-.252.338-.6912.28-.8604.504-.18.237-.1693 1.047-.3169 1.144-.252.166-.9108.083-.7596-.363h-.1908c.1152.709-1.3967.378-1.8755.223s-1.6596-2.016-1.7928-2.516c-.054-.206.1404-.479.1224-.544-.0108-.04-.5436-.562-.5472-.601-.072-1.649-.9469-5.3822.6839-7.0922.3816-.3996.2305-.072.6661-.6804.864-1.206 1.6308-1.3896 3.186-1.0368.198.0432 1.3896.8892 1.4508.9864z"/><path d="m124.618 93.2925.148.3528.673-.2052v.5904c.633-.5112 1.577.882 1.681 1.3644.097.4464-.313.5508-.274.8388.209 1.6416 1.005 2.2392.4 4.1323-.234.735.353.728.338.774-.216.843-1.184 1.595-.979 2.639l-.389-.198c.364.857-1.256 2.286-2.066 2.351-.439-.428-1.004-.5-1.526 0-.155-.018-.857-.299-.962-.389-.172-.151-.097-.417-.19-.522-1.404-1.562-1.293-2.905-1.394-4.867-.032-.6371-.45-1.0727.288-1.8359l-.388-.1944.403-.1116c-.533-.882.507-.9468.183-2.0376l.386.198c.468-1.6344 1.954-2.8368 3.668-2.88z"/><path d="m122.643 137.583c1.242.908 2.175 1.851 2.506 3.438.036.17.119 1.545.104 1.638-.01.051-1.123.504-.007.418l-.59 2.632-.389-.198c.421.846-.36 1.144-.396 1.954l-.385-.198c.245.62-.069.918-.4 1.412-1.008 1.49-2.768 2.516-4.514 2.959-.609.155-.904-.277-1.026.313-1.095-.49-2.232-.472-3.143-1.35s-1.566-2.621-1.577-3.848c-.011-1.505 1.163-4.799 2.067-5.98.288-.378.741-.126.766-.158.134-.162.681-1.422.807-1.736l.579.198.033-.543c1.022-.018 1.271-1.314 2.109-.436l-.194-.583c1.199-.216 2.47-.328 3.643.065zm-2.106 7.506c.083-.151-.19-.482-.133-.792.054-.288.457-.561.465-1.026.007-.374-.378-.921-.112-1.461-.569.518-.875.392-1.559.198.303.738-.234.335-.396.507-.968 1.026-2.606 4.043-1.249 5.159.457-.381 1.451-.374 1.454-.986l.386.389c.036-.54.36-1.16.63-1.62.162-.274.493-.321.514-.364z"/><path d="m96.6863 140.514c1.0332 1.382 1.9152 3.186 2.268 4.882.324 1.558-.1296 2.8-.63 4.258-.0288.087-1.1124 1.188-1.26 1.322-1.3464 1.209-4.0968.712-5.5332-.126-.5796-.339-2.1888-1.811-2.5524-2.344-.2484-.371.0468-.76-.0144-.85-.0144-.021-.288.173-.4896.022-.3204-.245-1.1664-1.728-1.0692-2.167l.3852.198v-.389c-.8712-.191-.8784-1.516-1.1808-2.236l.3996-.111c.0864-.321-.3348-.09-.3924-.317-.1332-.536-.0756-2.556.7812-2.218l-.4068-.309c-.0108-1.044.5004-.666.702-.839.324-.277.5292-.929.972-1.188l.288.583.2088-.972.4824.137c.2376-.547.936-.562 1.53-.518 2.376.18 4.104 1.317 5.5008 3.186zm-2.7396 3.143c-1.926-2.437-3.8124-1.833-2.2824 1.011.1584.299.7956 1.523.8604 1.592.2988.313 2.106 1.274 2.3976.421.09-1.228-.2484-2.11-.972-3.024z"/></g></svg>