<svg width="100" height="100" viewBox="0 0 100 100" fill="none" xmlns="http://www.w3.org/2000/svg">
<circle cx="50" cy="50" r="50" fill="#F2EDE9"/>
<path d="M5.79336 50.02C5.75175 44.16 7.14467 38.0014 9.72047 32.6706L9.00122 32.355C6.37985 37.7822 4.96118 44.0504 5.00081 50.0143C5.00081 50.0143 5.00081 50.02 5.00081 50.0219C5.00081 50.0427 5.00081 50.0616 5.00081 50.0824C5.02062 61.5265 9.69471 72.2752 18.1691 80.3575C26.6613 88.4568 37.9592 92.9165 49.9862 92.9165V92.1606C38.1731 92.1606 27.0715 87.7803 18.7298 79.8227C10.3902 71.8689 5.79534 61.2846 5.79336 50.02Z" fill="#E6452D"/>
<path d="M94.9977 50.0825C94.9977 50.0655 94.9977 50.0466 94.9977 50.0296C95.0334 41.6997 92.2496 33.1525 87.1554 25.9546C82.0038 18.6755 74.6826 13.0687 66.5391 10.168L66.2617 10.8766C74.2526 13.7225 81.4391 19.2273 86.4976 26.3779C91.5006 33.4473 94.2349 41.8377 94.2032 50.0126C93.8525 58.7922 91.7938 65.8956 87.9103 71.7235L88.58 72.1279C92.5349 66.1942 94.6332 58.9811 94.9938 50.0844H94.9977V50.0825Z" fill="#E6452D"/>
<path d="M57.2338 90.5979C57.002 90.1992 56.683 89.9006 56.2808 89.7022C56.0549 89.585 55.7834 89.5075 55.4664 89.4698C55.1514 89.432 54.656 89.432 53.9843 89.4698L53.699 89.4849L52.7915 89.5359C52.5756 89.5472 52.423 89.5983 52.3299 89.6833C52.2387 89.7702 52.1971 89.9025 52.209 90.0801C52.2189 90.2464 52.2724 90.3693 52.3675 90.4505C52.4626 90.5318 52.5974 90.5677 52.7717 90.5582L52.853 90.5544L53.063 93.9899L52.9798 93.9937C52.8054 94.0032 52.6766 94.0523 52.5914 94.143C52.5062 94.2318 52.4686 94.3584 52.4785 94.521C52.4904 94.7061 52.5439 94.8346 52.6429 94.9065C52.742 94.9802 52.9005 95.0104 53.1244 94.9972L54.0319 94.9461L54.5688 94.9159C55.09 94.8876 55.4823 94.8422 55.7418 94.7836C56.0034 94.725 56.2293 94.64 56.4195 94.5304C56.8395 94.2885 57.1565 93.9484 57.3666 93.51C57.5766 93.0715 57.6658 92.5689 57.6301 92.0001C57.5964 91.4634 57.4636 90.9947 57.2318 90.596L57.2338 90.5979ZM55.9063 93.4022C55.6348 93.7027 55.193 93.869 54.5847 93.903L54.3093 93.9181L54.0973 90.4637C54.129 90.4581 54.1646 90.4543 54.2063 90.4505C54.2459 90.4467 54.3053 90.443 54.3826 90.4392C54.975 90.4071 55.4268 90.5242 55.7398 90.7926C56.0529 91.0609 56.2253 91.4861 56.2609 92.0662C56.2966 92.6558 56.1797 93.0999 55.9063 93.4004V93.4022Z" fill="#E6452D"/>
<path d="M63.6765 92.0832C63.6309 91.8792 63.5596 91.7412 63.4645 91.6713C63.3674 91.6014 63.2307 91.5844 63.0503 91.6203C62.8681 91.6562 62.7452 91.728 62.6838 91.83C62.6224 91.934 62.6144 92.087 62.658 92.2873L62.7769 92.824L60.5756 93.2662L60.2764 91.917L61.1086 91.7488L61.1264 91.83C61.1621 91.9888 61.2295 92.1021 61.3285 92.1664C61.4276 92.2306 61.5584 92.2477 61.7208 92.2155C61.8912 92.1815 62.0042 92.1135 62.0616 92.0096C62.1171 91.9075 62.1231 91.7544 62.0795 91.5541L61.8734 90.6187C61.8655 90.5866 61.8576 90.5526 61.8476 90.5205C61.8377 90.4883 61.8318 90.4694 61.8298 90.4619C61.8041 90.3447 61.7367 90.2559 61.6297 90.1973C61.5227 90.1387 61.3979 90.1236 61.2572 90.152C61.0967 90.1841 60.9857 90.2502 60.9263 90.3504C60.8669 90.4505 60.855 90.5866 60.8926 90.7586L60.9045 90.8134L60.0723 90.9815L59.8167 89.8269L62.018 89.3829L62.1231 89.8572C62.1686 90.0594 62.24 90.1973 62.341 90.271C62.4421 90.3447 62.5827 90.3636 62.767 90.3277C62.9434 90.2918 63.0622 90.2219 63.1217 90.1179C63.1811 90.014 63.1871 89.8591 63.1435 89.655L62.9196 88.644C62.8819 88.4777 62.8245 88.3756 62.7432 88.3322C62.662 88.2887 62.5273 88.2887 62.3351 88.3265L58.4595 89.1069C58.2554 89.1485 58.1147 89.2184 58.0414 89.3167C57.9681 89.415 57.9503 89.551 57.9879 89.7268C58.0236 89.8855 58.0929 90.0008 58.1999 90.0688C58.3069 90.1368 58.4397 90.1557 58.6002 90.1217L58.6814 90.1047L59.4264 93.4722L59.3452 93.4892C59.1807 93.5213 59.0658 93.5894 58.9984 93.6876C58.931 93.7878 58.9152 93.9163 58.9509 94.0769C58.9905 94.2545 59.0638 94.3736 59.1708 94.4341C59.2778 94.4945 59.4363 94.504 59.6443 94.4605L63.5199 93.6801C63.7161 93.6404 63.8409 93.5875 63.8944 93.5194C63.9479 93.4514 63.9578 93.3361 63.9222 93.1736L63.6804 92.0814L63.6765 92.0832Z" fill="#E6452D"/>
<path d="M72.8672 84.2768C72.364 84.2238 71.7735 84.3882 71.0919 84.77L69.3701 85.7356C69.1898 85.8377 69.0808 85.9454 69.0432 86.0606C69.0055 86.1759 69.0352 86.3101 69.1303 86.465C69.2175 86.6049 69.3225 86.6918 69.4454 86.7239C69.5682 86.7561 69.701 86.7334 69.8417 86.654L69.913 86.6143L71.7418 89.5812L71.6705 89.6209C71.5258 89.7021 71.4387 89.8004 71.4089 89.9157C71.3792 90.0309 71.4089 90.1575 71.4941 90.2993C71.5912 90.4561 71.7002 90.5468 71.8211 90.5714C71.9419 90.596 72.0945 90.5563 72.2788 90.4542L73.7212 89.6454C73.8995 89.5453 74.0065 89.4394 74.0402 89.3261C74.0759 89.2127 74.0442 89.0785 73.9491 88.9236C73.854 88.7705 73.749 88.6817 73.6301 88.6571C73.5132 88.6344 73.3646 88.6722 73.1843 88.7743L72.7543 89.0162L72.251 88.2017L72.9604 87.8048C73.6439 87.4212 74.0779 87.0017 74.2641 86.5444C74.4504 86.0871 74.385 85.6033 74.0699 85.0912C73.7707 84.6056 73.3705 84.3372 72.8672 84.2843V84.2768ZM72.9346 86.397C72.8336 86.5954 72.6196 86.7863 72.2926 86.9715L71.7002 87.3041L70.9255 86.0474L71.5179 85.7148C71.8349 85.5372 72.1123 85.454 72.3481 85.4654C72.5859 85.4767 72.7662 85.5825 72.889 85.781C73.0198 85.9926 73.0357 86.1986 72.9346 86.397Z" fill="#E6452D"/>
<path d="M80.1003 84.0953C79.9755 84.0934 79.8269 84.1596 79.6605 84.2938L79.0363 84.7907L76.7221 82.1508L77.3462 81.6538C77.5166 81.5178 77.6117 81.3912 77.6296 81.2721C77.6474 81.1531 77.5959 81.0264 77.477 80.8885C77.3561 80.7487 77.2333 80.6787 77.1124 80.675C76.9916 80.6712 76.843 80.7392 76.6666 80.879L74.4613 82.6365C74.2909 82.7725 74.1958 82.8991 74.176 83.0144C74.1562 83.1316 74.2077 83.2582 74.3286 83.398C74.4494 83.5341 74.5723 83.6059 74.6991 83.6078C74.8259 83.6116 74.9725 83.5454 75.1409 83.4113L75.7651 82.9143L78.0793 85.5542L77.4552 86.0512C77.2848 86.1872 77.1897 86.3139 77.1699 86.4291C77.1501 86.5463 77.1996 86.6729 77.3205 86.809C77.4433 86.9488 77.5662 87.0187 77.693 87.0225C77.8198 87.0263 77.9664 86.9601 78.1348 86.826L80.3401 85.0685C80.5065 84.9363 80.5977 84.8096 80.6175 84.6887C80.6373 84.5678 80.5858 84.4374 80.4669 84.3013C80.35 84.1671 80.2272 84.0991 80.1023 84.0972L80.1003 84.0953Z" fill="#E6452D"/>
<path d="M84.2916 79.7884C84.1846 79.6259 83.9667 79.4085 83.6437 79.1364L83.5743 79.0778L81.5652 77.3941L81.8327 77.1031C81.9773 76.9462 82.0507 76.8064 82.0487 76.6855C82.0487 76.5645 81.9773 76.4455 81.8386 76.3283C81.696 76.2093 81.5632 76.1563 81.4424 76.1715C81.3215 76.1866 81.1868 76.2754 81.0362 76.436L79.4075 78.2029C79.2589 78.3654 79.1836 78.5034 79.1836 78.6205C79.1836 78.7377 79.2549 78.8549 79.3976 78.9758C79.5383 79.093 79.671 79.144 79.7958 79.1289C79.9207 79.1137 80.0574 79.0268 80.202 78.87L80.739 78.2879L82.5341 79.7922C82.9225 80.1172 83.1384 80.395 83.186 80.6255C83.2335 80.8561 83.1365 81.1017 82.8927 81.3663C82.6966 81.5779 82.5024 81.6913 82.3102 81.7008C82.118 81.7121 81.8684 81.6119 81.5613 81.406C81.5276 81.3871 81.482 81.3549 81.4245 81.3096C81.0877 81.0639 80.8262 81.045 80.6359 81.251C80.5032 81.3946 80.4517 81.5288 80.4814 81.6554C80.5111 81.782 80.63 81.9332 80.838 82.1071L81.587 82.7344C81.7614 82.8799 81.9021 82.9707 82.0071 83.0047C82.1141 83.0387 82.2369 83.0255 82.3796 82.9631C82.6371 82.8516 82.8809 82.7136 83.1067 82.5511C83.3346 82.3886 83.5466 82.1996 83.7447 81.9842C84.0261 81.68 84.2282 81.3871 84.353 81.1074C84.4779 80.8277 84.5234 80.5651 84.4878 80.3175C84.462 80.1266 84.3946 79.9509 84.2857 79.7884H84.2916Z" fill="#E6452D"/>
<path d="M87.6269 76.0604C87.4704 75.9622 87.3357 75.9263 87.2188 75.9546C87.1019 75.9829 86.9869 76.0793 86.87 76.2456L86.5946 76.6406L85.7684 76.1171L86.2221 75.4633C86.66 74.8321 86.8581 74.2728 86.8145 73.7852C86.771 73.2977 86.4896 72.8876 85.9725 72.5607C85.4811 72.2489 84.9976 72.1752 84.5201 72.3377C84.0446 72.5002 83.5869 72.8952 83.151 73.5225L82.0473 75.1099C81.9324 75.2762 81.8829 75.4198 81.9027 75.5389C81.9225 75.6579 82.0097 75.7675 82.1662 75.8658C82.3089 75.9565 82.4416 75.9905 82.5684 75.9678C82.6933 75.9451 82.8022 75.8696 82.8934 75.7392L82.939 75.673L85.9467 77.5741L85.9011 77.6402C85.808 77.7744 85.7743 77.8991 85.8001 78.0144C85.8258 78.1297 85.9091 78.2336 86.0517 78.3224C86.2102 78.4226 86.3489 78.4585 86.4698 78.4301C86.5907 78.4018 86.7095 78.3016 86.8264 78.1334L87.7517 76.8031C87.8667 76.6387 87.9122 76.4988 87.8924 76.3836C87.8726 76.2683 87.7834 76.1587 87.6249 76.0585L87.6269 76.0604ZM85.2413 75.0003L84.8609 75.5464L83.5869 74.7414L83.9673 74.1953C84.1714 73.9024 84.3814 73.7134 84.5994 73.6246C84.8173 73.5358 85.0273 73.5547 85.2294 73.6832C85.4434 73.8192 85.5524 73.9969 85.5544 74.218C85.5544 74.4391 85.4514 74.6998 85.2413 75.0022V75.0003Z" fill="#E6452D"/>
<path d="M9.75102 29.4111C10.1215 29.6171 10.4742 29.6794 10.8091 29.5982C11.1439 29.5169 11.5402 29.258 11.9959 28.8215C12.091 28.7327 12.2178 28.608 12.3744 28.4492C12.9014 27.9201 13.3155 27.7387 13.6127 27.9031C13.8049 28.0089 13.9139 28.1601 13.9357 28.3547C13.9595 28.5494 13.8961 28.7686 13.7475 29.0124C13.583 29.2807 13.3928 29.4772 13.1729 29.6038C12.9549 29.7305 12.7053 29.7853 12.4279 29.7701C12.3843 29.7683 12.3229 29.7626 12.2416 29.7531C11.9087 29.7248 11.6888 29.7966 11.5838 29.9705C11.4847 30.133 11.451 30.2671 11.4847 30.3711C11.5184 30.4769 11.6254 30.5808 11.8097 30.6829L11.8552 30.7074L12.8479 31.2366C13.0203 31.3292 13.159 31.3594 13.266 31.3292C13.373 31.3008 13.478 31.2007 13.581 31.0344C13.6405 30.9361 13.6722 30.8492 13.6742 30.7774C13.6761 30.7037 13.6543 30.6262 13.6068 30.543C13.7851 30.4032 13.9496 30.2482 14.0982 30.0763C14.2468 29.9043 14.3954 29.6983 14.544 29.4565C14.9224 28.8366 15.073 28.2848 14.9977 27.7992C14.9224 27.3135 14.6292 26.928 14.116 26.6427C13.6999 26.4121 13.3036 26.3441 12.9252 26.4405C12.5468 26.5368 12.1426 26.8071 11.7146 27.2512C11.6591 27.3097 11.5858 27.3891 11.4907 27.4893C10.9299 28.0826 10.5238 28.3075 10.2662 28.1658C10.0859 28.0656 9.98086 27.9088 9.9551 27.6971C9.92934 27.4855 9.98879 27.2606 10.1354 27.0206C10.2523 26.8297 10.397 26.688 10.5713 26.5954C10.7457 26.5028 10.9438 26.4631 11.1657 26.4783C11.1895 26.482 11.2212 26.4839 11.2608 26.4877C11.5283 26.5123 11.7205 26.431 11.8354 26.242C11.9266 26.0928 11.9583 25.9699 11.9305 25.8698C11.9028 25.7715 11.8077 25.6751 11.6432 25.5844L11.5977 25.558L10.7853 25.129C10.603 25.0345 10.4703 24.9948 10.3831 25.0043C10.2959 25.0156 10.2067 25.0969 10.1116 25.2518C10.0482 25.3558 10.0185 25.4408 10.0205 25.5107C10.0225 25.5806 10.0562 25.6581 10.1215 25.7488C9.93727 25.8792 9.77282 26.0191 9.62817 26.1721C9.48353 26.3252 9.35474 26.4915 9.24577 26.6729C8.91488 27.2153 8.79599 27.7406 8.8911 28.2508C8.98422 28.761 9.26954 29.1465 9.74706 29.4111H9.75102Z" fill="#E6452D"/>
<path d="M11.95 23.8494L13.0516 24.7452L13.0814 24.7678C13.2379 24.8869 13.3786 24.9398 13.5034 24.9303C13.6282 24.9209 13.7471 24.8491 13.86 24.713C13.9532 24.5996 13.9928 24.4844 13.9789 24.3691C13.9631 24.2538 13.8957 24.1499 13.7729 24.0592L13.6778 23.9874L12.9268 23.3846L13.5549 22.6287L16.3843 24.7641L15.8811 25.3725C15.7463 25.5332 15.6829 25.673 15.6908 25.7902C15.6988 25.9073 15.776 26.0226 15.9266 26.136C16.0752 26.2494 16.212 26.2947 16.3368 26.2739C16.4596 26.2531 16.5884 26.1643 16.7212 26.0056L18.5044 23.857C18.6391 23.6964 18.7006 23.5546 18.6946 23.4356C18.6867 23.3165 18.6074 23.1994 18.4588 23.0879C18.3122 22.9764 18.1775 22.931 18.0527 22.9518C17.9298 22.9726 17.801 23.0633 17.6663 23.2239L17.161 23.8324L14.3316 21.6971L14.9597 20.9412L15.7483 21.5005C15.9346 21.6328 16.0851 21.6971 16.202 21.6933C16.3189 21.6895 16.4299 21.6215 16.5389 21.4911C16.6518 21.3569 16.6974 21.2322 16.6756 21.1188C16.6558 21.0054 16.5646 20.8883 16.4061 20.7673L16.3764 20.7446L15.2133 19.9245C14.9815 19.7639 14.819 19.6921 14.7319 19.711C14.6427 19.728 14.5337 19.8168 14.401 19.9755L11.8192 23.086C11.6865 23.2447 11.6231 23.3676 11.625 23.4545C11.627 23.5414 11.738 23.6718 11.9579 23.8494H11.95Z" fill="#E6452D"/>
<path d="M16.7283 18.8924C16.8551 18.8887 16.9977 18.815 17.1562 18.6713L17.4376 18.4181L18.9771 21.7667L18.9177 21.8196C18.7909 21.933 18.7255 22.052 18.7215 22.1711C18.7176 22.292 18.7731 22.4111 18.89 22.5301C19.0207 22.6624 19.1495 22.7267 19.2743 22.7229C19.3992 22.7191 19.5438 22.6454 19.7043 22.4999L20.6098 21.6817C20.7683 21.538 20.8535 21.4058 20.8654 21.2848C20.8773 21.1639 20.8178 21.0392 20.6871 20.9069C20.5603 20.7803 20.4354 20.7179 20.3086 20.7236C20.1838 20.7292 20.0411 20.8029 19.8806 20.9466L19.7578 21.058L19.52 20.5289L21.0378 19.1589L21.5708 19.4216L21.4479 19.533C21.2854 19.6786 21.1983 19.8108 21.1864 19.928C21.1745 20.0452 21.2319 20.168 21.3607 20.2984C21.4935 20.4326 21.6223 20.4968 21.7471 20.493C21.8719 20.4892 22.0146 20.4137 22.1771 20.2681L23.2351 19.3138C23.3936 19.1702 23.4788 19.0379 23.4907 18.917C23.5026 18.7961 23.4432 18.6713 23.3124 18.5391C23.1955 18.42 23.0727 18.3614 22.9458 18.3576C22.819 18.3558 22.6922 18.4106 22.5674 18.5258L22.508 18.5806L18.5075 16.6777L18.4976 16.6682C18.2004 16.5303 17.9468 16.5549 17.7388 16.7438L16.4211 17.9325C16.2626 18.0761 16.1774 18.2084 16.1655 18.3293C16.1537 18.4502 16.2131 18.575 16.3439 18.7072C16.4727 18.8376 16.5995 18.9 16.7263 18.8943L16.7283 18.8924ZM20.0986 18.694L19.0802 19.6143L18.1866 17.7416L20.0986 18.6959V18.694Z" fill="#E6452D"/>
<path d="M21.059 15.1001C21.1859 15.1209 21.3186 15.0831 21.4613 14.9867L21.5286 14.9413L23.6111 17.7513L23.5437 17.7967C23.401 17.8931 23.3198 18.0008 23.296 18.1179C23.2742 18.237 23.3119 18.3617 23.4109 18.4959C23.5219 18.6471 23.6408 18.7283 23.7636 18.7415C23.8885 18.7548 24.041 18.7 24.2213 18.5771L24.9644 18.0764L25.4022 17.7816C25.8282 17.4943 26.1373 17.26 26.3256 17.0767C26.5138 16.8953 26.6584 16.7101 26.7615 16.5211C26.9854 16.1035 27.0646 15.6556 27.0012 15.1775C26.9378 14.6994 26.7337 14.227 26.389 13.764C26.064 13.3237 25.6915 12.9949 25.2734 12.7738C24.8554 12.5527 24.4195 12.4601 23.9677 12.4942C23.7101 12.5093 23.4367 12.5811 23.1474 12.7077C22.8581 12.8343 22.4381 13.0837 21.8892 13.4541L21.6554 13.611L20.9124 14.1117C20.7361 14.2308 20.633 14.3499 20.6033 14.4689C20.5736 14.588 20.6132 14.7221 20.7202 14.8676C20.8213 15.0037 20.9342 15.0812 21.059 15.102V15.1001ZM22.6204 14.1741C22.6521 14.1514 22.6996 14.1174 22.763 14.0758C23.2485 13.7489 23.6963 13.6223 24.1104 13.6922C24.5245 13.764 24.9069 14.0362 25.2596 14.5105C25.6162 14.9924 25.7628 15.4308 25.6975 15.8219C25.6321 16.215 25.3507 16.5778 24.8534 16.9123L24.6275 17.0635L22.5352 14.2384C22.5589 14.2176 22.5887 14.1968 22.6204 14.1722V14.1741Z" fill="#E6452D"/>
<path d="M27.6929 12.9192C28.0198 13.0231 28.5013 13.0099 29.1314 12.8776C29.2621 12.8512 29.4385 12.8134 29.6604 12.7605C30.4054 12.5885 30.8552 12.649 31.0117 12.9419C31.1127 13.1309 31.1187 13.3123 31.0275 13.488C30.9364 13.6638 30.7601 13.8149 30.4946 13.9434C30.2053 14.0852 29.9318 14.1513 29.6762 14.1456C29.4206 14.1381 29.1809 14.0568 28.955 13.9019C28.9193 13.8773 28.8718 13.8414 28.8084 13.7923C28.5449 13.5957 28.319 13.5447 28.1327 13.6354C27.9584 13.7204 27.8534 13.8168 27.8217 13.9208C27.79 14.0266 27.8217 14.1702 27.9188 14.3497L27.9425 14.3951L28.4775 15.3513C28.5706 15.5176 28.6697 15.6158 28.7767 15.6461C28.8837 15.6763 29.0283 15.648 29.2086 15.5591C29.3156 15.5081 29.3889 15.4514 29.4325 15.391C29.4761 15.3305 29.5019 15.253 29.5098 15.1585C29.7396 15.134 29.9655 15.0867 30.1874 15.0206C30.4094 14.9544 30.6531 14.8562 30.9146 14.7296C31.5843 14.4026 32.0242 14.0171 32.2382 13.5693C32.4502 13.1214 32.4224 12.6471 32.153 12.1425C31.935 11.7344 31.6378 11.4736 31.2653 11.3583C30.8928 11.243 30.3994 11.2619 29.7872 11.415C29.7079 11.4358 29.6009 11.4641 29.4642 11.5C28.6578 11.7098 28.1862 11.689 28.0515 11.4377C27.9564 11.26 27.9584 11.0749 28.0555 10.884C28.1545 10.6931 28.3329 10.5344 28.5904 10.4078C28.7965 10.3076 29.0006 10.2623 29.1987 10.2755C29.3969 10.2868 29.5871 10.3568 29.7674 10.4834C29.7872 10.4985 29.811 10.5174 29.8407 10.5401C30.0527 10.6988 30.2607 10.729 30.4648 10.6289C30.6253 10.5514 30.7224 10.4626 30.7561 10.3662C30.7898 10.2698 30.762 10.1394 30.6768 9.97882L30.6531 9.93347L30.2132 9.15301C30.1141 8.98105 30.025 8.87712 29.9457 8.84121C29.8665 8.80531 29.7436 8.82798 29.5772 8.90924C29.4662 8.96404 29.3909 9.02073 29.3533 9.07932C29.3156 9.13979 29.2998 9.22293 29.3037 9.33065C29.0759 9.34576 28.8579 9.37789 28.6499 9.43269C28.4418 9.4856 28.2397 9.5593 28.0436 9.65568C27.4571 9.94102 27.0608 10.3227 26.8508 10.799C26.6408 11.2752 26.6606 11.7476 26.9122 12.2162C27.1064 12.581 27.3679 12.8153 27.6968 12.9192H27.6929Z" fill="#E6452D"/>
<path d="M31.8267 9.03974C31.9436 9.09265 32.0843 9.09265 32.2487 9.03974L32.322 9.01517L33.3583 12.3146L33.285 12.3392C33.1205 12.3921 33.0096 12.4733 32.9541 12.5811C32.8986 12.6888 32.8986 12.8192 32.9541 12.9741C33.0155 13.1461 33.1047 13.2557 33.2196 13.301C33.3345 13.3483 33.495 13.3369 33.6991 13.2708L34.7334 12.9325C34.9375 12.8664 35.0702 12.7795 35.1317 12.6755C35.1931 12.5716 35.1931 12.4337 35.1317 12.2617C35.0762 12.1067 34.993 12.0047 34.88 11.9518C34.7671 11.8989 34.6284 11.8989 34.4639 11.9518L34.3906 11.9763L33.499 9.29296L34.8741 11.0579C34.9771 11.1902 35.0861 11.2734 35.201 11.3093C35.3179 11.3452 35.4546 11.3357 35.6131 11.2847C35.7716 11.2337 35.8846 11.16 35.9519 11.0655C36.0173 10.971 36.049 10.8406 36.0451 10.6762L36.0015 8.4766L37.0199 11.1184L36.9466 11.143C36.7821 11.1959 36.6712 11.2772 36.6157 11.3849C36.5602 11.4926 36.5602 11.623 36.6157 11.7779C36.6791 11.9518 36.7663 12.0633 36.8792 12.1086C36.9922 12.154 37.1527 12.1426 37.3607 12.0765L38.391 11.7401C38.5674 11.6834 38.6863 11.6116 38.7556 11.5285C38.8606 11.5701 39.0053 11.5757 39.1935 11.5417L40.42 11.3206C40.6359 11.2809 40.7826 11.2148 40.8598 11.1184C40.9371 11.0239 40.9589 10.886 40.9232 10.7084C40.8896 10.5364 40.8182 10.4192 40.7093 10.3588C40.6003 10.2983 40.4378 10.2869 40.2238 10.3266L40.0574 10.3569L40.1564 9.78995L42.2092 9.42146L42.5083 9.91656L42.3419 9.9468C42.124 9.98648 41.9754 10.0526 41.8981 10.1433C41.8208 10.2359 41.799 10.3701 41.8347 10.5439C41.8703 10.7254 41.9417 10.8463 42.0487 10.9068C42.1557 10.9672 42.3181 10.9786 42.5381 10.9389L43.9686 10.6819C44.1846 10.6422 44.3312 10.5761 44.4085 10.4816C44.4858 10.3871 44.5076 10.2492 44.4719 10.0715C44.4402 9.91089 44.3728 9.79751 44.2658 9.73137C44.1608 9.66334 44.0221 9.64633 43.8517 9.67657L43.7705 9.69169L41.486 6.02753V6.01431C41.3116 5.74408 41.0857 5.63447 40.8024 5.6855L39.0191 6.00675C38.8032 6.04643 38.6565 6.11257 38.5793 6.20895C38.502 6.30343 38.4802 6.44138 38.5159 6.61901C38.5495 6.79476 38.6229 6.91192 38.7318 6.97428C38.8408 7.03664 39.0033 7.04798 39.2192 7.00829L39.5997 6.94026L38.9954 10.5515L38.9141 10.5666C38.7437 10.5969 38.6209 10.663 38.5495 10.7613C38.5495 10.7613 38.5495 10.765 38.5456 10.7669C38.5436 10.7669 38.5396 10.7632 38.5377 10.7613C38.4267 10.7084 38.288 10.7084 38.1235 10.7613L38.0463 10.7858L36.7504 7.57143L36.8238 7.54686C36.9882 7.49395 37.0992 7.4108 37.1566 7.3012C37.2141 7.1916 37.2141 7.05743 37.1586 6.90058C37.0972 6.72862 37.008 6.6209 36.8911 6.57366C36.7742 6.52642 36.6117 6.53776 36.4037 6.60579L35.6904 6.83822C35.5279 6.89113 35.413 6.9705 35.3417 7.07632C35.2704 7.18215 35.2367 7.32577 35.2406 7.50718L35.2545 10.268L33.4693 8.08543C33.3484 7.93992 33.2275 7.84544 33.1047 7.80386C32.9819 7.76229 32.8412 7.76796 32.6827 7.81898L31.9694 8.05142C31.7613 8.11945 31.6266 8.20448 31.5632 8.31031C31.4998 8.41613 31.4998 8.55408 31.5632 8.72604C31.6187 8.88289 31.7058 8.98871 31.8227 9.04163L31.8267 9.03974ZM40.6181 6.75318L41.6861 8.54274L40.307 8.79029L40.6181 6.75318Z" fill="#E6452D"/>
<path d="M45.0106 6.12199L45.0919 6.11821L45.2444 9.55749L45.1632 9.56127C44.9928 9.56883 44.864 9.61607 44.7788 9.703C44.6936 9.79181 44.656 9.91653 44.6619 10.079C44.6698 10.2605 44.7233 10.389 44.8184 10.4645C44.9155 10.5401 45.072 10.5742 45.288 10.5666L46.5343 10.5175C46.7523 10.508 46.9068 10.4627 46.996 10.3795C47.0851 10.2964 47.1248 10.1641 47.1168 9.98267C47.1089 9.82016 47.0594 9.69733 46.9682 9.61607C46.8751 9.53481 46.7424 9.49891 46.568 9.50458L46.4907 9.50836L46.4372 8.29138L46.891 8.27248C46.9544 8.27059 47.0178 8.28571 47.0772 8.31784C47.1366 8.34996 47.1901 8.40098 47.2397 8.46523L48.4998 10.1546L48.5137 10.1641C48.6445 10.3398 48.8188 10.4249 49.0388 10.4154L49.6332 10.3909C49.8511 10.3814 50.0077 10.336 50.0988 10.2529C50.19 10.1698 50.2316 10.0375 50.2236 9.85606C50.2157 9.68977 50.1622 9.56694 50.0651 9.48757C49.968 9.4082 49.8234 9.3723 49.6372 9.37985L49.5401 9.38363H49.4866L48.6465 8.22902C48.6366 8.21768 48.6247 8.20256 48.6108 8.18367C48.5236 8.05706 48.4384 7.97202 48.3532 7.92667C48.7118 7.7925 48.9833 7.59597 49.1676 7.33519C49.3518 7.07629 49.4351 6.77394 49.4212 6.43001C49.3994 5.93491 49.2072 5.5683 48.8446 5.32831C48.482 5.08832 47.9609 4.98249 47.2773 5.01084L45.0502 5.09966C44.8382 5.1091 44.6857 5.15446 44.5945 5.23949C44.5034 5.32453 44.4618 5.45681 44.4697 5.63444C44.4776 5.79696 44.5272 5.91979 44.6223 6.00483C44.7174 6.08798 44.8462 6.12766 45.0146 6.1201L45.0106 6.12199ZM47.0911 6.01239C47.416 5.99916 47.6538 6.04073 47.8064 6.139C47.9569 6.23537 48.0382 6.39978 48.0481 6.63032C48.058 6.86465 47.9847 7.03472 47.8282 7.14055C47.6716 7.24637 47.3922 7.30873 46.99 7.32385L46.3381 7.3503L46.2807 6.0464L47.0931 6.01428L47.0911 6.01239Z" fill="#E6452D"/>
<path d="M50.9434 10.4552L52.1838 10.578C52.4017 10.5988 52.5622 10.5761 52.6652 10.5043C52.7683 10.4344 52.8297 10.3097 52.8495 10.1283C52.8673 9.96575 52.8356 9.83914 52.7524 9.74466C52.6712 9.65206 52.5424 9.59726 52.37 9.57836L52.2927 9.5708L52.3859 8.71287L52.8832 8.34438C53.0992 8.55981 53.2834 8.79413 53.434 9.04357C53.5846 9.29301 53.7431 9.64261 53.9076 10.0924C53.9195 10.1302 53.9373 10.1812 53.9591 10.2454C54.0839 10.595 54.2761 10.7821 54.5357 10.8086L55.1281 10.8671C55.3461 10.8879 55.5065 10.8653 55.6096 10.7934C55.7126 10.7235 55.774 10.5988 55.7938 10.4174C55.8117 10.253 55.778 10.1245 55.6948 10.0319C55.6116 9.9393 55.4729 9.88449 55.2846 9.8656L55.1875 9.85615L55.1241 9.85048C54.9022 9.2042 54.7001 8.72043 54.5178 8.40107C54.3355 8.08171 54.1235 7.81715 53.8838 7.60739L55.4273 6.42065L55.5382 6.43199C55.7146 6.449 55.8533 6.42065 55.9543 6.34506C56.0554 6.26947 56.1148 6.14853 56.1327 5.98035C56.1525 5.80082 56.1208 5.66477 56.0376 5.57784C55.9543 5.48902 55.8038 5.43422 55.5858 5.41154L54.4069 5.29438C54.1889 5.27171 54.0304 5.29627 53.9294 5.36808C53.8283 5.438 53.7689 5.56461 53.7491 5.74413C53.7312 5.90098 53.753 6.01814 53.8125 6.09562C53.8719 6.17499 53.9848 6.23168 54.1493 6.26569L52.5087 7.53558L52.6593 6.14475L52.7366 6.15231C52.9089 6.16932 53.0457 6.13908 53.1467 6.06349C53.2478 5.98602 53.3072 5.86508 53.325 5.70067C53.3449 5.52115 53.3112 5.38509 53.224 5.29627C53.1368 5.20746 52.9862 5.15265 52.7703 5.12998L51.5299 5.00715C51.312 4.98636 51.1534 5.01092 51.0524 5.08084C50.9513 5.15076 50.8919 5.27737 50.8721 5.4569C50.8543 5.6213 50.884 5.75169 50.9632 5.84618C51.0425 5.94066 51.1653 5.99547 51.3357 6.01247L51.417 6.02003L51.0445 9.4423L50.9632 9.43474C50.7908 9.41774 50.6541 9.44608 50.5551 9.52167C50.456 9.59726 50.3985 9.71631 50.3807 9.87694C50.3609 10.0602 50.3926 10.1963 50.4778 10.2832C50.563 10.3702 50.7156 10.425 50.9375 10.4476L50.9434 10.4552Z" fill="#E6452D"/>
<path d="M57.201 11.2713L59.9848 11.946C60.1948 11.997 60.3553 11.9951 60.4663 11.9384C60.5772 11.8836 60.6565 11.7664 60.704 11.5907C60.7496 11.4168 60.7377 11.2808 60.6684 11.1825C60.599 11.0824 60.4584 11.0087 60.2483 10.9576L59.4617 10.7668L60.3494 7.43143L61.3282 7.66953L61.1142 8.58416C61.0627 8.79958 61.0647 8.95832 61.1142 9.05847C61.1657 9.15863 61.2767 9.22855 61.4451 9.27012C61.6194 9.3117 61.7581 9.30225 61.8572 9.23611C61.9583 9.17186 62.0336 9.04525 62.0831 8.85816L62.093 8.82226L62.4021 7.47489C62.4596 7.20656 62.4635 7.03648 62.41 6.96845C62.3565 6.89853 62.2277 6.83806 62.0217 6.78893L57.9896 5.81195C57.7835 5.76092 57.6388 5.75526 57.5576 5.79305C57.4764 5.83084 57.3951 5.98013 57.3159 6.2428L56.9077 7.56749L56.8978 7.60339C56.8483 7.78859 56.8542 7.93409 56.9137 8.03803C56.9731 8.14385 57.092 8.21755 57.2663 8.25913C57.413 8.29503 57.5398 8.2818 57.6428 8.22133C57.7478 8.16086 57.8172 8.05882 57.8568 7.9152L57.8865 7.8037L58.156 6.90231L59.1368 7.14042L58.2491 10.4758L57.4625 10.2849C57.2525 10.2339 57.094 10.2358 56.985 10.2906C56.876 10.3454 56.7968 10.4606 56.7512 10.6364C56.7036 10.8121 56.7155 10.9501 56.7869 11.0502C56.8562 11.1504 56.9949 11.2241 57.201 11.2751V11.2713Z" fill="#E6452D"/>
<path d="M71.1352 43.3474L70.8222 43.4702L70.6696 43.1943L70.2892 43.4117L70.4001 43.6384L70.1445 43.7405L70.309 44.1827L70.6042 44.0504L70.7449 44.3357L71.2026 44.16L71.0342 43.8576L71.3453 43.7197L71.1352 43.3474Z" fill="#E6452D"/>
<path d="M52.2795 41.0117C51.2016 40.8473 49.773 40.921 49.1489 40.9664C49.1152 40.9683 49.0835 40.972 49.0498 40.9739C48.9963 40.9777 48.9528 40.9815 48.9191 40.9853C48.9092 40.9853 48.8993 40.9853 48.8894 40.9872C48.8557 40.9909 48.8359 40.9928 48.8359 40.9928C47.5658 41.1119 45.9331 41.4558 44.986 42.395C43.6823 43.6894 43.1235 45.3543 42.8937 46.2802L42.4142 43.8217C42.6084 43.8822 42.8976 43.8954 43.0462 43.5402C43.284 42.9732 43.0799 42.2117 42.5033 41.6599C41.9248 41.1081 41.16 40.9475 41.16 40.9475L41.0332 40.9569L38.9963 31.4158C38.9963 31.4158 38.1661 27.7818 36.581 26.665C34.9959 25.5501 33.2225 26.5573 32.8837 27.8896C32.5449 29.2218 32.5449 31.7408 33.2225 34.3675C33.7872 36.5558 34.669 40.2672 34.9483 41.4482H34.9404C34.9404 41.4482 33.7139 42.0605 33.7753 42.9884C33.8348 43.8671 34.2231 44.2809 34.9543 43.9937L35.626 47.3989L32.644 41.5919L29.0755 39.3091L28.3364 38.1469L27.8173 38.3321L27.641 38.3945L27.6449 38.402L23.5078 40.0952L24.334 41.2574L23.7258 46.8604L27.211 53.79H27.0287L30.5794 61.9346L27.9164 63.1176L28.5346 64.2495L31.1025 63.1308L35.093 72.2827H62.4123L66.4821 62.8681L69.7117 64.2495L70.3398 63.1176L67.0012 61.6625L70.4052 53.79H69.8881C71.0333 52.6826 74.2035 48.8408 73.6012 40.7868C73.8984 41.0779 74.2372 41.3934 74.4413 41.5219V40.9853C74.4413 40.9853 75.1803 42.2608 75.4439 42.5481L75.4617 41.9433C75.4617 41.9433 76.1829 43.2699 76.5178 43.6063C76.5178 43.6063 76.4643 42.8674 76.5713 42.531C76.5713 42.531 77.4352 44.3452 78.3506 44.9329C78.3506 44.9329 78.194 44.4623 78.2634 44.0183C78.2634 44.0183 79.2501 45.1162 79.8663 45.3524C79.8663 45.3524 80.3934 43.7745 80.1298 42.4214C80.1298 42.4214 80.0684 41.9433 79.6721 41.556C79.6721 41.556 80.2705 41.4256 80.7996 41.7676C80.7996 41.7676 80.4112 40.6829 79.478 40.3125C79.478 40.3125 80.0585 40.1613 80.5875 40.2785C80.5875 40.2785 79.7415 39.4055 79.3016 39.3053C79.3016 39.3053 79.6721 39.0861 80.217 39.2127C80.217 39.2127 79.8921 38.7649 79.0064 38.4474C79.0223 38.3869 79.1253 37.9712 79.0599 37.7576C79.0599 37.7576 79.9238 38.2697 80.1596 38.6156C80.1596 38.6156 80.0209 37.9239 80.007 37.8446C80.007 37.8446 81.1344 38.7082 81.4554 39.2127C81.4554 39.2127 81.3028 38.2754 81.0413 37.58H81.4911C81.5406 37.6405 81.5782 37.7009 81.5961 37.7576C81.5961 37.7576 81.5862 37.6896 81.5584 37.58H81.5961C81.5465 36.3706 80.3537 35.7659 80.3537 35.7659L81.5961 35.7886C81.3028 35.1838 79.4027 34.3599 79.4027 34.3599C79.9139 34.3732 80.7916 34.6491 80.7916 34.6491C80.5975 33.8592 78.9153 33.5096 78.9153 33.5096L79.7197 33.2771C78.9153 32.6724 77.3797 32.9275 77.3797 32.9275L77.7462 32.3946C76.601 32.2812 75.1387 32.8803 75.1387 32.8803L75.4597 32.4702C76.0601 32.3814 76.4048 32.1131 76.4048 32.1131C75.8203 32.0431 75.6004 31.6954 75.6004 31.6954C76.6723 31.8126 77.3797 31.3458 77.3797 31.3458C76.819 31.3685 76.3553 31.0662 76.3553 31.0662L77.3797 30.8337C77.0864 29.904 75.4042 29.8983 75.4042 29.8983L75.965 29.4391C75.111 29.2766 73.8191 29.6016 73.8191 29.6016L74.0866 29.184C72.9889 29.3238 72.5015 30.0155 72.5015 30.0155L72.5748 29.4164C72.1468 29.5695 71.4454 30.1402 71.1007 30.435L70.9144 30.333C71.3583 30.1213 72.2737 29.1557 72.2737 29.1557L71.4098 29.4391C72.0775 28.8968 72.2737 28.19 72.2737 28.19L71.5822 28.4735C71.9764 28.0502 72.2737 27.0373 72.2737 27.0373C71.1621 27.179 70.4012 27.814 70.4012 27.814L70.8411 27.0373C69.5572 27.3434 69.0618 28.3336 69.0618 28.3336C68.9132 28.1919 69.0618 27.6269 69.0618 27.6269C68.4932 27.8631 67.8274 28.9705 67.8274 28.9705C67.7779 28.6398 67.9998 28.1692 67.9998 28.1692C67.2825 28.4527 66.8149 29.5355 66.8149 29.5355V28.7872C65.7034 29.6168 65.5805 31.6558 65.5805 31.6558C65.4319 31.3723 65.2972 30.2649 65.2972 30.2649C64.8177 31.0662 64.8296 32.9275 64.8296 32.9275L64.3045 31.7975C63.9915 32.8576 64.3957 34.3618 64.3957 34.3618C64.0985 34.1464 63.7775 33.5171 63.7775 33.5171C63.5793 35.0251 64.3045 35.8736 64.3045 35.8736L63.7775 35.6147C63.9023 36.7277 64.253 37.3457 64.4432 37.6065C64.2074 38.4455 64.0747 39.1239 64.0053 39.5283L61.0986 41.8583C60.8054 41.7827 60.3754 41.9717 59.7473 42.7125C58.7051 43.9446 58.2672 45.2995 58.083 46.2557C57.9324 44.8705 57.4331 43.1187 55.9431 42.2495C54.6017 41.4671 53.2761 41.1421 52.2894 41.0117H52.2795ZM33.4841 28.464C33.8605 27.0241 35.3327 26.3759 36.5037 27.8518C37.6727 29.3276 37.9957 30.658 38.4574 32.3134C38.8635 33.7684 40.0504 39.6171 40.3298 41.0098L37.4072 41.246C38.5564 40.6451 39.4045 39.6114 39.4045 39.6114C38.2156 39.3072 36.0539 39.7551 35.3862 39.9062L34.9959 38.2811C36.9258 38.1242 38.6852 36.45 38.6852 36.45C37.3676 36.123 35.1643 36.4329 34.5758 36.5274L34.241 35.129C36.4363 34.6509 37.9541 33.1241 37.9541 33.1241C36.7791 32.7575 34.451 33.0863 33.7753 33.194L33.7714 33.1751C33.7714 33.1751 33.6485 32.5666 33.5376 31.7597C35.6933 31.2343 36.8822 30.0892 36.8822 30.0892C36.0757 29.8284 34.132 29.9512 33.3751 30.0117C33.3533 29.424 33.3751 28.8684 33.4841 28.4602V28.464ZM35.731 41.3481L35.513 40.4429C36.4284 40.0366 38.4554 39.8817 38.4554 39.8817C37.9085 40.5355 36.2977 41.1478 35.731 41.3481ZM34.9008 37.888L34.6808 36.9696C35.8598 36.6899 37.7005 36.6559 37.7005 36.6559C37.0367 37.2776 35.3961 37.7557 34.9008 37.888ZM34.1062 34.581L33.9002 33.7231C35.1207 33.2488 36.9792 33.33 36.9792 33.33C35.8003 34.2579 34.5283 34.5168 34.1043 34.581H34.1062ZM33.3989 30.4482C34.4986 30.2744 35.7686 30.3084 35.7686 30.3084C34.8631 30.8772 33.8407 31.1285 33.4682 31.206C33.4405 30.9584 33.4167 30.7033 33.3989 30.4463V30.4482ZM34.4332 43.1074C34.4332 42.6029 34.4629 42.4498 35.0751 42.1002L41.2412 41.7185C41.3878 41.8262 42.6361 42.754 42.3647 42.9619C42.0754 43.183 41.5008 42.9619 41.5008 42.9619C41.5008 42.9619 40.9381 42.7332 40.3595 42.9619C39.7809 43.1906 39.662 44.1127 38.7546 44.2639C37.8471 44.4151 37.3716 44.3168 36.7296 43.6876C36.0856 43.0564 36.0044 43.1471 35.6438 43.1471C35.2832 43.1471 34.4332 43.663 34.4332 43.1093V43.1074ZM35.6894 43.8501C36.1926 43.9332 36.5394 44.3678 36.5394 44.3678C36.5394 44.3678 37.0268 44.9026 37.8808 44.9612C38.7348 45.0217 39.1231 44.8951 39.6224 44.5965C40.1217 44.2979 40.302 43.6894 40.8231 43.6894C41.0827 43.6894 41.3462 43.6724 41.5662 43.7121L43.6109 53.7918H38.9091L36.8306 49.7441L35.6913 43.8482L35.6894 43.8501ZM55.2298 53.7937H52.444V51.6621H55.2298V53.7937ZM56.6148 55.1298L56.2661 56.9892L51.9981 55.1298H56.6148ZM59.2421 52.2933L59.8385 51.8927L59.2361 51.9097C59.2342 51.441 59.2461 50.9327 59.2817 50.4112L60.0346 50.003L59.3213 49.9576C59.3451 49.7176 59.3748 49.4776 59.4105 49.2376L60.0762 49.0241L59.4719 48.8729C59.5353 48.529 59.6126 48.1907 59.7077 47.8676L60.5597 47.5936L59.8563 47.416C59.8603 47.4027 59.8662 47.3895 59.8702 47.3763C60.9045 44.623 61.7743 43.1433 61.8615 43.9578C61.8991 44.3036 61.9447 44.5285 61.9784 44.708C60.9857 46.9624 60.0069 51.1689 60.0782 53.7937H59.3233C59.2916 53.429 59.256 52.9056 59.2421 52.2933ZM76.9596 34.6604C77.8196 34.7549 78.727 34.9382 79.6801 35.2273C79.0619 35.0894 77.9127 34.9042 76.6961 35.0837L76.9596 34.6604ZM75.0496 34.5905C75.426 34.5754 75.8144 34.5791 76.2146 34.5999C75.7827 34.6547 75.2596 34.7492 74.8435 34.9098L75.0496 34.5905ZM69.254 40.048C69.254 40.048 70.7837 40.5355 71.7724 40.2993C71.7724 40.2993 70.8054 40.184 70.6291 39.9403C70.6291 39.9403 71.7644 40.1141 72.4024 40.0971C71.4137 40.8227 69.8385 42.1626 68.1524 44.3225C67.9324 43.9162 67.5441 43.2661 67.1815 43.0148L66.6188 40.1821C66.6505 40.1632 66.6822 40.1443 66.7139 40.1236C67.0923 40.2766 68.3703 40.7264 69.9277 40.5166C69.9277 40.5166 69.2897 40.3371 69.256 40.0461L69.254 40.048ZM72.4242 39.7456L72.6501 39.9195C72.6343 39.9308 72.6204 39.9403 72.6065 39.9497L72.4262 39.7456H72.4242ZM66.7099 46.3502C66.698 46.1064 66.6861 45.7832 66.6822 45.4488L67.2608 45.084H66.6802C66.6862 43.8179 66.8367 42.6917 67.5599 45.1086C67.2766 45.4979 66.9933 45.9117 66.7099 46.3502ZM60.9183 53.7937C60.8866 53.2949 60.8787 52.4634 61.0174 51.2993L61.7208 51.0725L61.0669 50.9081C61.1343 50.4225 61.2255 49.8877 61.3483 49.3019L62.2043 49.026L61.4513 48.837C61.485 48.6896 61.5207 48.5384 61.5583 48.3854L62.2043 48.1775L61.6455 48.0377C61.6891 47.8695 61.7366 47.6956 61.7842 47.5218L62.4361 47.1117H61.9011C61.9447 46.9605 61.9903 46.8094 62.0378 46.6544C63.617 41.5144 63.2524 44.8913 63.185 45.6283C63.185 45.6283 62.5906 50.2467 61.3741 53.7994H60.9144L60.9183 53.7937ZM65.2873 43.6365C65.2655 43.6592 65.2437 43.6838 65.2199 43.7121C65.1664 43.5024 65.0753 43.2302 64.9445 43.0432L65.2873 40.9097V43.6365ZM66.1274 43.7612C66.0838 43.6838 66.0303 43.6101 65.9709 43.5496V40.9097L66.385 43.2869C66.2839 43.406 66.1967 43.5534 66.1274 43.7612ZM64.79 40.2596L64.2728 43.011C64.1936 43.0923 64.1064 43.2019 64.0152 43.3474L63.9578 43.6271C63.9142 43.3474 63.8369 43.1433 63.718 43.0337L64.79 40.2596ZM62.4539 51.938C62.4935 52.2839 62.6065 53.1985 62.7531 53.7918H61.917C62.0497 53.3421 62.2419 52.6883 62.4539 51.938ZM63.3733 53.0908C63.3158 52.8073 63.1969 52.1931 63.1038 51.5185L63.7279 51.1255H63.0543C63.0305 50.9063 63.0087 50.687 62.9968 50.4754L64.1341 50.2619L62.981 50.0578C62.981 50.0427 62.981 50.0294 62.981 50.0143C63.0226 49.8537 63.0662 49.6949 63.1078 49.5343L63.833 49.077H63.2247C63.3396 48.6216 63.4486 48.1775 63.5437 47.7618L64.1539 47.3763H63.6289C63.7359 46.8831 63.8171 46.4428 63.8627 46.0932C63.932 45.564 63.9796 45.0689 63.9954 44.6362C64.3481 43.7424 64.7226 43.1868 64.8157 44.5039C64.4393 45.8758 64.784 48.4232 64.9465 49.4436C64.3937 50.5491 63.8627 51.7623 63.3713 53.0927L63.3733 53.0908ZM65.4379 48.4988C65.424 48.2852 65.4062 48.0055 65.3903 47.6956L65.8976 47.3763H65.3745C65.3586 47.0437 65.3467 46.6884 65.3428 46.3407L65.8976 45.9911H65.3408C65.3408 44.6872 65.4735 43.6611 65.9808 44.6948C65.9511 45.2881 65.9867 46.1177 66.1155 47.3101C65.8877 47.69 65.6618 48.0887 65.4399 48.5006L65.4379 48.4988ZM65.9709 39.5056C65.741 39.6398 65.5647 39.7532 65.4478 39.8288L65.3883 39.8155C65.5191 39.6625 65.7807 39.3809 66.1868 39.0426C66.0977 39.1881 66.0244 39.3431 65.9709 39.5037V39.5056ZM72.7631 34.8966C73.1118 34.8153 73.4704 34.7473 73.8409 34.6963C73.4328 34.821 73.0028 34.9854 72.6699 35.1914L72.7631 34.8966ZM63.0543 43.1282C62.973 43.1868 62.8878 43.2586 62.7947 43.3474C62.7155 43.423 62.6342 43.5213 62.551 43.6403C62.5272 43.4381 62.4856 43.217 62.4103 43.0413L64.1559 40.4448L63.0543 43.1282ZM62.6996 55.1298L61.5702 59.3004L56.9536 57.2878L57.3439 55.1298H62.6996ZM41.6514 55.1298L41.8792 56.9174L36.4264 59.3382H36.4185L35.4437 55.1298H41.6494H41.6514ZM55.8242 59.3419H49.3728V55.5512L56.0045 58.3876L55.8242 59.3419ZM56.698 58.6862L58.2316 59.3419H56.5791L56.698 58.6862ZM49.3708 60.2566H55.6498L54.6156 65.7575H49.3708V60.2566ZM48.505 65.7575H43.7595L43.0264 60.2566H48.505V65.7575ZM48.505 59.34H42.9056L42.7352 58.0569L48.505 55.5417V59.3419V59.34ZM42.1883 59.34H39.7928L42.0615 58.3498L42.1883 59.34ZM37.6886 60.2566H42.3032L43.0046 65.7575H37.9046L36.7276 60.6761L37.6886 60.2566ZM43.1176 66.6343L43.6426 70.7577H39.0617L38.1067 66.6343H43.1156H43.1176ZM43.8764 66.6343H48.505V70.7577H44.4253L43.8764 66.6343ZM49.3708 66.6343H54.4511L53.6764 70.7577H49.3708V66.6343ZM55.2595 66.6343H59.5829L58.4654 70.7577H54.5105L55.2575 66.6343H55.2595ZM55.418 65.7575L56.4147 60.2566H60.3695L61.2136 60.6175L59.8207 65.7575H55.418ZM42.543 56.6226L42.3448 55.1298H45.9054L42.543 56.6226ZM38.1205 53.7937H34.8176L29.8978 44.1619L32.1169 42.5896L38.1185 53.7937H38.1205ZM31.683 41.966L29.3668 43.6025L25.4119 41.5257L28.7406 40.0555L28.81 40.1406L31.681 41.966H31.683ZM25.0691 42.1739V42.1285L28.602 44.1543L28.594 44.16L24.5916 46.0535L25.0711 42.1739H25.0691ZM28.2849 39.4792L25.1127 40.8605V40.8473L24.768 40.4372L28.0234 39.0483L28.2829 39.4811L28.2849 39.4792ZM24.5916 47.0286L29.1607 44.7458L33.9893 53.7918H28.0749L24.5916 47.0286ZM34.5184 55.1298L35.5051 59.3382H31.1599L29.337 55.1298H34.5184ZM31.5562 60.2566H34.3599L32.008 61.2997L31.5562 60.2566ZM35.9014 61.0351L37.009 65.7556H33.9398L32.531 62.5034L35.9014 61.0332V61.0351ZM34.3202 66.6343H37.215L38.1819 70.7577H36.1074L34.3222 66.6343H34.3202ZM61.269 70.7558H59.3511L60.4606 66.6324H63.0602L61.269 70.7558ZM63.4406 65.7575H60.6964L61.9903 60.952L64.9723 62.2275L63.4387 65.7575H63.4406ZM63.7616 60.2566H65.8302L65.5013 61.0143L63.7636 60.2566H63.7616ZM66.2265 59.3438H62.4242L63.5575 55.1317H68.0553L66.2265 59.3438ZM71.0036 50.8949C69.8187 52.11 70.1357 50.4489 70.1357 50.4489L69.7553 50.43C68.5011 51.7717 68.6893 50.2127 68.6893 50.2127H68.1762C68.2336 52.2631 69.5076 51.2105 69.5076 51.2105C69.7613 51.9569 70.2071 51.9059 70.5657 51.6943C70.1377 52.4237 69.6345 53.1286 69.046 53.7918H63.9221C64.0687 53.3818 64.3362 52.675 64.7186 51.7831C65.0971 53.104 66.1016 52.1157 66.1016 52.1157C66.1967 53.5311 67.661 52.3122 67.661 52.3122L67.338 51.9872C66.1591 52.9301 66.597 51.5147 66.597 51.5147L66.3315 51.4051C65.2496 52.6637 65.103 51.579 65.0991 50.9252C65.5964 49.8405 66.2324 48.5781 67.0052 47.2856C67.5421 48.1378 68.3287 47.3423 68.3287 47.3423C68.7468 48.5932 69.9257 47.4821 69.9257 47.4821L69.5651 47.1552C68.5189 48.1473 68.8419 46.5618 68.8419 46.5618L68.4991 46.6166C67.6214 47.5501 67.4252 47.0739 67.3895 46.6544C68.8221 44.3773 70.6767 42.0832 72.9354 40.5714C72.9354 40.5714 73.4625 46.0327 71.0016 50.8892L71.0036 50.8949ZM79.3809 39.8288C79.3809 39.8288 78.3248 40.0631 78.095 40.3333C78.095 40.3333 79.5394 40.5846 79.8564 41.0722C79.8564 41.0722 78.7567 41.2914 78.4338 41.2234C78.4338 41.2234 79.5731 41.76 79.6444 42.4233C79.6444 42.4233 79.7851 43.6573 79.6087 44.6985C79.6087 44.6985 78.2178 43.8954 78.0058 42.9109C78.0058 42.9109 77.7938 43.1698 77.883 43.6894C77.883 43.6894 76.4564 41.8583 76.2978 41.1194C76.2978 41.1194 76.1037 42.3288 76.2443 42.6822C76.2443 42.6822 75.2755 41.1875 75.2755 40.6508C75.2755 40.6508 75.0634 41.1723 75.1348 41.4237C75.1348 41.4237 74.4136 40.6546 74.3066 39.9384C74.3066 39.9384 74.0609 40.2634 74.0945 40.6338C74.0945 40.6338 73.7973 40.3144 73.516 39.9516C73.4962 39.7683 73.4803 39.5888 73.4585 39.3998C73.4585 39.3998 73.3753 39.4433 73.2227 39.5377C73.1494 39.4206 73.09 39.3072 73.0563 39.2127L73.1138 39.6058C73.0504 39.6455 72.979 39.6908 72.8998 39.7437C72.5174 39.4735 71.7882 39.0124 71.1997 38.9538C71.1997 38.9538 71.3999 39.3903 71.7704 39.6417C71.7704 39.6417 69.9931 39.6625 69.6047 39.3998C69.6047 39.3998 69.8881 39.8458 70.1437 39.9365C70.1437 39.9365 69.0163 39.8118 68.7607 39.5188C68.7607 39.5188 68.8478 40.0499 69.042 40.1897C69.042 40.1897 67.7561 40.1651 67.0428 39.927C74.1679 35.8887 78.4318 42.4196 78.4318 42.4196C74.8138 36.6956 69.9257 37.6915 67.2469 38.8574C68.0434 38.0959 69.7038 36.8128 71.7704 36.9205C71.7704 36.9205 71.4098 37.2569 71.3444 37.4572C71.3444 37.4572 72.5491 36.7051 74.4314 36.9129L73.3555 37.8427C73.3555 37.8427 75.8025 37.4893 77.0706 37.8427C77.0706 37.8427 76.1017 38.3793 75.856 38.6987C75.856 38.6987 77.8275 38.162 79.1134 38.8839C79.1134 38.8839 78.1623 39.105 77.8275 39.3979C77.8275 39.3979 78.9727 39.4206 79.3769 39.825L79.3809 39.8288ZM79.5117 37.2701L79.5414 37.7595C79.5414 37.7595 79.1471 37.4496 78.7231 37.3532C78.7231 37.3532 78.7984 37.8861 78.6914 38.2187C78.6874 38.2319 78.6815 38.2452 78.6755 38.2603C78.6715 38.2697 78.6676 38.2811 78.6636 38.2905C78.6557 38.3094 78.6478 38.3245 78.6398 38.3416C78.2971 38.249 77.8909 38.1771 77.4074 38.1507C77.4074 38.1507 77.4253 38.0127 78.1821 37.9636C78.1821 37.9636 77.6016 37.1926 74.8891 37.3117C74.8891 37.3117 75.1348 36.9583 75.4875 36.7995C75.4875 36.7995 74.5007 36.3007 72.6343 36.6408L72.8106 36.5142C74.4651 36.3517 76.4207 36.4065 78.7211 36.8411C78.7211 36.8411 74.6335 35.3671 69.3135 36.8846C70.0921 36.3479 71.5247 35.4295 72.2618 35.4068L72.0716 35.9114C72.0716 35.9114 72.7413 35.2273 74.4294 34.9117L74.0846 35.5542C74.0846 35.5542 75.4419 34.9306 76.1334 34.9117C76.1334 34.9117 75.7431 35.2916 75.7153 35.5807C75.7153 35.5807 77.6412 35.25 78.4318 35.4975L77.8948 35.7583C77.8948 35.7583 79.4383 35.7375 80.116 36.4197C80.116 36.4197 79.6404 36.2685 79.2065 36.295C79.2065 36.295 80.3894 37.2795 80.6628 37.9636C80.6628 37.9636 79.9555 37.34 79.5077 37.272L79.5117 37.2701ZM80.5836 36.877C80.5836 36.877 80.7362 36.9677 80.9224 37.0981H80.7996C80.7322 36.9961 80.6589 36.9167 80.5836 36.877ZM77.029 32.7707L76.5911 33.5152C77.4193 33.143 78.725 33.2356 78.725 33.2356C78.3466 33.2356 77.5659 33.7477 77.5659 33.7477C78.6874 33.7477 79.9555 34.2579 79.9555 34.2579C78.6398 34.1162 78.2971 34.3656 78.2971 34.3656C79.151 34.5413 80.7599 35.5145 80.7599 35.5145L79.8049 35.5316C79.8782 35.4503 79.9931 35.3596 80.1536 35.3501C80.1536 35.3501 80.0328 35.3123 79.8247 35.2613C79.3214 34.9703 72.9394 31.5386 64.9287 39.311C65.0614 38.659 65.3428 37.5724 65.9035 36.3838L66.9596 35.1536C66.5891 36.2062 66.9734 36.9262 66.9734 36.9262C67.0012 36.7807 68.1801 34.7435 68.1801 34.7435C68.0414 35.6166 68.5407 36.0002 68.5407 36.0002C68.6774 35.4768 69.367 33.897 69.367 33.897C69.3333 34.3921 69.8722 34.8361 69.8722 34.8361C69.8306 34.4393 70.3299 33.5266 70.3299 33.5266C70.2467 34.1351 70.8431 34.4658 70.8431 34.4658C70.857 34.0292 71.8556 33.0976 71.8556 33.0976C71.6317 33.6551 71.8417 34.2012 71.8417 34.2012C71.9527 33.9782 72.6105 33.3206 72.9572 32.9804C73.0722 32.9729 73.1772 32.9653 73.2643 32.9597L73.4248 33.2847C73.9162 32.8689 74.4334 32.7896 74.6652 32.7745C74.7425 32.7745 74.79 32.7745 74.79 32.7745L74.0827 33.844C74.9366 33.3565 77.0329 32.7745 77.0329 32.7745L77.029 32.7707ZM72.7135 32.4003C72.8166 32.4816 72.9572 32.5439 73.1157 32.5949C73.0781 32.6157 73.0424 32.6365 73.0068 32.6592C72.8324 32.5269 72.7115 32.4003 72.7115 32.4003H72.7135ZM74.2986 32.4003C74.3323 32.4097 74.362 32.4154 74.3957 32.423C74.3779 32.4268 74.362 32.4324 74.3462 32.4362L74.3006 32.4003H74.2986ZM73.5239 32.6875C73.5754 32.697 73.625 32.7045 73.6765 32.7102C73.5378 32.8141 73.5199 32.8973 73.518 32.9237L73.5239 32.6875ZM72.1825 32.988C72.3014 32.9937 72.4262 32.9956 72.553 32.9937C72.2479 33.2582 72.0755 33.4907 72.0755 33.4907L72.1825 32.988ZM71.3701 33.1354C71.3246 33.0976 71.2691 33.0579 71.2077 33.0201L71.5722 32.9634C71.5009 33.0182 71.4335 33.0768 71.3701 33.1354ZM71.0571 33.4604C70.857 33.6948 70.7381 33.8856 70.7381 33.8856C70.5756 33.7307 70.6093 33.3584 70.6628 33.0844C70.8748 33.2185 70.9976 33.3697 71.0571 33.4604ZM72.0755 30.0495C72.028 30.4426 72.3965 30.6202 72.3965 30.6202C72.5431 30.0741 73.3238 29.7245 73.3238 29.7245L73.3476 30.2366C73.9024 29.8227 75.006 29.7717 75.006 29.7717L74.8356 30.2366C75.6896 30.2139 76.7615 30.6202 76.7615 30.6202L75.006 30.8866C75.5786 31.0926 75.9333 31.3288 75.9333 31.3288C75.5192 31.5839 74.4334 31.2589 74.4334 31.2589L75.0793 32.0035C74.2729 32.0488 73.1534 31.6085 73.1534 31.6085L73.3238 32.1206C72.4956 32.1206 71.6416 31.7956 71.6416 31.7956L72.0755 32.5401C71.705 32.7253 69.6919 32.6101 69.6919 32.6101C69.8009 32.6989 70.1813 32.8708 70.4468 32.9861C69.9951 33.4453 69.6919 34.3675 69.6919 34.3675C69.4977 34.0784 69.6919 33.0976 69.6919 33.0976C69.0559 33.5587 68.4496 35.3993 68.4496 35.3993C68.2792 34.7946 68.7171 33.8421 68.7171 33.8421C68.083 34.2843 67.0111 36.1967 67.0111 36.1967C66.9873 35.4824 67.5481 34.4922 67.5481 34.4922C67.3341 34.547 66.8288 34.9987 66.4464 35.3634C67.7819 33.1316 70.1754 30.8829 74.4353 30.6826C74.4353 30.6826 72.9612 30.4293 71.1066 30.9509C71.1185 30.9301 71.1324 30.9093 71.1462 30.8885L71.4276 30.6202L71.388 30.5994C71.703 30.2763 72.0775 30.0514 72.0775 30.0514L72.0755 30.0495ZM64.1143 34.6736C64.4809 35.0024 64.9782 34.9098 64.9782 34.9098C64.7167 34.5413 64.5581 33.143 64.5581 33.143C64.8058 33.8497 65.2873 33.9669 65.2873 33.9669C65.0634 33.2771 65.1744 31.6576 65.1744 31.6576C65.1506 31.9883 65.9392 32.6478 65.9392 32.6478C65.9154 31.5518 66.4583 29.8681 66.4583 29.8681C66.4424 30.6334 66.6802 31.4233 66.6802 31.4233C66.5574 30.8337 67.3975 29.1859 67.3975 29.1859C67.4094 29.7415 67.8175 30.0344 67.8175 30.0344C68.0394 29.3049 68.6319 28.5264 68.6319 28.5264C68.6319 28.8325 69.1015 29.0215 69.1015 29.0215C69.2996 28.362 70.0149 27.7497 70.0149 27.7497C69.7672 28.0332 69.7672 28.7909 69.7672 28.7909C70.7797 27.8536 71.5465 27.7251 71.5465 27.7251C71.3008 28.3147 70.7559 28.7909 70.7559 28.7909L71.2493 29.0442C70.7559 29.3975 69.9653 29.8454 69.9653 29.8454L70.7302 29.9626L69.5691 30.7392L70.3894 30.7619L69.4006 31.6331C68.1306 32.3134 66.8348 33.434 65.8005 35.267C67.5461 31.2929 70.3894 28.7872 70.3894 28.7872C67.4331 30.6466 65.7925 33.6853 64.9069 36.1211C64.5046 35.8188 64.1104 34.6717 64.1104 34.6717L64.1143 34.6736ZM64.1619 36.2988L64.7206 36.6597C64.685 36.7655 64.6513 36.8695 64.6196 36.9715L64.1619 36.2969V36.2988ZM62.0418 42.7144C61.9407 42.7087 61.8218 42.7484 61.6792 42.8447C61.6475 42.6614 61.592 42.4366 61.4969 42.2438L63.5655 40.4429L62.0398 42.7144H62.0418ZM61.0808 43.1017C61.1006 43.1943 61.1086 43.3021 61.1026 43.4135C59.9237 44.8346 58.2177 48.2796 58.5625 53.7937H57.7818C57.7917 53.6218 57.8036 53.412 57.8214 53.1739L58.3267 53.0114L57.8412 52.8886C57.8591 52.6486 57.8789 52.3859 57.9027 52.1043L58.3108 52.0174L57.9185 51.9191C58.0968 49.9274 58.4476 47.1306 59.1054 45.2201L59.6879 45.033L59.2163 44.914C59.3213 44.6381 59.4343 44.3849 59.5571 44.16C60.4587 42.4914 60.9659 42.584 61.0788 43.0999L61.0808 43.1017ZM57.124 45.6226C57.5995 47.6408 57.0091 52.401 56.8189 53.7937H55.8916V51.0234H51.8753V53.7937H44.3579L43.3415 48.58C43.4227 47.4462 43.6942 45.6018 44.5739 44.3376C45.9272 42.395 47.013 41.8885 50.1 41.8432C53.187 41.7959 55.105 42.7144 55.105 42.7144C55.105 42.7144 56.5633 43.2472 57.124 45.6245V45.6226Z" fill="#E6452D"/>
<path d="M46.6254 43.6973C45.9795 43.9184 45.6466 44.5968 45.8784 45.2109C46.1102 45.827 46.8215 46.1444 47.4655 45.9233C48.1114 45.7022 48.4443 45.0238 48.2125 44.4097C47.9807 43.7936 47.2693 43.4762 46.6254 43.6973ZM47.0316 45.4131C46.1934 45.4131 46.1934 44.1716 47.0316 44.1716C47.8697 44.1716 47.8697 45.4131 47.0316 45.4131Z" fill="#E6452D"/>
<path d="M46.1378 46.5277C46.1378 46.0761 45.7534 45.7095 45.2798 45.7095C44.8063 45.7095 44.4219 46.0761 44.4219 46.5277C44.4219 46.9794 44.8063 47.346 45.2798 47.346C45.7534 47.346 46.1378 46.9794 46.1378 46.5277ZM45.2481 46.934C44.6894 46.934 44.6894 46.1063 45.2481 46.1063C45.8069 46.1063 45.8069 46.934 45.2481 46.934Z" fill="#E6452D"/>
<path d="M54.7305 48.4894C54.7305 48.9618 55.1307 49.3436 55.6261 49.3436C56.1214 49.3436 56.5216 48.9618 56.5216 48.4894C56.5216 48.017 56.1214 47.6353 55.6261 47.6353C55.1307 47.6353 54.7305 48.017 54.7305 48.4894ZM55.6479 48.8787C55.0891 48.8787 55.0891 48.051 55.6479 48.051C56.2066 48.051 56.2066 48.8787 55.6479 48.8787Z" fill="#E6452D"/>
<path d="M46.1378 47.3457C45.793 47.3457 45.5156 47.6122 45.5156 47.9391C45.5156 48.266 45.795 48.5324 46.1378 48.5324C46.4806 48.5324 46.7599 48.266 46.7599 47.9391C46.7599 47.6122 46.4806 47.3457 46.1378 47.3457ZM46.1299 48.2471C45.7098 48.2471 45.7118 47.6273 46.1299 47.6273C46.5479 47.6273 46.5479 48.2471 46.1299 48.2471Z" fill="#E6452D"/>
<path d="M49.4907 51.7773C49.0172 51.7773 48.6328 52.1439 48.6328 52.5956C48.6328 53.0472 49.0172 53.4138 49.4907 53.4138C49.9643 53.4138 50.3487 53.0472 50.3487 52.5956C50.3487 52.1439 49.9643 51.7773 49.4907 51.7773ZM49.4828 53.0038C48.9241 53.0038 48.9241 52.1761 49.4828 52.1761C50.0416 52.1761 50.0416 53.0038 49.4828 53.0038Z" fill="#E6452D"/>
</svg>
