<svg width="160" height="157" viewBox="0 0 160 157" fill="none" xmlns="http://www.w3.org/2000/svg">
<ellipse cx="80" cy="78.5" rx="80" ry="78.5" fill="#F2EDE9"/>
<path d="M11.2341 79.0327C11.1694 69.9172 13.3362 60.3371 17.343 52.0446L16.2242 51.5537C12.1465 59.9961 9.93961 69.7467 10.0013 79.0239C10.0013 79.0239 10.0013 79.0327 10.0013 79.0357C10.0013 79.068 10.0013 79.0974 10.0013 79.1297C10.0321 96.9317 17.3029 113.652 30.4854 126.224C43.6956 138.823 61.2702 145.761 79.9791 145.761V144.585C61.6031 144.585 44.3337 137.771 31.3577 125.393C18.3848 113.02 11.2372 96.5555 11.2341 79.0327Z" fill="#E6452D"/>
<path d="M150 79.1294C150 79.103 150 79.0736 150 79.0471C150.055 66.0895 145.725 52.7939 137.8 41.5971C129.787 30.2739 118.398 21.5523 105.73 17.04L105.299 18.1424C117.729 22.5694 128.908 31.1323 136.777 42.2556C144.56 53.2525 148.813 66.3041 148.764 79.0207C148.218 92.6779 145.016 103.728 138.975 112.793L140.016 113.422C146.169 104.192 149.433 92.9718 149.994 79.1324H150V79.1294Z" fill="#E6452D"/>
<path d="M91.2492 142.152C90.8886 141.531 90.3923 141.067 89.7667 140.758C89.4153 140.576 88.993 140.455 88.4999 140.397C88.0098 140.338 87.2393 140.338 86.1944 140.397L85.7506 140.42L84.3389 140.5C84.003 140.517 83.7657 140.597 83.6208 140.729C83.479 140.864 83.4143 141.07 83.4328 141.346C83.4482 141.605 83.5314 141.796 83.6794 141.922C83.8273 142.049 84.0369 142.105 84.3081 142.09L84.4345 142.084L84.7612 147.428L84.6317 147.434C84.3605 147.449 84.1602 147.525 84.0276 147.666C83.8951 147.804 83.8365 148.001 83.852 148.254C83.8704 148.542 83.9537 148.742 84.1078 148.854C84.2619 148.968 84.5085 149.015 84.8567 148.995L86.2684 148.915L87.1037 148.868C87.9143 148.824 88.5245 148.754 88.9283 148.663C89.3352 148.572 89.6865 148.439 89.9824 148.269C90.6358 147.893 91.129 147.363 91.4557 146.681C91.7824 145.999 91.9211 145.218 91.8656 144.333C91.8132 143.498 91.6067 142.769 91.2461 142.149L91.2492 142.152ZM89.1841 146.514C88.7619 146.981 88.0745 147.24 87.1283 147.293L86.6999 147.316L86.3701 141.943C86.4194 141.934 86.4749 141.928 86.5396 141.922C86.6013 141.916 86.6937 141.911 86.8139 141.905C87.7355 141.855 88.4382 142.037 88.9252 142.454C89.4122 142.872 89.6804 143.533 89.7358 144.436C89.7913 145.353 89.6095 146.044 89.1841 146.511V146.514Z" fill="#E6452D"/>
<path d="M101.275 144.464C101.204 144.147 101.093 143.932 100.945 143.823C100.794 143.714 100.582 143.688 100.301 143.744C100.018 143.8 99.8266 143.911 99.731 144.07C99.6355 144.232 99.6232 144.47 99.691 144.782L99.8759 145.616L96.4516 146.304L95.9862 144.205L97.2807 143.944L97.3085 144.07C97.3639 144.317 97.4687 144.493 97.6228 144.593C97.7769 144.693 97.9804 144.72 98.2331 144.67C98.4982 144.617 98.6739 144.511 98.7632 144.349C98.8495 144.191 98.8588 143.953 98.791 143.641L98.4704 142.186C98.4581 142.136 98.4458 142.083 98.4304 142.033C98.415 141.983 98.4057 141.954 98.4026 141.942C98.3626 141.76 98.2578 141.621 98.0913 141.53C97.9249 141.439 97.7307 141.416 97.5119 141.46C97.2622 141.51 97.0896 141.613 96.9972 141.768C96.9047 141.924 96.8862 142.136 96.9448 142.403L96.9633 142.489L95.6687 142.75L95.2711 140.954L98.6954 140.263L98.8588 141.001C98.9297 141.316 99.0406 141.53 99.1978 141.645C99.355 141.76 99.5739 141.789 99.8605 141.733C100.135 141.677 100.32 141.569 100.412 141.407C100.505 141.245 100.514 141.004 100.446 140.687L100.098 139.114C100.039 138.855 99.9499 138.697 99.8235 138.629C99.6971 138.561 99.4876 138.561 99.1886 138.62L93.1598 139.834C92.8424 139.899 92.6235 140.008 92.5095 140.161C92.3955 140.313 92.3677 140.525 92.4263 140.798C92.4818 141.045 92.5896 141.225 92.7561 141.33C92.9225 141.436 93.129 141.466 93.3787 141.413L93.5051 141.386L94.6639 146.625L94.5376 146.651C94.2818 146.701 94.103 146.807 93.9982 146.96C93.8934 147.116 93.8687 147.315 93.9242 147.565C93.9859 147.842 94.0999 148.027 94.2664 148.121C94.4328 148.215 94.6794 148.23 95.003 148.162L101.032 146.948C101.337 146.886 101.531 146.804 101.614 146.698C101.697 146.592 101.713 146.413 101.657 146.16L101.281 144.461L101.275 144.464Z" fill="#E6452D"/>
<path d="M115.575 132.321C114.792 132.238 113.873 132.494 112.813 133.088L110.135 134.59C109.854 134.749 109.685 134.916 109.626 135.096C109.568 135.275 109.614 135.484 109.762 135.725C109.897 135.942 110.061 136.077 110.252 136.127C110.443 136.177 110.649 136.142 110.868 136.019L110.979 135.957L113.824 140.572L113.713 140.634C113.488 140.76 113.353 140.913 113.306 141.092C113.26 141.272 113.306 141.469 113.439 141.689C113.59 141.933 113.759 142.074 113.947 142.112C114.135 142.151 114.373 142.089 114.659 141.93L116.903 140.672C117.181 140.516 117.347 140.352 117.399 140.175C117.455 139.999 117.406 139.79 117.258 139.549C117.11 139.311 116.946 139.173 116.761 139.135C116.58 139.099 116.348 139.158 116.068 139.317L115.399 139.693L114.616 138.426L115.72 137.809C116.783 137.212 117.458 136.56 117.748 135.848C118.037 135.137 117.936 134.384 117.446 133.588C116.98 132.832 116.358 132.415 115.575 132.332V132.321ZM115.68 135.619C115.522 135.928 115.19 136.224 114.681 136.513L113.759 137.03L112.554 135.075L113.476 134.558C113.969 134.281 114.4 134.152 114.767 134.17C115.137 134.187 115.418 134.352 115.609 134.661C115.812 134.99 115.837 135.31 115.68 135.619Z" fill="#E6452D"/>
<path d="M126.828 132.038C126.633 132.035 126.402 132.138 126.143 132.346L125.172 133.119L121.573 129.013L122.543 128.24C122.808 128.028 122.956 127.831 122.984 127.646C123.012 127.461 122.932 127.264 122.747 127.049C122.559 126.832 122.368 126.723 122.18 126.717C121.992 126.711 121.761 126.817 121.486 127.035L118.056 129.768C117.791 129.98 117.643 130.177 117.612 130.356C117.581 130.538 117.661 130.735 117.849 130.953C118.037 131.165 118.228 131.276 118.426 131.279C118.623 131.285 118.851 131.182 119.113 130.974L120.084 130.2L123.684 134.307L122.713 135.08C122.448 135.292 122.3 135.489 122.269 135.668C122.238 135.85 122.315 136.047 122.503 136.259C122.694 136.476 122.886 136.585 123.083 136.591C123.28 136.597 123.508 136.494 123.77 136.285L127.201 133.552C127.459 133.346 127.601 133.149 127.632 132.961C127.663 132.773 127.583 132.57 127.398 132.358C127.216 132.149 127.025 132.044 126.831 132.041L126.828 132.038Z" fill="#E6452D"/>
<path d="M133.34 125.339C133.174 125.086 132.835 124.748 132.333 124.325L132.225 124.234L129.099 121.615L129.515 121.162C129.74 120.918 129.854 120.701 129.851 120.512C129.851 120.324 129.74 120.139 129.525 119.957C129.303 119.772 129.096 119.689 128.908 119.713C128.72 119.736 128.511 119.875 128.276 120.124L125.743 122.873C125.512 123.126 125.395 123.34 125.395 123.523C125.395 123.705 125.505 123.887 125.727 124.075C125.946 124.257 126.153 124.337 126.347 124.313C126.541 124.29 126.754 124.155 126.979 123.911L127.814 123.005L130.606 125.345C131.211 125.851 131.547 126.283 131.621 126.641C131.695 127 131.543 127.382 131.164 127.794C130.859 128.123 130.557 128.299 130.258 128.314C129.959 128.332 129.571 128.176 129.093 127.855C129.041 127.826 128.97 127.776 128.88 127.706C128.357 127.323 127.95 127.294 127.654 127.614C127.447 127.838 127.367 128.047 127.413 128.244C127.46 128.44 127.645 128.676 127.968 128.946L129.133 129.922C129.404 130.148 129.623 130.289 129.787 130.342C129.953 130.395 130.144 130.375 130.366 130.278C130.767 130.104 131.146 129.89 131.497 129.637C131.852 129.384 132.181 129.09 132.49 128.755C132.927 128.282 133.242 127.826 133.436 127.391C133.63 126.956 133.701 126.547 133.646 126.162C133.605 125.865 133.501 125.592 133.331 125.339H133.34Z" fill="#E6452D"/>
<path d="M138.532 119.537C138.289 119.385 138.079 119.329 137.897 119.373C137.715 119.417 137.537 119.567 137.355 119.826L136.926 120.44L135.641 119.626L136.347 118.609C137.028 117.627 137.336 116.757 137.268 115.998C137.201 115.24 136.763 114.602 135.959 114.093C135.194 113.608 134.442 113.494 133.699 113.747C132.96 113.999 132.248 114.614 131.569 115.59L129.853 118.059C129.674 118.318 129.597 118.541 129.628 118.726C129.659 118.911 129.794 119.082 130.038 119.235C130.26 119.376 130.466 119.429 130.663 119.393C130.858 119.358 131.027 119.241 131.169 119.038L131.24 118.935L135.918 121.892L135.848 121.995C135.703 122.204 135.65 122.398 135.69 122.577C135.73 122.756 135.86 122.918 136.082 123.056C136.328 123.212 136.544 123.268 136.732 123.224C136.92 123.18 137.105 123.024 137.287 122.762L138.726 120.693C138.905 120.437 138.976 120.219 138.945 120.04C138.914 119.861 138.776 119.69 138.529 119.535L138.532 119.537ZM134.821 117.888L134.229 118.738L132.248 117.486L132.839 116.636C133.157 116.18 133.484 115.887 133.823 115.748C134.162 115.61 134.488 115.64 134.803 115.84C135.136 116.051 135.305 116.327 135.308 116.671C135.308 117.015 135.148 117.421 134.821 117.891V117.888Z" fill="#E6452D"/>
<path d="M17.3929 46.9714C17.9692 47.2918 18.5179 47.3888 19.0388 47.2624C19.5596 47.136 20.1761 46.7333 20.885 46.0543C21.0329 45.9161 21.2302 45.7221 21.4737 45.4752C22.2935 44.6521 22.9377 44.3699 23.4 44.6257C23.699 44.7903 23.8685 45.0254 23.9024 45.3282C23.9394 45.631 23.8408 45.972 23.6096 46.3512C23.3538 46.7686 23.0579 47.0743 22.7158 47.2713C22.3768 47.4682 21.9884 47.5535 21.5569 47.5299C21.4891 47.527 21.3935 47.5182 21.2672 47.5035C20.7494 47.4594 20.4072 47.5711 20.2439 47.8415C20.0898 48.0943 20.0374 48.303 20.0898 48.4647C20.1422 48.6293 20.3086 48.791 20.5953 48.9498L20.6661 48.988L22.2103 49.811C22.4785 49.9551 22.6942 50.0021 22.8607 49.9551C23.0271 49.911 23.1905 49.7552 23.3507 49.4965C23.4432 49.3437 23.4925 49.2084 23.4956 49.0967C23.4987 48.9821 23.4648 48.8616 23.3908 48.7322C23.6682 48.5147 23.924 48.2737 24.1552 48.0062C24.3863 47.7387 24.6175 47.4182 24.8487 47.042C25.4374 46.0778 25.6716 45.2194 25.5545 44.464C25.4374 43.7085 24.9812 43.1088 24.1829 42.665C23.5357 42.3063 22.9192 42.2005 22.3305 42.3504C21.7418 42.5004 21.1131 42.9207 20.4473 43.6115C20.361 43.7026 20.247 43.8261 20.099 43.9819C19.2268 44.9049 18.5949 45.2547 18.1942 45.0343C17.9138 44.8785 17.7504 44.6345 17.7103 44.3052C17.6703 43.976 17.7627 43.6262 17.9908 43.2529C18.1727 42.956 18.3977 42.7355 18.6689 42.5915C18.9401 42.4474 19.2483 42.3857 19.5936 42.4092C19.6305 42.4151 19.6799 42.418 19.7415 42.4239C20.1576 42.4621 20.4566 42.3357 20.6353 42.0418C20.7771 41.8096 20.8264 41.6185 20.7833 41.4627C20.7401 41.3098 20.5922 41.1599 20.3364 41.0188L20.2655 40.9777L19.0018 40.3104C18.7182 40.1634 18.5117 40.1017 18.3761 40.1164C18.2405 40.134 18.1018 40.2604 17.9538 40.5015C17.8552 40.6631 17.809 40.7954 17.8121 40.9042C17.8151 41.0129 17.8675 41.1335 17.9692 41.2746C17.6826 41.4774 17.4268 41.6949 17.2018 41.933C16.9768 42.1711 16.7764 42.4298 16.6069 42.712C16.0922 43.5557 15.9073 44.3729 16.0552 45.1665C16.2001 45.9602 16.6439 46.5599 17.3867 46.9714H17.3929Z" fill="#E6452D"/>
<path d="M20.8044 38.3211L22.5181 39.7145L22.5643 39.7498C22.8078 39.935 23.0266 40.0173 23.2208 40.0026C23.415 39.9879 23.5999 39.8762 23.7756 39.6645C23.9205 39.4881 23.9821 39.3088 23.9605 39.1295C23.9359 38.9502 23.8311 38.7885 23.64 38.6474L23.492 38.5357L22.3239 37.598L23.3009 36.4222L27.7023 39.7439L26.9194 40.6904C26.7098 40.9403 26.6112 41.1578 26.6235 41.3401C26.6359 41.5223 26.7561 41.7016 26.9903 41.878C27.2215 42.0544 27.4341 42.1249 27.6283 42.0926C27.8194 42.0603 28.0198 41.9221 28.2263 41.6752L31.0002 38.3329C31.2098 38.083 31.3054 37.8626 31.2961 37.6774C31.2838 37.4922 31.1605 37.3099 30.9293 37.1365C30.7013 36.9631 30.4917 36.8925 30.2975 36.9249C30.1064 36.9572 29.9061 37.0983 29.6965 37.3481L28.9105 38.2947L24.5092 34.973L25.4862 33.7972L26.7129 34.6673C27.0026 34.873 27.2369 34.973 27.4187 34.9671C27.6006 34.9612 27.7732 34.8554 27.9427 34.6526C28.1184 34.4439 28.1893 34.2498 28.1554 34.0735C28.1246 33.8971 27.9828 33.7149 27.7362 33.5267L27.69 33.4914L25.8807 32.2157C25.5201 31.9658 25.2674 31.8541 25.1318 31.8835C24.9931 31.91 24.8235 32.0481 24.617 32.295L20.601 37.1336C20.3944 37.3805 20.2958 37.5716 20.2989 37.7068C20.302 37.842 20.4746 38.0448 20.8167 38.3211H20.8044Z" fill="#E6452D"/>
<path d="M28.2409 30.6109C28.4382 30.605 28.6601 30.4904 28.9067 30.267L29.3444 29.8731L31.7392 35.082L31.6467 35.1643C31.4495 35.3407 31.3478 35.5258 31.3416 35.711C31.3354 35.8992 31.4217 36.0844 31.6036 36.2696C31.807 36.4753 32.0074 36.5753 32.2015 36.5694C32.3957 36.5635 32.6207 36.4489 32.8704 36.2225L34.2789 34.9497C34.5255 34.7263 34.658 34.5205 34.6765 34.3324C34.695 34.1443 34.6026 33.9502 34.3991 33.7445C34.2019 33.5475 34.0077 33.4505 33.8104 33.4593C33.6163 33.4682 33.3943 33.5828 33.1447 33.8062L32.9536 33.9796L32.5837 33.1566L34.9447 31.0254L35.7738 31.434L35.5827 31.6074C35.3299 31.8338 35.1943 32.0395 35.1758 32.2218C35.1573 32.404 35.2467 32.5951 35.4471 32.7979C35.6536 33.0066 35.8539 33.1066 36.0481 33.1007C36.2423 33.0948 36.4642 32.9772 36.7169 32.7509L38.3628 31.2664C38.6094 31.043 38.7419 30.8372 38.7604 30.6491C38.7789 30.461 38.6864 30.267 38.483 30.0612C38.3012 29.876 38.1101 29.7849 37.9128 29.779C37.7156 29.7761 37.5183 29.8613 37.3241 30.0406L37.2316 30.1259L31.0087 27.1657L30.9933 27.151C30.531 26.9364 30.1365 26.9747 29.8128 27.2686L27.7632 29.1176C27.5166 29.341 27.3841 29.5468 27.3656 29.7349C27.3471 29.923 27.4396 30.1171 27.643 30.3228C27.8433 30.5257 28.0406 30.6227 28.2378 30.6138L28.2409 30.6109ZM33.4837 30.3022L31.8995 31.7338L30.5094 28.8207L33.4837 30.3052V30.3022Z" fill="#E6452D"/>
<path d="M34.9816 24.7127C35.1789 24.7451 35.3854 24.6863 35.6073 24.5364L35.7121 24.4658L38.9515 28.8369L38.8467 28.9075C38.6247 29.0574 38.4984 29.225 38.4614 29.4072C38.4275 29.5924 38.486 29.7864 38.6402 29.9951C38.8128 30.2303 38.9977 30.3567 39.1888 30.3773C39.383 30.3979 39.6203 30.3126 39.9008 30.1215L41.0566 29.3426L41.7377 28.884C42.4004 28.4372 42.8812 28.0727 43.174 27.7875C43.4668 27.5053 43.6918 27.2173 43.8521 26.9233C44.2004 26.2737 44.3237 25.577 44.2251 24.8333C44.1264 24.0896 43.809 23.3547 43.2727 22.6345C42.7672 21.9496 42.1877 21.4381 41.5374 21.0941C40.8871 20.7502 40.209 20.6062 39.5062 20.6591C39.1056 20.6826 38.6802 20.7943 38.2302 20.9913C37.7802 21.1882 37.1268 21.5762 36.273 22.1524L35.9093 22.3964L34.7535 23.1754C34.4792 23.3605 34.3189 23.5457 34.2727 23.7309C34.2265 23.9161 34.2881 24.1248 34.4546 24.3512C34.6117 24.5628 34.7874 24.6834 34.9816 24.7157V24.7127ZM37.4104 23.2724C37.4597 23.2371 37.5336 23.1842 37.6323 23.1195C38.3874 22.611 39.084 22.414 39.7282 22.5228C40.3723 22.6345 40.9672 23.0578 41.5158 23.7956C42.0706 24.5452 42.2987 25.2272 42.197 25.8357C42.0953 26.4471 41.6576 27.0115 40.884 27.5318L40.5326 27.7669L37.2778 23.3723C37.3148 23.34 37.361 23.3076 37.4104 23.2694V23.2724Z" fill="#E6452D"/>
<path d="M45.2992 21.3185C45.8077 21.4801 46.5567 21.4596 47.5368 21.2538C47.7403 21.2126 48.0146 21.1539 48.3598 21.0715C49.5187 20.804 50.2183 20.8981 50.4618 21.3537C50.619 21.6477 50.6283 21.9299 50.4865 22.2033C50.3447 22.4767 50.0704 22.7118 49.6574 22.9117C49.2074 23.1322 48.782 23.2351 48.3844 23.2262C47.9868 23.2145 47.6139 23.0881 47.2625 22.847C47.207 22.8088 47.1331 22.753 47.0344 22.6765C46.6245 22.3708 46.2731 22.2915 45.9834 22.4326C45.7122 22.5648 45.5488 22.7148 45.4995 22.8764C45.4502 23.041 45.4995 23.2645 45.6505 23.5437L45.6875 23.6143L46.5197 25.1017C46.6646 25.3604 46.8187 25.5132 46.9851 25.5603C47.1516 25.6073 47.3766 25.5632 47.657 25.425C47.8235 25.3457 47.9375 25.2575 48.0053 25.1634C48.0731 25.0693 48.1132 24.9488 48.1255 24.8018C48.4831 24.7636 48.8344 24.6901 49.1796 24.5873C49.5248 24.4844 49.9039 24.3315 50.3108 24.1346C51.3526 23.626 52.0368 23.0264 52.3697 22.3297C52.6995 21.633 52.6563 20.8952 52.2372 20.1103C51.8981 19.4754 51.4358 19.0697 50.8563 18.8904C50.2769 18.7111 49.5094 18.7405 48.557 18.9786C48.4337 19.0109 48.2673 19.055 48.0546 19.1109C46.8002 19.4371 46.0666 19.4048 45.857 19.0138C45.7091 18.7375 45.7122 18.4495 45.8632 18.1526C46.0173 17.8557 46.2947 17.6087 46.6954 17.4118C47.0159 17.256 47.3334 17.1854 47.6416 17.206C47.9498 17.2237 48.2457 17.3324 48.5262 17.5294C48.557 17.5529 48.594 17.5823 48.6403 17.6176C48.97 17.8645 49.2937 17.9115 49.6111 17.7557C49.8608 17.6352 50.0118 17.497 50.0642 17.3471C50.1166 17.1972 50.0735 16.9944 49.9409 16.7445L49.9039 16.674L49.2197 15.4599C49.0656 15.1924 48.9269 15.0307 48.8036 14.9749C48.6803 14.919 48.4892 14.9543 48.2303 15.0807C48.0577 15.166 47.9406 15.2542 47.882 15.3453C47.8235 15.4393 47.7988 15.5687 47.805 15.7362C47.4505 15.7598 47.1115 15.8097 46.7879 15.895C46.4642 15.9773 46.1498 16.0919 45.8447 16.2418C44.9324 16.6857 44.316 17.2795 43.9892 18.0203C43.6625 18.761 43.6934 19.4959 44.0848 20.2249C44.3868 20.7923 44.7937 21.1568 45.3053 21.3185H45.2992Z" fill="#E6452D"/>
<path d="M51.7241 15.2835C51.906 15.3658 52.1248 15.3658 52.3806 15.2835L52.4947 15.2453L54.1067 20.3778L53.9926 20.416C53.7368 20.4983 53.5642 20.6247 53.4779 20.7922C53.3916 20.9598 53.3916 21.1626 53.4779 21.4037C53.5734 21.6712 53.7121 21.8417 53.8909 21.9122C54.0697 21.9857 54.3193 21.9681 54.6368 21.8652L56.2457 21.339C56.5632 21.2361 56.7697 21.1009 56.8652 20.9392C56.9608 20.7775 56.9608 20.563 56.8652 20.2955C56.7789 20.0544 56.6495 19.8957 56.4738 19.8134C56.2981 19.7311 56.0823 19.7311 55.8265 19.8134L55.7125 19.8516L54.3255 15.6774L56.4645 18.423C56.6248 18.6287 56.7943 18.7581 56.9731 18.8139C57.1549 18.8698 57.3676 18.8551 57.6142 18.7757C57.8608 18.6963 58.0364 18.5817 58.1412 18.4347C58.2429 18.2877 58.2923 18.0849 58.2861 17.8292L58.2183 14.4075L59.8025 18.517L59.6885 18.5552C59.4327 18.6375 59.2601 18.7639 59.1738 18.9315C59.0875 19.0991 59.0875 19.3019 59.1738 19.5429C59.2724 19.8134 59.408 19.9868 59.5837 20.0574C59.7594 20.1279 60.009 20.1103 60.3327 20.0074L61.9354 19.4841C62.2097 19.396 62.3946 19.2842 62.5025 19.1549C62.6659 19.2196 62.8909 19.2284 63.1837 19.1755L65.0916 18.8316C65.4275 18.7698 65.6556 18.6669 65.7758 18.517C65.896 18.37 65.9299 18.1555 65.8744 17.8791C65.822 17.6116 65.7111 17.4294 65.5415 17.3353C65.372 17.2413 65.1193 17.2236 64.7864 17.2853L64.5275 17.3324L64.6816 16.4505L67.8748 15.8773L68.3402 16.6475L68.0813 16.6945C67.7422 16.7562 67.5111 16.8591 67.3909 17.0002C67.2707 17.1442 67.2367 17.353 67.2922 17.6234C67.3477 17.9056 67.4587 18.0937 67.6251 18.1878C67.7915 18.2819 68.0443 18.2995 68.3864 18.2378L70.6117 17.838C70.9477 17.7763 71.1758 17.6734 71.296 17.5264C71.4162 17.3794 71.4501 17.1648 71.3946 16.8885C71.3453 16.6386 71.2405 16.4623 71.0741 16.3594C70.9107 16.2536 70.695 16.2271 70.4299 16.2741L70.3035 16.2977L66.7498 10.5978V10.5773C66.4785 10.1569 66.1272 9.98642 65.6864 10.0658L62.9124 10.5655C62.5765 10.6272 62.3484 10.7301 62.2282 10.88C62.108 11.027 62.0741 11.2416 62.1296 11.5179C62.182 11.7913 62.296 11.9736 62.4655 12.0706C62.6351 12.1676 62.8878 12.1852 63.2237 12.1235L63.8155 12.0177L62.8755 17.6352L62.7491 17.6587C62.484 17.7057 62.2929 17.8086 62.182 17.9614C62.182 17.9614 62.182 17.9673 62.1758 17.9703C62.1727 17.9703 62.1666 17.9644 62.1635 17.9614C61.9909 17.8791 61.7751 17.8791 61.5193 17.9614L61.3991 17.9997L59.3834 12.9995L59.4974 12.9613C59.7532 12.8789 59.9258 12.7496 60.0152 12.5791C60.1046 12.4086 60.1046 12.1999 60.0183 11.9559C59.9227 11.6884 59.784 11.5209 59.6022 11.4474C59.4203 11.3739 59.1676 11.3915 58.844 11.4973L57.7344 11.8589C57.4816 11.9412 57.3029 12.0647 57.1919 12.2293C57.081 12.3939 57.0286 12.6173 57.0347 12.8995L57.0563 17.1942L54.2793 13.799C54.0913 13.5727 53.9032 13.4257 53.7121 13.361C53.5211 13.2964 53.3022 13.3052 53.0556 13.3845L51.9461 13.7461C51.6224 13.8519 51.4128 13.9842 51.3142 14.1488C51.2156 14.3134 51.2156 14.528 51.3142 14.7955C51.4005 15.0395 51.5361 15.2041 51.718 15.2864L51.7241 15.2835ZM65.3998 11.7266L67.0611 14.5104L64.9159 14.8955L65.3998 11.7266Z" fill="#E6452D"/>
<path d="M72.2335 10.7452L72.3599 10.7393L72.5972 16.0893L72.4709 16.0952C72.2058 16.107 72.0055 16.1805 71.8729 16.3157C71.7404 16.4538 71.6818 16.6479 71.6911 16.9007C71.7034 17.1829 71.7866 17.3827 71.9346 17.5003C72.0856 17.6179 72.3291 17.6708 72.665 17.6591L74.6037 17.5826C74.9428 17.5679 75.1832 17.4974 75.3219 17.368C75.4606 17.2387 75.5222 17.0329 75.5099 16.7507C75.4976 16.4979 75.4205 16.3069 75.2787 16.1805C75.1339 16.0541 74.9274 15.9982 74.6561 16.007L74.5359 16.0129L74.4527 14.1198L75.1585 14.0904C75.2572 14.0875 75.3558 14.111 75.4483 14.161C75.5407 14.211 75.6239 14.2903 75.701 14.3903L77.6613 17.0182L77.6828 17.0329C77.8863 17.3063 78.1575 17.4386 78.4996 17.4239L79.4243 17.3857C79.7633 17.371 80.0068 17.3004 80.1486 17.1711C80.2904 17.0418 80.3551 16.836 80.3428 16.5538C80.3304 16.2951 80.2472 16.104 80.0962 15.9806C79.9452 15.8571 79.7202 15.8013 79.4304 15.813L79.2794 15.8189H79.1962L77.8893 14.0228C77.8739 14.0052 77.8554 13.9817 77.8339 13.9523C77.6982 13.7553 77.5657 13.623 77.4332 13.5525C77.9911 13.3438 78.4133 13.0381 78.7 12.6324C78.9866 12.2297 79.116 11.7594 79.0945 11.2244C79.0606 10.4542 78.7616 9.88392 78.1976 9.5106C77.6335 9.13727 76.8229 8.97266 75.7596 9.01675L72.2952 9.15491C71.9654 9.16961 71.7281 9.24016 71.5863 9.37244C71.4445 9.50472 71.3798 9.71049 71.3921 9.98681C71.4044 10.2396 71.4815 10.4307 71.6294 10.563C71.7774 10.6923 71.9777 10.754 72.2397 10.7423L72.2335 10.7452ZM75.4698 10.5747C75.9753 10.5541 76.3452 10.6188 76.5825 10.7717C76.8167 10.9216 76.9431 11.1773 76.9585 11.536C76.9739 11.9005 76.8599 12.165 76.6164 12.3296C76.3729 12.4943 75.9383 12.5913 75.3126 12.6148L74.2986 12.6559L74.2092 10.6276L75.4729 10.5777L75.4698 10.5747Z" fill="#E6452D"/>
<path d="M81.4643 17.4859L83.3937 17.6769C83.7328 17.7093 83.9824 17.674 84.1427 17.5623C84.303 17.4535 84.3985 17.2595 84.4293 16.9773C84.4571 16.7245 84.4078 16.5276 84.2783 16.3806C84.1519 16.2366 83.9516 16.1513 83.6835 16.1219L83.5633 16.1102L83.7081 14.7756L84.4817 14.2024C84.8177 14.5375 85.1043 14.902 85.3386 15.29C85.5728 15.678 85.8194 16.2219 86.0752 16.9215C86.0937 16.9803 86.1215 17.0596 86.1554 17.1596C86.3495 17.7034 86.6485 17.9944 87.0523 18.0356L87.9739 18.1267C88.3129 18.159 88.5625 18.1238 88.7228 18.0121C88.8831 17.9033 88.9786 17.7093 89.0095 17.4271C89.0372 17.1713 88.9848 16.9714 88.8554 16.8274C88.7259 16.6834 88.5101 16.5981 88.2173 16.5687L88.0663 16.554L87.9677 16.5452C87.6225 15.5399 87.3081 14.7874 87.0245 14.2906C86.741 13.7938 86.4112 13.3822 86.0382 13.056L88.4393 11.2099L88.6119 11.2275C88.8862 11.254 89.1019 11.2099 89.2591 11.0923C89.4163 10.9747 89.5088 10.7866 89.5365 10.525C89.5673 10.2457 89.518 10.0341 89.3886 9.89886C89.2591 9.7607 89.0249 9.67546 88.6858 9.64018L86.8519 9.45793C86.5129 9.42265 86.2663 9.46087 86.1091 9.57257C85.9519 9.68134 85.8595 9.87829 85.8287 10.1575C85.8009 10.4015 85.8348 10.5838 85.9273 10.7043C86.0197 10.8278 86.1954 10.916 86.4513 10.9689L83.8992 12.9442L84.1335 10.7807L84.2537 10.7925C84.5218 10.8189 84.7345 10.7719 84.8917 10.6543C85.0489 10.5338 85.1413 10.3457 85.1691 10.0899C85.1999 9.81068 85.1475 9.59903 85.0119 9.46087C84.8763 9.32271 84.642 9.23746 84.3061 9.20219L82.3766 9.01112C82.0376 8.97878 81.791 9.01699 81.6338 9.12576C81.4766 9.23452 81.3842 9.43147 81.3533 9.71073C81.3256 9.96647 81.3718 10.1693 81.4951 10.3163C81.6184 10.4633 81.8095 10.5485 82.0746 10.575L82.2009 10.5867L81.6215 15.9103L81.4951 15.8985C81.227 15.8721 81.0143 15.9161 80.8602 16.0337C80.7061 16.1513 80.6167 16.3365 80.5889 16.5864C80.5581 16.8715 80.6074 17.0831 80.74 17.2184C80.8725 17.3536 81.1098 17.4388 81.455 17.4741L81.4643 17.4859Z" fill="#E6452D"/>
<path d="M91.1972 18.7562L95.5276 19.8056C95.8543 19.885 96.104 19.882 96.2766 19.7938C96.4492 19.7086 96.5725 19.5263 96.6465 19.253C96.7173 18.9825 96.6989 18.7709 96.591 18.618C96.4831 18.4622 96.2643 18.3476 95.9376 18.2682L94.7139 17.9713L96.0947 12.783L97.6173 13.1534L97.2845 14.5761C97.2043 14.9112 97.2074 15.1582 97.2845 15.314C97.3646 15.4698 97.5372 15.5785 97.7992 15.6432C98.0704 15.7079 98.2862 15.6932 98.4403 15.5903C98.5975 15.4903 98.7146 15.2934 98.7916 15.0024L98.8071 14.9465L99.2879 12.8506C99.3773 12.4332 99.3834 12.1686 99.3002 12.0628C99.217 11.954 99.0166 11.86 98.6961 11.7835L92.4239 10.2638C92.1033 10.1844 91.8783 10.1756 91.7519 10.2344C91.6256 10.2932 91.4992 10.5254 91.3759 10.934L90.741 12.9946L90.7256 13.0505C90.6485 13.3386 90.6578 13.5649 90.7502 13.7266C90.8427 13.8912 91.0276 14.0058 91.2989 14.0705C91.5269 14.1264 91.7242 14.1058 91.8845 14.0117C92.0478 13.9177 92.1557 13.7589 92.2174 13.5355L92.2636 13.3621L92.6828 11.9599L94.2084 12.3303L92.8276 17.5186L91.604 17.2217C91.2773 17.1424 91.0307 17.1453 90.8612 17.2305C90.6917 17.3158 90.5684 17.4951 90.4975 17.7685C90.4235 18.0419 90.442 18.2565 90.553 18.4123C90.6609 18.568 90.8766 18.6827 91.1972 18.7621V18.7562Z" fill="#E6452D"/>
<path d="M112.877 68.6528L112.39 68.8437L112.153 68.415L111.561 68.7527L111.734 69.105L111.336 69.2635L111.592 69.9505L112.051 69.745L112.27 70.1883L112.982 69.9153L112.72 69.4456L113.204 69.2312L112.877 68.6528Z" fill="#E6452D"/>
<path d="M83.5454 65.0183C81.8687 64.7625 79.6464 64.8772 78.6756 64.9477C78.6232 64.9507 78.5738 64.9566 78.5214 64.9595C78.4382 64.9654 78.3704 64.9713 78.318 64.9771C78.3026 64.9771 78.2872 64.9771 78.2718 64.9801C78.2194 64.986 78.1886 64.9889 78.1886 64.9889C76.2129 65.1741 73.6732 65.7091 72.1999 67.17C70.1718 69.1836 69.3026 71.7734 68.9451 73.2138L68.1992 69.3894C68.5013 69.4835 68.9513 69.5041 69.1824 68.9514C69.5523 68.0696 69.2348 66.8849 68.3379 66.0266C67.4379 65.1682 66.2482 64.9183 66.2482 64.9183L66.0509 64.933L62.8825 50.0912C62.8825 50.0912 61.591 44.4384 59.1253 42.7011C56.6595 40.9668 53.901 42.5336 53.3739 44.606C52.8469 46.6784 52.8469 50.5968 53.901 54.6828C54.7794 58.0868 56.151 63.8601 56.5856 65.6973H56.5732C56.5732 65.6973 54.6654 66.6497 54.7609 68.0931C54.8534 69.46 55.4575 70.1037 56.5948 69.6569L57.6397 74.954L53.001 65.9207L47.45 62.3697L46.3003 60.5619L45.4928 60.85L45.2185 60.947L45.2247 60.9588L38.7891 63.5926L40.0743 65.4004L39.1281 74.1162L44.5497 84.8956H44.2661L49.7894 97.5651L45.6469 99.4053L46.6086 101.166L50.6031 99.4259L56.8106 113.662H99.3077L105.638 99.0173L110.662 101.166L111.639 99.4053L106.446 97.1418L111.741 84.8956H110.937C112.718 83.173 117.65 77.1969 116.713 64.6685C117.175 65.1212 117.702 65.6121 118.02 65.812V64.9771C118.02 64.9771 119.169 66.9613 119.579 67.4082L119.607 66.4675C119.607 66.4675 120.729 68.5311 121.25 69.0543C121.25 69.0543 121.166 67.9049 121.333 67.3817C121.333 67.3817 122.677 70.2037 124.101 71.1179C124.101 71.1179 123.857 70.3859 123.965 69.6951C123.965 69.6951 125.5 71.403 126.459 71.7705C126.459 71.7705 127.278 69.3159 126.869 67.2112C126.869 67.2112 126.773 66.4675 126.157 65.8649C126.157 65.8649 127.087 65.6621 127.91 66.1941C127.91 66.1941 127.306 64.5068 125.854 63.9307C125.854 63.9307 126.758 63.6955 127.581 63.8777C127.581 63.8777 126.264 62.5197 125.58 62.3639C125.58 62.3639 126.157 62.0229 127.004 62.2198C127.004 62.2198 126.499 61.5232 125.121 61.0293C125.146 60.9352 125.306 60.2885 125.204 59.9564C125.204 59.9564 126.548 60.753 126.915 61.2909C126.915 61.2909 126.699 60.215 126.677 60.0916C126.677 60.0916 128.431 61.435 128.93 62.2198C128.93 62.2198 128.693 60.7618 128.286 59.68H128.986C129.063 59.7741 129.122 59.8682 129.149 59.9564C129.149 59.9564 129.134 59.8505 129.091 59.68H129.149C129.072 57.7987 127.217 56.8581 127.217 56.8581L129.149 56.8933C128.693 55.9527 125.737 54.671 125.737 54.671C126.533 54.6916 127.898 55.1208 127.898 55.1208C127.596 53.8921 124.979 53.3482 124.979 53.3482L126.231 52.9867C124.979 52.046 122.59 52.4428 122.59 52.4428L123.161 51.6139C121.379 51.4375 119.105 52.3694 119.105 52.3694L119.604 51.7315C120.538 51.5933 121.074 51.1759 121.074 51.1759C120.165 51.0671 119.823 50.5263 119.823 50.5263C121.49 50.7085 122.59 49.9824 122.59 49.9824C121.718 50.0177 120.997 49.5474 120.997 49.5474L122.59 49.1858C122.134 47.7395 119.518 47.7307 119.518 47.7307L120.39 47.0164C119.061 46.7636 117.052 47.2692 117.052 47.2692L117.468 46.6196C115.76 46.8371 115.002 47.913 115.002 47.913L115.116 46.9811C114.45 47.2192 113.359 48.107 112.823 48.5656L112.533 48.4068C113.224 48.0776 114.648 46.5755 114.648 46.5755L113.304 47.0164C114.343 46.1728 114.648 45.0734 114.648 45.0734L113.572 45.5143C114.185 44.8558 114.648 43.2802 114.648 43.2802C112.919 43.5007 111.735 44.4884 111.735 44.4884L112.419 43.2802C110.422 43.7564 109.651 45.2968 109.651 45.2968C109.42 45.0763 109.651 44.1974 109.651 44.1974C108.767 44.5648 107.731 46.2874 107.731 46.2874C107.654 45.773 107.999 45.041 107.999 45.041C106.884 45.482 106.156 47.1663 106.156 47.1663V46.0023C104.427 47.2927 104.236 50.4645 104.236 50.4645C104.005 50.0236 103.795 48.301 103.795 48.301C103.049 49.5474 103.068 52.4428 103.068 52.4428L102.251 50.685C101.764 52.3341 102.393 54.674 102.393 54.674C101.931 54.3389 101.431 53.36 101.431 53.36C101.123 55.7058 102.251 57.0256 102.251 57.0256L101.431 56.6229C101.625 58.3543 102.171 59.3155 102.467 59.7212C102.1 61.0264 101.894 62.0817 101.786 62.7107L97.2642 66.3352C96.808 66.2176 96.1392 66.5116 95.1621 67.6639C93.5409 69.5805 92.8597 71.6882 92.5731 73.1756C92.3389 71.0209 91.5622 68.2959 89.2444 66.9437C87.1577 65.7267 85.0957 65.2211 83.5608 65.0183H83.5454ZM54.3078 45.4996C54.8935 43.2597 57.1835 42.2514 59.0051 44.5472C60.8236 46.843 61.326 48.9124 62.0441 51.4875C62.676 53.751 64.5222 62.8489 64.9568 65.0154L60.4106 65.3828C62.1982 64.448 63.5174 62.8401 63.5174 62.8401C61.6681 62.3668 58.3054 63.0635 57.2667 63.2986L56.6595 60.7706C59.6616 60.5266 62.3986 57.9222 62.3986 57.9222C60.3489 57.4136 56.9215 57.8957 56.0061 58.0427L55.4852 55.8674C58.9003 55.1237 61.2612 52.7486 61.2612 52.7486C59.4335 52.1783 55.8119 52.6898 54.7609 52.8573L54.7548 52.8279C54.7548 52.8279 54.5637 51.8814 54.3911 50.6262C57.7445 49.809 59.5938 48.0276 59.5938 48.0276C58.3393 47.622 55.3157 47.813 54.1383 47.9071C54.1044 46.9929 54.1383 46.1287 54.3078 45.4937V45.4996ZM57.803 65.5415L57.464 64.1335C58.888 63.5015 62.041 63.2604 62.041 63.2604C61.1903 64.2775 58.6845 65.2299 57.803 65.5415ZM56.5116 60.1592L56.1695 58.7306C58.0034 58.2955 60.8667 58.2426 60.8667 58.2426C59.8342 59.2097 57.2821 59.9534 56.5116 60.1592ZM55.2756 55.015L54.9551 53.6804C56.8537 52.9426 59.7448 53.069 59.7448 53.069C57.9109 54.5123 55.9321 54.915 55.2726 55.015H55.2756ZM54.1753 48.5861C55.8859 48.3157 57.8616 48.3686 57.8616 48.3686C56.453 49.2534 54.8626 49.6444 54.2832 49.7649C54.24 49.3798 54.203 48.983 54.1753 48.5832V48.5861ZM55.7842 68.2783C55.7842 67.4934 55.8304 67.2553 56.7828 66.7115L66.3746 66.1177C66.6027 66.2852 68.5444 67.7286 68.1222 68.0519C67.6722 68.3958 66.7783 68.0519 66.7783 68.0519C66.7783 68.0519 65.903 67.6962 65.003 68.0519C64.103 68.4076 63.9181 69.8421 62.5064 70.0773C61.0948 70.3124 60.3551 70.1596 59.3565 69.1807C58.3547 68.1989 58.2284 68.34 57.6674 68.34C57.1065 68.34 55.7842 69.1425 55.7842 68.2812V68.2783ZM57.7383 69.4335C58.5212 69.5629 59.0606 70.239 59.0606 70.239C59.0606 70.239 59.8188 71.0708 61.1472 71.162C62.4756 71.256 63.0797 71.0591 63.8564 70.5946C64.6331 70.1302 64.9136 69.1837 65.7242 69.1837C66.128 69.1837 66.5379 69.1572 66.88 69.2189L70.0609 84.8985H62.7468L59.5136 78.602L57.7414 69.4306L57.7383 69.4335ZM88.1348 84.9015H83.8012V81.5857H88.1348V84.9015ZM90.2892 86.9798L89.7468 89.8723L83.1077 86.9798H90.2892ZM94.3762 82.5675L95.3039 81.9443L94.3669 81.9707C94.3639 81.2417 94.3823 80.451 94.4378 79.6397L95.6091 79.0047L94.4995 78.9342C94.5365 78.5609 94.5827 78.1875 94.6382 77.8142L95.6738 77.482L94.7337 77.2469C94.8323 76.7119 94.9526 76.1857 95.1005 75.683L96.4258 75.2568L95.3317 74.9805C95.3378 74.9599 95.3471 74.9393 95.3532 74.9187C96.9621 70.6358 98.3152 68.3341 98.4508 69.6011C98.5094 70.139 98.5803 70.4888 98.6327 70.7681C97.0885 74.275 95.5659 80.8184 95.6769 84.9015H94.5026C94.4532 84.3341 94.3978 83.5199 94.3762 82.5675ZM121.937 55.1384C123.275 55.2854 124.686 55.5705 126.169 56.0203C125.207 55.8057 123.42 55.5176 121.527 55.7969L121.937 55.1384ZM118.966 55.0297C119.551 55.0061 120.156 55.012 120.778 55.0444C120.106 55.1296 119.293 55.2766 118.645 55.5264L118.966 55.0297ZM109.95 63.5191C109.95 63.5191 112.33 64.2775 113.868 63.9101C113.868 63.9101 112.364 63.7308 112.089 63.3516C112.089 63.3516 113.856 63.622 114.848 63.5955C113.31 64.7243 110.86 66.8085 108.237 70.1684C107.895 69.5364 107.291 68.5252 106.726 68.1342L105.851 63.7278C105.9 63.6984 105.95 63.669 105.999 63.6367C106.588 63.8748 108.576 64.5744 110.998 64.2481C110.998 64.2481 110.006 63.9689 109.954 63.5162L109.95 63.5191ZM114.882 63.0488L115.233 63.3192C115.209 63.3369 115.187 63.3516 115.165 63.3663L114.885 63.0488H114.882ZM105.993 73.3225C105.974 72.9433 105.956 72.4407 105.95 71.9204L106.85 71.353H105.947C105.956 69.3835 106.19 67.6316 107.315 71.3913C106.874 71.9968 106.434 72.6406 105.993 73.3225ZM96.9837 84.9015C96.9344 84.1254 96.9221 82.832 97.1378 81.0213L98.232 80.6685L97.2149 80.4128C97.3197 79.6573 97.4614 78.8254 97.6525 77.9141L98.984 77.485L97.8128 77.191C97.8652 76.9617 97.9207 76.7266 97.9793 76.4885L98.984 76.1651L98.1149 75.9476C98.1827 75.686 98.2566 75.4155 98.3306 75.1451L99.3447 74.5072H98.5125C98.5803 74.272 98.6512 74.0369 98.7251 73.7958C101.182 65.8002 100.615 71.0532 100.51 72.1996C100.51 72.1996 99.5851 79.3839 97.6926 84.9103H96.9775L96.9837 84.9015ZM103.78 69.1013C103.746 69.1366 103.712 69.1748 103.675 69.2189C103.592 68.8926 103.45 68.4693 103.247 68.1783L103.78 64.8596V69.1013ZM105.087 69.2954C105.019 69.1748 104.936 69.0602 104.843 68.9661V64.8596L105.487 68.5575C105.33 68.7427 105.195 68.972 105.087 69.2954ZM103.006 63.8483L102.202 68.1283C102.079 68.2547 101.943 68.4252 101.801 68.6516L101.712 69.0866C101.644 68.6516 101.524 68.3341 101.339 68.1636L103.006 63.8483ZM99.3724 82.0148C99.434 82.5528 99.6097 83.9755 99.8378 84.8985H98.5371C98.7436 84.1989 99.0426 83.1818 99.3724 82.0148ZM100.803 83.808C100.713 83.367 100.528 82.4117 100.383 81.3623L101.354 80.7508H100.306C100.269 80.4098 100.235 80.0688 100.217 79.7396L101.986 79.4074L100.192 79.09C100.192 79.0665 100.192 79.0459 100.192 79.0224C100.257 78.7725 100.325 78.5256 100.39 78.2757L101.518 77.5643H100.571C100.75 76.8559 100.92 76.1651 101.068 75.5184L102.017 74.9187H101.2C101.367 74.1515 101.493 73.4666 101.564 72.9228C101.672 72.0997 101.746 71.3295 101.77 70.6564C102.319 69.266 102.901 68.4017 103.046 70.4506C102.461 72.5847 102.997 76.5473 103.25 78.1346C102.39 79.8543 101.564 81.7415 100.799 83.8109L100.803 83.808ZM104.014 76.6648C103.993 76.3327 103.965 75.8976 103.94 75.4155L104.729 74.9187H103.916C103.891 74.4014 103.872 73.8487 103.866 73.3079L104.729 72.764H103.863C103.863 70.7357 104.07 69.1396 104.859 70.7475C104.812 71.6705 104.868 72.961 105.068 74.8158C104.714 75.4067 104.362 76.0269 104.017 76.6678L104.014 76.6648ZM104.843 62.6755C104.486 62.8842 104.211 63.0605 104.03 63.1781L103.937 63.1576C104.141 62.9194 104.547 62.4814 105.179 61.9553C105.041 62.1816 104.926 62.4227 104.843 62.6725V62.6755ZM115.409 55.5059C115.951 55.3795 116.509 55.2736 117.086 55.1943C116.451 55.3883 115.782 55.644 115.264 55.9644L115.409 55.5059ZM100.306 68.3106C100.18 68.4017 100.047 68.5134 99.9025 68.6516C99.7792 68.7692 99.6529 68.922 99.5234 69.1072C99.4864 68.7927 99.4217 68.4488 99.3046 68.1754L102.02 64.1364L100.306 68.3106ZM99.7546 86.9798L97.9977 93.4674L90.8163 90.3367L91.4235 86.9798H99.7546ZM67.0126 86.9798L67.367 89.7606L58.8849 93.5262H58.8725L57.3561 86.9798H67.0095H67.0126ZM89.0594 93.532H79.0238V87.6353L89.3399 92.0476L89.0594 93.532ZM90.4187 92.512L92.8043 93.532H90.2337L90.4187 92.512ZM79.0208 94.9548H88.7882L87.1793 103.512H79.0208V94.9548ZM77.6738 103.512H70.292L69.1516 94.9548H77.6738V103.512ZM77.6738 93.5291H68.9636L68.6985 91.5331L77.6738 87.6206V93.532V93.5291ZM67.8479 93.5291H64.1215L67.6506 91.9888L67.8479 93.5291ZM60.8482 94.9548H68.0266L69.1177 103.512H61.1842L59.3534 95.6074L60.8482 94.9548ZM69.2934 104.876L70.1102 111.29H62.9842L61.4986 104.876H69.2903H69.2934ZM70.4739 104.876H77.6738V111.29H71.3276L70.4739 104.876ZM79.0208 104.876H86.9235L85.7183 111.29H79.0208V104.876ZM88.181 104.876H94.9063L93.168 111.29H87.0159L88.1779 104.876H88.181ZM88.4276 103.512L89.9779 94.9548H96.1299L97.443 95.5162L95.2762 103.512H88.4276ZM68.3996 89.302L68.0913 86.9798H73.63L68.3996 89.302ZM61.5201 84.9015H56.3821L48.7291 69.9185L52.1811 67.4728L61.5171 84.9015H61.5201ZM51.5061 66.5028L47.9031 69.0484L41.751 65.8179L46.9291 63.5309L47.037 63.6632L51.5031 66.5028H51.5061ZM41.2178 66.8261V66.7556L46.7133 69.9068L46.701 69.9156L40.475 72.861L41.2209 66.8261H41.2178ZM46.2202 62.6343L41.2856 64.7831V64.7625L40.7493 64.1247L45.8134 61.9641L46.2171 62.6372L46.2202 62.6343ZM40.475 74.3779L47.5825 70.8269L55.0938 84.8985H45.8935L40.475 74.3779ZM55.9167 86.9798L57.4517 93.5262H50.6924L47.8568 86.9798H55.9167ZM51.3089 94.9548H55.6702L52.0116 96.5774L51.3089 94.9548ZM58.0681 96.1659L59.791 103.509H55.0167L52.8253 98.4499L58.0681 96.1629V96.1659ZM55.6085 104.876H60.1116L61.6157 111.29H58.3886L55.6116 104.876H55.6085ZM97.5293 111.287H94.5457L96.2717 104.873H100.316L97.5293 111.287ZM100.907 103.512H96.6385L98.6512 96.0365L103.29 98.0207L100.904 103.512H100.907ZM101.407 94.9548H104.624L104.113 96.1336L101.41 94.9548H101.407ZM105.241 93.535H99.3262L101.089 86.9827H108.086L105.241 93.535ZM112.672 80.3922C110.829 82.2823 111.322 79.6985 111.322 79.6985L110.73 79.6691C108.779 81.7562 109.072 79.331 109.072 79.331H108.274C108.363 82.5204 110.345 80.8831 110.345 80.8831C110.739 82.0442 111.433 81.9649 111.991 81.6356C111.325 82.7703 110.542 83.8668 109.627 84.8985H101.656C101.884 84.2607 102.3 83.1613 102.895 81.7738C103.484 83.8285 105.047 82.2912 105.047 82.2912C105.195 84.4929 107.472 82.5969 107.472 82.5969L106.97 82.0913C105.136 83.5581 105.817 81.3564 105.817 81.3564L105.404 81.1859C103.721 83.1436 103.493 81.4563 103.487 80.4392C104.261 78.7519 105.25 76.7883 106.452 74.7776C107.287 76.1034 108.511 74.8658 108.511 74.8658C109.161 76.8118 110.995 75.0833 110.995 75.0833L110.434 74.5748C108.807 76.1181 109.309 73.6518 109.309 73.6518L108.776 73.737C107.411 75.1892 107.106 74.4484 107.05 73.7958C109.279 70.2536 112.163 66.685 115.677 64.3334C115.677 64.3334 116.497 72.8287 112.669 80.3834L112.672 80.3922ZM125.703 63.1781C125.703 63.1781 124.061 63.5426 123.703 63.963C123.703 63.963 125.95 64.354 126.443 65.1124C126.443 65.1124 124.733 65.4533 124.23 65.3475C124.23 65.3475 126.002 66.1824 126.113 67.2141C126.113 67.2141 126.332 69.1337 126.058 70.7534C126.058 70.7534 123.894 69.5041 123.564 67.9725C123.564 67.9725 123.235 68.3753 123.373 69.1837C123.373 69.1837 121.154 66.3352 120.908 65.1858C120.908 65.1858 120.606 67.0672 120.824 67.6169C120.824 67.6169 119.317 65.2917 119.317 64.4568C119.317 64.4568 118.987 65.2682 119.098 65.6591C119.098 65.6591 117.976 64.4627 117.81 63.3486C117.81 63.3486 117.428 63.8542 117.48 64.4304C117.48 64.4304 117.018 63.9336 116.58 63.3692C116.549 63.0841 116.525 62.8048 116.491 62.5108C116.491 62.5108 116.361 62.5785 116.124 62.7254C116.01 62.5432 115.918 62.3668 115.865 62.2198L115.955 62.8313C115.856 62.893 115.745 62.9635 115.622 63.0458C115.027 62.6255 113.893 61.9082 112.977 61.8171C112.977 61.8171 113.288 62.4961 113.865 62.8871C113.865 62.8871 111.1 62.9194 110.496 62.5108C110.496 62.5108 110.937 63.2046 111.334 63.3457C111.334 63.3457 109.581 63.1517 109.183 62.696C109.183 62.696 109.319 63.5221 109.621 63.7396C109.621 63.7396 107.62 63.7014 106.511 63.331C117.594 57.0491 124.227 67.2083 124.227 67.2083C118.599 58.3043 110.995 59.8535 106.828 61.6672C108.067 60.4825 110.65 58.4866 113.865 58.6541C113.865 58.6541 113.304 59.1774 113.202 59.489C113.202 59.489 115.076 58.319 118.004 58.6424L116.331 60.0886C116.331 60.0886 120.137 59.539 122.11 60.0886C122.11 60.0886 120.602 60.9235 120.22 61.4203C120.22 61.4203 123.287 60.5854 125.287 61.7083C125.287 61.7083 123.808 62.0523 123.287 62.5079C123.287 62.5079 125.069 62.5432 125.697 63.1722L125.703 63.1781ZM125.907 59.198L125.953 59.9593C125.953 59.9593 125.34 59.4772 124.68 59.3273C124.68 59.3273 124.797 60.1563 124.631 60.6736C124.625 60.6942 124.615 60.7148 124.606 60.7383C124.6 60.753 124.594 60.7706 124.588 60.7853C124.575 60.8147 124.563 60.8382 124.551 60.8647C124.018 60.7207 123.386 60.6089 122.634 60.5678C122.634 60.5678 122.661 60.3532 123.839 60.2768C123.839 60.2768 122.936 59.0774 118.716 59.2626C118.716 59.2626 119.098 58.7129 119.647 58.466C119.647 58.466 118.112 57.69 115.209 58.2191L115.483 58.0221C118.057 57.7693 121.099 57.8546 124.677 58.5307C124.677 58.5307 118.319 56.2378 110.043 58.5983C111.254 57.7635 113.483 56.3348 114.629 56.2996L114.333 57.0844C114.333 57.0844 115.375 56.0203 118.001 55.5294L117.465 56.5288C117.465 56.5288 119.576 55.5588 120.652 55.5294C120.652 55.5294 120.045 56.1202 120.001 56.57C120.001 56.57 122.997 56.0556 124.227 56.4407L123.392 56.8463C123.392 56.8463 125.793 56.814 126.847 57.8752C126.847 57.8752 126.107 57.64 125.432 57.6811C125.432 57.6811 127.272 59.2127 127.698 60.2768C127.698 60.2768 126.597 59.3067 125.901 59.2009L125.907 59.198ZM127.574 58.5865C127.574 58.5865 127.812 58.7276 128.101 58.9305H127.91C127.806 58.7717 127.691 58.6483 127.574 58.5865ZM122.045 52.1989L121.364 53.3571C122.652 52.778 124.683 52.922 124.683 52.922C124.095 52.922 122.88 53.7186 122.88 53.7186C124.625 53.7186 126.597 54.5123 126.597 54.5123C124.551 54.2918 124.018 54.6799 124.018 54.6799C125.346 54.9532 127.849 56.4671 127.849 56.4671L126.363 56.4936C126.477 56.3672 126.656 56.2261 126.906 56.2114C126.906 56.2114 126.717 56.1526 126.394 56.0732C125.611 55.6205 115.683 50.2823 103.222 62.3727C103.429 61.3585 103.866 59.6683 104.738 57.8193L106.381 55.9057C105.805 57.543 106.403 58.663 106.403 58.663C106.446 58.4366 108.28 55.2678 108.28 55.2678C108.064 56.6258 108.841 57.2226 108.841 57.2226C109.054 56.4083 110.126 53.9508 110.126 53.9508C110.074 54.721 110.912 55.4118 110.912 55.4118C110.847 54.7945 111.624 53.3747 111.624 53.3747C111.495 54.3212 112.422 54.8357 112.422 54.8357C112.444 54.1566 113.997 52.7074 113.997 52.7074C113.649 53.5746 113.976 54.4241 113.976 54.4241C114.148 54.0772 115.172 53.0543 115.711 52.5252C115.89 52.5134 116.053 52.5016 116.189 52.4928L116.438 52.9984C117.203 52.3517 118.007 52.2283 118.368 52.2047C118.488 52.2047 118.562 52.2047 118.562 52.2047L117.462 53.8685C118.79 53.1101 122.051 52.2047 122.051 52.2047L122.045 52.1989ZM115.332 51.6227C115.492 51.7491 115.711 51.8461 115.958 51.9255C115.899 51.9578 115.844 51.9902 115.788 52.0254C115.517 51.8197 115.329 51.6227 115.329 51.6227H115.332ZM117.798 51.6227C117.85 51.6374 117.896 51.6462 117.949 51.658C117.921 51.6639 117.896 51.6727 117.872 51.6786L117.801 51.6227H117.798ZM116.593 52.0695C116.673 52.0842 116.75 52.096 116.83 52.1048C116.614 52.2665 116.586 52.3958 116.583 52.437L116.593 52.0695ZM114.506 52.5369C114.691 52.5457 114.885 52.5487 115.082 52.5457C114.608 52.9573 114.339 53.3188 114.339 53.3188L114.506 52.5369ZM113.242 52.7662C113.171 52.7074 113.085 52.6457 112.989 52.5869L113.557 52.4987C113.446 52.5839 113.341 52.6751 113.242 52.7662ZM112.755 53.2718C112.444 53.6363 112.259 53.9332 112.259 53.9332C112.006 53.6922 112.059 53.1131 112.142 52.6868C112.472 52.8955 112.663 53.1307 112.755 53.2718ZM114.339 47.9659C114.265 48.5773 114.839 48.8536 114.839 48.8536C115.067 48.0041 116.281 47.4603 116.281 47.4603L116.318 48.2569C117.181 47.6132 118.898 47.5338 118.898 47.5338L118.633 48.2569C119.961 48.2216 121.629 48.8536 121.629 48.8536L118.898 49.2681C119.789 49.5885 120.34 49.956 120.34 49.956C119.696 50.3528 118.007 49.8472 118.007 49.8472L119.012 51.0054C117.758 51.076 116.016 50.391 116.016 50.391L116.281 51.1877C114.993 51.1877 113.664 50.6821 113.664 50.6821L114.339 51.8402C113.763 52.1283 110.632 51.949 110.632 51.949C110.801 52.0872 111.393 52.3547 111.806 52.534C111.103 53.2483 110.632 54.6828 110.632 54.6828C110.33 54.233 110.632 52.7074 110.632 52.7074C109.642 53.4247 108.699 56.2878 108.699 56.2878C108.434 55.3471 109.115 53.8656 109.115 53.8656C108.129 54.5535 106.461 57.5283 106.461 57.5283C106.424 56.4171 107.297 54.8768 107.297 54.8768C106.964 54.9621 106.178 55.6646 105.583 56.2319C107.66 52.7603 111.384 49.2622 118.01 48.9507C118.01 48.9507 115.717 48.5568 112.832 49.3681C112.851 49.3357 112.872 49.3034 112.894 49.2711L113.332 48.8536L113.27 48.8213C113.76 48.3186 114.343 47.9688 114.343 47.9688L114.339 47.9659ZM101.955 55.159C102.525 55.6705 103.299 55.5264 103.299 55.5264C102.892 54.9532 102.646 52.778 102.646 52.778C103.031 53.8774 103.78 54.0596 103.78 54.0596C103.432 52.9867 103.604 50.4675 103.604 50.4675C103.567 50.9819 104.794 52.0078 104.794 52.0078C104.757 50.3028 105.601 47.6837 105.601 47.6837C105.577 48.8742 105.947 50.103 105.947 50.103C105.756 49.1858 107.062 46.6225 107.062 46.6225C107.081 47.4867 107.716 47.9424 107.716 47.9424C108.061 46.8077 108.983 45.5966 108.983 45.5966C108.983 46.0728 109.713 46.3668 109.713 46.3668C110.021 45.3409 111.134 44.3885 111.134 44.3885C110.749 44.8294 110.749 46.0082 110.749 46.0082C112.324 44.5501 113.517 44.3502 113.517 44.3502C113.134 45.2674 112.287 46.0082 112.287 46.0082L113.054 46.4021C112.287 46.9517 111.057 47.6484 111.057 47.6484L112.247 47.8307L110.441 49.0388L111.717 49.0741L110.179 50.4293C108.203 51.4875 106.187 53.2307 104.578 56.082C107.294 49.9001 111.717 46.0023 111.717 46.0023C107.118 48.8948 104.566 53.6216 103.188 57.4107C102.562 56.9404 101.949 55.1561 101.949 55.1561L101.955 55.159ZM102.029 57.687L102.898 58.2485C102.843 58.4131 102.791 58.5748 102.741 58.7335L102.029 57.6841V57.687ZM98.7313 67.6668C98.5741 67.658 98.3892 67.7197 98.1673 67.8697C98.1179 67.5845 98.0316 67.2347 97.8837 66.9349L101.102 64.1335L98.7282 67.6668H98.7313ZM97.2364 68.2694C97.2673 68.4135 97.2796 68.581 97.2704 68.7545C95.4365 70.965 92.7827 76.3238 93.319 84.9015H92.1046C92.12 84.634 92.1385 84.3077 92.1663 83.9373L92.9522 83.6845L92.1971 83.4934C92.2248 83.1201 92.2556 82.7115 92.2926 82.2735L92.9276 82.1383L92.3173 81.9854C92.5947 78.8871 93.1402 74.5366 94.1635 71.5647L95.0697 71.2737L94.3361 71.0885C94.4995 70.6593 94.6752 70.2654 94.8662 69.9156C96.2686 67.32 97.0577 67.464 97.2334 68.2665L97.2364 68.2694ZM91.0813 72.1908C91.8211 75.3303 90.9026 82.735 90.6067 84.9015H89.1642V80.5921H82.9166V84.9015H71.2228L69.6417 76.7912C69.7681 75.0275 70.1903 72.1585 71.5588 70.1919C73.6639 67.17 75.353 66.3822 80.155 66.3117C84.957 66.2382 87.9406 67.6668 87.9406 67.6668C87.9406 67.6668 90.2091 68.4958 91.0813 72.1938V72.1908Z" fill="#E6452D"/>
<path d="M74.7474 69.1953C73.7426 69.5392 73.2248 70.5945 73.5854 71.5499C73.946 72.5082 75.0525 73.002 76.0542 72.6581C77.059 72.3142 77.5768 71.2589 77.2162 70.3035C76.8556 69.3452 75.7491 68.8514 74.7474 69.1953ZM75.3792 71.8644C74.0754 71.8644 74.0754 69.9331 75.3792 69.9331C76.683 69.9331 76.683 71.8644 75.3792 71.8644Z" fill="#E6452D"/>
<path d="M73.9934 73.599C73.9934 72.8964 73.3954 72.3262 72.6588 72.3262C71.9222 72.3262 71.3242 72.8964 71.3242 73.599C71.3242 74.3016 71.9222 74.8718 72.6588 74.8718C73.3954 74.8718 73.9934 74.3016 73.9934 73.599ZM72.6095 74.231C71.7403 74.231 71.7403 72.9435 72.6095 72.9435C73.4787 72.9435 73.4787 74.231 72.6095 74.231Z" fill="#E6452D"/>
<path d="M87.3594 76.6509C87.3594 77.3858 87.982 77.9796 88.7525 77.9796C89.5231 77.9796 90.1457 77.3858 90.1457 76.6509C90.1457 75.9161 89.5231 75.3223 88.7525 75.3223C87.982 75.3223 87.3594 75.9161 87.3594 76.6509ZM88.7864 77.2565C87.9173 77.2565 87.9173 75.969 88.7864 75.969C89.6556 75.969 89.6556 77.2565 88.7864 77.2565Z" fill="#E6452D"/>
<path d="M73.9971 74.873C73.4608 74.873 73.0293 75.287 73.0293 75.7949C73.0293 76.3028 73.4639 76.7168 73.9971 76.7168C74.5303 76.7168 74.9649 76.3028 74.9649 75.7949C74.9649 75.287 74.5303 74.873 73.9971 74.873ZM73.9848 76.2735C73.3313 76.2735 73.3344 75.3105 73.9848 75.3105C74.6351 75.3105 74.6351 76.2735 73.9848 76.2735Z" fill="#E6452D"/>
<path d="M79.2076 81.7656C78.471 81.7656 77.873 82.3359 77.873 83.0385C77.873 83.741 78.471 84.3113 79.2076 84.3113C79.9443 84.3113 80.5422 83.741 80.5422 83.0385C80.5422 82.3359 79.9443 81.7656 79.2076 81.7656ZM79.1953 83.6734C78.3261 83.6734 78.3261 82.3859 79.1953 82.3859C80.0645 82.3859 80.0645 83.6734 79.1953 83.6734Z" fill="#E6452D"/>
</svg>
