<svg xmlns="http://www.w3.org/2000/svg" version="1.1" xmlns:xlink="http://www.w3.org/1999/xlink" width="100" height="100"><svg width="100" height="100" viewBox="0 0 100 100" fill="none" xmlns="http://www.w3.org/2000/svg">
<circle cx="50" cy="50" r="50" fill="#F2EDE9"></circle>
<path d="M8.73461 52.0446C8.69608 46.0512 9.98584 39.7525 12.3709 34.3003L11.7049 33.9775C9.27766 39.5283 7.96406 45.9391 8.00075 52.0388C8.00075 52.0388 8.00075 52.0446 8.00075 52.0465C8.00075 52.0678 8.00075 52.0871 8.00075 52.1083C8.01909 63.8129 12.347 74.8062 20.1938 83.0724C28.0571 91.356 38.5183 95.9172 49.6546 95.9172V95.1441C38.7164 95.1441 28.4369 90.6641 20.713 82.5254C12.991 74.3906 8.73644 63.5655 8.73461 52.0446Z" fill="#E6452D"></path>
<path d="M91.3344 52.1085C91.3344 52.0911 91.3344 52.0717 91.3344 52.0543C91.3675 43.5349 88.7898 34.7933 84.0729 27.4315C79.3028 19.9867 72.5238 14.2524 64.9834 11.2856L64.7266 12.0104C72.1257 14.9211 78.78 20.5511 83.4638 27.8645C88.0963 35.0948 90.6281 43.676 90.5988 52.037C90.274 61.0163 88.3678 68.2814 84.7719 74.2419L85.392 74.6555C89.054 68.5868 90.9969 61.2096 91.3308 52.1104H91.3344V52.1085Z" fill="#E6452D"></path>
<path d="M56.3654 93.5456C56.1508 93.1378 55.8554 92.8324 55.483 92.6295C55.2738 92.5097 55.0225 92.4304 54.7289 92.3918C54.4372 92.3531 53.9786 92.3531 53.3566 92.3918L53.0924 92.4072L52.2522 92.4594C52.0522 92.471 51.9109 92.5232 51.8247 92.6102C51.7403 92.6991 51.7018 92.8344 51.7128 93.0161C51.722 93.1861 51.7715 93.3118 51.8595 93.3949C51.9476 93.478 52.0724 93.5147 52.2338 93.505L52.309 93.5012L52.5035 97.0148L52.4265 97.0187C52.265 97.0284 52.1458 97.0786 52.0669 97.1714C51.988 97.2622 51.9531 97.3917 51.9623 97.5579C51.9733 97.7473 52.0228 97.8788 52.1146 97.9522C52.2063 98.0276 52.3531 98.0585 52.5604 98.045L53.4007 97.9928L53.8978 97.9619C54.3804 97.9329 54.7436 97.8865 54.984 97.8266C55.2261 97.7667 55.4353 97.6797 55.6114 97.5676C56.0003 97.3202 56.2939 96.9723 56.4884 96.5239C56.6828 96.0755 56.7654 95.5614 56.7324 94.9797C56.7012 94.4308 56.5783 93.9515 56.3636 93.5437L56.3654 93.5456ZM55.1362 96.4138C54.8849 96.7211 54.4758 96.8911 53.9125 96.9259L53.6575 96.9414L53.4612 93.4084C53.4905 93.4026 53.5236 93.3987 53.5621 93.3949C53.5988 93.391 53.6538 93.3871 53.7254 93.3833C54.2739 93.3504 54.6922 93.4702 54.9821 93.7447C55.272 94.0191 55.4316 94.454 55.4646 95.0473C55.4977 95.6503 55.3894 96.1045 55.1362 96.4118V96.4138Z" fill="#E6452D"></path>
<path d="M62.3319 95.0649C62.2897 94.8561 62.2236 94.7151 62.1356 94.6435C62.0457 94.572 61.9191 94.5546 61.7521 94.5914C61.5833 94.6281 61.4696 94.7015 61.4127 94.8059C61.3559 94.9122 61.3485 95.0687 61.3889 95.2736L61.499 95.8225L59.4607 96.2748L59.1836 94.8948L59.9542 94.7228L59.9707 94.8059C60.0037 94.9682 60.0661 95.0842 60.1578 95.1499C60.2496 95.2156 60.3706 95.233 60.5211 95.2002C60.6789 95.1654 60.7834 95.0958 60.8366 94.9895C60.888 94.8851 60.8935 94.7286 60.8532 94.5237L60.6624 93.567C60.655 93.5342 60.6477 93.4994 60.6385 93.4665C60.6293 93.4337 60.6238 93.4143 60.622 93.4066C60.5981 93.2868 60.5358 93.1959 60.4367 93.136C60.3376 93.0761 60.222 93.0606 60.0918 93.0896C59.9432 93.1225 59.8404 93.1901 59.7854 93.2926C59.7304 93.395 59.7193 93.5342 59.7542 93.71L59.7652 93.7661L58.9947 93.9381L58.758 92.7572L60.7963 92.303L60.8935 92.7881C60.9357 92.9949 61.0018 93.136 61.0953 93.2114C61.1889 93.2868 61.3192 93.3061 61.4898 93.2694C61.6531 93.2327 61.7631 93.1612 61.8182 93.0549C61.8732 92.9486 61.8787 92.7901 61.8384 92.5813L61.631 91.5473C61.5962 91.3773 61.543 91.2729 61.4678 91.2284C61.3925 91.184 61.2678 91.184 61.0898 91.2226L57.5013 92.0208C57.3123 92.0634 57.182 92.1349 57.1141 92.2354C57.0463 92.3359 57.0298 92.475 57.0646 92.6548C57.0976 92.8171 57.1618 92.935 57.2609 93.0046C57.36 93.0742 57.4829 93.0935 57.6315 93.0587L57.7067 93.0413L58.3966 96.4854L58.3213 96.5028C58.1691 96.5357 58.0627 96.6053 58.0003 96.7058C57.9379 96.8082 57.9232 96.9396 57.9563 97.1039C57.9929 97.2856 58.0608 97.4073 58.1599 97.4692C58.259 97.531 58.4057 97.5407 58.5984 97.4962L62.1869 96.698C62.3686 96.6574 62.4842 96.6033 62.5337 96.5337C62.5832 96.4642 62.5924 96.3463 62.5594 96.1801L62.3356 95.0629L62.3319 95.0649Z" fill="#E6452D"></path>
<path d="M70.8407 87.0807C70.3747 87.0266 69.8279 87.1947 69.1968 87.5851L67.6025 88.5727C67.4356 88.6771 67.3347 88.7873 67.2998 88.9052C67.2649 89.0231 67.2925 89.1603 67.3805 89.3188C67.4613 89.4618 67.5585 89.5507 67.6722 89.5836C67.786 89.6164 67.9089 89.5932 68.0392 89.512L68.1052 89.4715L69.7986 92.5058L69.7325 92.5464C69.5986 92.6295 69.5179 92.73 69.4904 92.8479C69.4629 92.9658 69.4904 93.0953 69.5693 93.2402C69.6592 93.4007 69.7601 93.4934 69.872 93.5186C69.9839 93.5437 70.1252 93.5031 70.2958 93.3987L71.6314 92.5715C71.7965 92.4691 71.8956 92.3609 71.9268 92.2449C71.9598 92.1289 71.9305 91.9917 71.8424 91.8332C71.7543 91.6767 71.6571 91.5858 71.547 91.5607C71.4388 91.5375 71.3012 91.5762 71.1342 91.6805L70.7361 91.9279L70.2701 91.0949L70.9269 90.6891C71.5599 90.2967 71.9616 89.8677 72.1341 89.3999C72.3066 88.9322 72.246 88.4374 71.9543 87.9137C71.6773 87.417 71.3067 87.1425 70.8407 87.0884V87.0807ZM70.903 89.2492C70.8095 89.4521 70.6113 89.6473 70.3086 89.8367L69.7601 90.1769L69.0427 88.8916L69.5913 88.5515C69.8848 88.3698 70.1417 88.2848 70.36 88.2964C70.5802 88.308 70.7471 88.4162 70.8609 88.6191C70.9819 88.8356 70.9966 89.0463 70.903 89.2492Z" fill="#E6452D"></path>
<path d="M77.5402 86.8953C77.4246 86.8934 77.287 86.9611 77.1329 87.0983L76.555 87.6066L74.4121 84.9066L74.99 84.3983C75.1478 84.2591 75.2359 84.1296 75.2524 84.0079C75.2689 83.8861 75.2212 83.7566 75.1111 83.6155C74.9992 83.4725 74.8855 83.401 74.7736 83.3971C74.6616 83.3933 74.524 83.4628 74.3608 83.6059L72.3188 85.4033C72.161 85.5424 72.073 85.6719 72.0546 85.7898C72.0363 85.9097 72.084 86.0391 72.1959 86.1822C72.3078 86.3213 72.4215 86.3948 72.539 86.3967C72.6564 86.4006 72.7921 86.3329 72.9481 86.1957L73.526 85.6874L75.6689 88.3874L75.0909 88.8957C74.9332 89.0349 74.8451 89.1644 74.8268 89.2822C74.8084 89.4021 74.8543 89.5316 74.9662 89.6707C75.0799 89.8137 75.1937 89.8853 75.3111 89.8891C75.4285 89.893 75.5643 89.8253 75.7202 89.6881L77.7622 87.8907C77.9163 87.7554 78.0007 87.6259 78.019 87.5022C78.0374 87.3785 77.9897 87.2452 77.8796 87.106C77.7714 86.9688 77.6576 86.8992 77.542 86.8973L77.5402 86.8953Z" fill="#E6452D"></path>
<path d="M81.4211 82.4904C81.3221 82.3242 81.1202 82.1019 80.8212 81.8236L80.757 81.7637L78.8966 80.0416L79.1443 79.744C79.2783 79.5836 79.3461 79.4405 79.3443 79.3169C79.3443 79.1932 79.2783 79.0714 79.1498 78.9516C79.0177 78.8298 78.8948 78.7757 78.7829 78.7912C78.671 78.8066 78.5462 78.8975 78.4068 79.0617L76.8987 80.8688C76.7611 81.035 76.6914 81.1761 76.6914 81.296C76.6914 81.4158 76.7575 81.5356 76.8895 81.6593C77.0198 81.7791 77.1427 81.8313 77.2583 81.8159C77.3739 81.8004 77.5005 81.7115 77.6344 81.5511L78.1316 80.9558L79.7938 82.4942C80.1534 82.8267 80.3534 83.1108 80.3974 83.3466C80.4414 83.5824 80.3515 83.8336 80.1259 84.1042C79.9442 84.3207 79.7644 84.4366 79.5865 84.4463C79.4085 84.4579 79.1774 84.3554 78.893 84.1448C78.8618 84.1254 78.8196 84.0926 78.7664 84.0462C78.4545 83.795 78.2123 83.7756 78.0362 83.9863C77.9133 84.1332 77.8656 84.2704 77.8931 84.3999C77.9206 84.5294 78.0307 84.684 78.2233 84.8618L78.9168 85.5035C79.0783 85.6523 79.2085 85.7451 79.3058 85.7799C79.4048 85.8146 79.5186 85.8011 79.6507 85.7373C79.8892 85.6233 80.1149 85.4822 80.324 85.316C80.535 85.1498 80.7313 84.9565 80.9148 84.7362C81.1753 84.425 81.3624 84.1254 81.478 83.8394C81.5936 83.5534 81.6358 83.2847 81.6028 83.0315C81.5789 82.8363 81.5165 82.6566 81.4156 82.4904H81.4211Z" fill="#E6452D"></path>
<path d="M84.5074 78.6773C84.3624 78.5768 84.2377 78.5401 84.1294 78.5691C84.0212 78.5981 83.9148 78.6966 83.8065 78.8667L83.5515 79.2707L82.7865 78.7353L83.2066 78.0666C83.6121 77.4211 83.7955 76.849 83.7552 76.3503C83.7148 75.8517 83.4543 75.4323 82.9754 75.0979C82.5204 74.779 82.0728 74.7037 81.6306 74.8699C81.1903 75.0361 80.7665 75.44 80.3629 76.0817L79.341 77.7052C79.2346 77.8752 79.1887 78.0221 79.2071 78.1439C79.2254 78.2656 79.3061 78.3777 79.4511 78.4783C79.5832 78.571 79.7061 78.6058 79.8235 78.5826C79.9391 78.5594 80.04 78.4821 80.1244 78.3488L80.1666 78.2811L82.9516 80.2254L82.9094 80.2931C82.8232 80.4303 82.792 80.5579 82.8158 80.6757C82.8397 80.7936 82.9167 80.8999 83.0488 80.9908C83.1956 81.0932 83.324 81.1299 83.4359 81.1009C83.5478 81.0719 83.6579 80.9695 83.7662 80.7975L84.6229 79.4369C84.7294 79.2687 84.7716 79.1257 84.7532 79.0078C84.7349 78.8899 84.6523 78.7778 84.5055 78.6754L84.5074 78.6773ZM82.2984 77.5931L81.9462 78.1516L80.7665 77.3283L81.1188 76.7697C81.3077 76.4702 81.5022 76.2769 81.704 76.186C81.9058 76.0952 82.1003 76.1145 82.2874 76.246C82.4856 76.3851 82.5865 76.5668 82.5883 76.7929C82.5883 77.019 82.4929 77.2858 82.2984 77.595V77.5931Z" fill="#E6452D"></path>
<path d="M12.3998 30.9665C12.7429 31.1772 13.0695 31.2409 13.3795 31.1578C13.6896 31.0747 14.0565 30.8099 14.4785 30.3635C14.5665 30.2726 14.684 30.1451 14.8289 29.9827C15.3169 29.4416 15.7004 29.256 15.9756 29.4242C16.1535 29.5324 16.2544 29.687 16.2746 29.8861C16.2966 30.0852 16.2379 30.3094 16.1003 30.5587C15.948 30.8331 15.7719 31.0341 15.5683 31.1636C15.3665 31.2931 15.1353 31.3492 14.8784 31.3337C14.8381 31.3318 14.7812 31.326 14.706 31.3163C14.3978 31.2873 14.1941 31.3608 14.0969 31.5386C14.0051 31.7048 13.974 31.842 14.0051 31.9483C14.0363 32.0565 14.1354 32.1628 14.306 32.2672L14.3482 32.2923L15.2674 32.8335C15.427 32.9282 15.5554 32.9591 15.6545 32.9282C15.7536 32.8992 15.8508 32.7968 15.9462 32.6267C16.0012 32.5262 16.0306 32.4373 16.0324 32.3638C16.0343 32.2885 16.0141 32.2092 15.9701 32.1242C16.1352 31.9812 16.2874 31.8227 16.425 31.6468C16.5626 31.4709 16.7002 31.2603 16.8378 31.0129C17.1883 30.3789 17.3277 29.8146 17.258 29.3179C17.1883 28.8212 16.9167 28.4269 16.4416 28.1351C16.0563 27.8993 15.6894 27.8297 15.3389 27.9283C14.9885 28.0268 14.6142 28.3032 14.218 28.7574C14.1666 28.8173 14.0987 28.8985 14.0106 29.0009C13.4914 29.6078 13.1153 29.8378 12.8768 29.6928C12.7099 29.5904 12.6126 29.43 12.5888 29.2135C12.5649 28.9971 12.62 28.7671 12.7558 28.5216C12.864 28.3264 12.9979 28.1814 13.1594 28.0867C13.3208 27.992 13.5043 27.9515 13.7098 27.9669C13.7318 27.9708 13.7611 27.9727 13.7978 27.9766C14.0455 28.0017 14.2235 27.9186 14.3299 27.7253C14.4143 27.5726 14.4436 27.447 14.4179 27.3446C14.3923 27.2441 14.3042 27.1455 14.1519 27.0527L14.1097 27.0257L13.3575 26.587C13.1887 26.4903 13.0658 26.4497 12.9851 26.4594C12.9044 26.471 12.8218 26.5541 12.7337 26.7126C12.675 26.8189 12.6475 26.9059 12.6493 26.9774C12.6512 27.0489 12.6824 27.1281 12.7429 27.2209C12.5723 27.3542 12.42 27.4973 12.2861 27.6538C12.1522 27.8104 12.0329 27.9804 11.932 28.166C11.6256 28.7207 11.5155 29.258 11.6036 29.7798C11.6898 30.3016 11.954 30.6959 12.3962 30.9665H12.3998Z" fill="#E6452D"></path>
<path d="M14.4337 25.2782L15.4538 26.1943L15.4813 26.2174C15.6263 26.3392 15.7565 26.3933 15.8721 26.3837C15.9877 26.374 16.0978 26.3006 16.2023 26.1614C16.2886 26.0454 16.3253 25.9275 16.3124 25.8096C16.2977 25.6918 16.2354 25.5855 16.1216 25.4927L16.0335 25.4192L15.3382 24.8027L15.9198 24.0296L18.5397 26.2136L18.0737 26.8359C17.9489 27.0002 17.8902 27.1432 17.8975 27.263C17.9049 27.3829 17.9764 27.5008 18.1159 27.6167C18.2535 27.7327 18.3801 27.7791 18.4956 27.7578C18.6094 27.7366 18.7286 27.6457 18.8516 27.4834L20.5027 25.2859C20.6275 25.1216 20.6844 24.9766 20.6789 24.8549C20.6715 24.7331 20.5982 24.6133 20.4606 24.4993C20.3248 24.3852 20.2 24.3389 20.0844 24.3601C19.9707 24.3814 19.8514 24.4741 19.7267 24.6384L19.2589 25.2608L16.639 23.0768L17.2206 22.3037L17.9508 22.8758C18.1232 23.0111 18.2626 23.0768 18.3709 23.0729C18.4791 23.0691 18.5819 22.9995 18.6828 22.8661C18.7874 22.7289 18.8296 22.6013 18.8094 22.4854C18.791 22.3694 18.7066 22.2496 18.5599 22.1259L18.5323 22.1027L17.4554 21.2639C17.2407 21.0996 17.0903 21.0262 17.0096 21.0455C16.927 21.0629 16.8261 21.1537 16.7032 21.3161L14.3126 24.4973C14.1897 24.6597 14.131 24.7853 14.1329 24.8742C14.1347 24.9631 14.2374 25.0965 14.4411 25.2782H14.4337Z" fill="#E6452D"></path>
<path d="M18.8584 20.2087C18.9758 20.2049 19.1079 20.1295 19.2546 19.9826L19.5152 19.7236L20.9407 23.1484L20.8856 23.2025C20.7682 23.3185 20.7077 23.4402 20.704 23.562C20.7003 23.6857 20.7517 23.8074 20.86 23.9292C20.981 24.0645 21.1003 24.1302 21.2159 24.1263C21.3315 24.1225 21.4654 24.0471 21.614 23.8983L22.4524 23.0614C22.5992 22.9145 22.6781 22.7792 22.6891 22.6555C22.7001 22.5318 22.6451 22.4043 22.524 22.269C22.4066 22.1395 22.291 22.0757 22.1736 22.0815C22.058 22.0873 21.9259 22.1627 21.7773 22.3096L21.6635 22.4236L21.4434 21.8824L22.8487 20.4812L23.3422 20.7499L23.2285 20.8639C23.078 21.0127 22.9973 21.148 22.9863 21.2678C22.9753 21.3877 23.0285 21.5133 23.1478 21.6467C23.2707 21.7839 23.3899 21.8496 23.5055 21.8457C23.6211 21.8419 23.7532 21.7646 23.9036 21.6157L24.8833 20.6397C25.0301 20.4928 25.109 20.3575 25.12 20.2338C25.131 20.1101 25.076 19.9826 24.9549 19.8473C24.8466 19.7255 24.7329 19.6656 24.6155 19.6618C24.4981 19.6598 24.3806 19.7159 24.2651 19.8338L24.21 19.8898L20.5059 17.9436L20.4967 17.9339C20.2215 17.7928 19.9867 17.8179 19.794 18.0112L18.574 19.2269C18.4272 19.3738 18.3483 19.5091 18.3373 19.6328C18.3263 19.7565 18.3813 19.884 18.5024 20.0193C18.6217 20.1527 18.7391 20.2164 18.8565 20.2107L18.8584 20.2087ZM21.9791 20.0058L21.0361 20.947L20.2087 19.0317L21.9791 20.0077V20.0058Z" fill="#E6452D"></path>
<path d="M22.8683 16.3299C22.9858 16.3512 23.1087 16.3125 23.2408 16.214L23.3031 16.1676L25.2314 19.0415L25.169 19.0879C25.0369 19.1865 24.9617 19.2967 24.9396 19.4165C24.9195 19.5382 24.9543 19.6658 25.0461 19.803C25.1488 19.9576 25.2589 20.0407 25.3726 20.0543C25.4882 20.0678 25.6295 20.0118 25.7964 19.8861L26.4844 19.374L26.8899 19.0725C27.2843 18.7787 27.5705 18.539 27.7448 18.3516C27.9191 18.166 28.053 17.9766 28.1484 17.7833C28.3558 17.3562 28.4291 16.8982 28.3704 16.4092C28.3117 15.9202 28.1228 15.437 27.8035 14.9635C27.5027 14.5132 27.1577 14.1769 26.7706 13.9508C26.3835 13.7246 25.9799 13.6299 25.5616 13.6647C25.3231 13.6802 25.0699 13.7536 24.8021 13.8831C24.5342 14.0126 24.1452 14.2677 23.6371 14.6465L23.4206 14.807L22.7326 15.3191C22.5693 15.4409 22.4739 15.5626 22.4464 15.6844C22.4188 15.8062 22.4555 15.9434 22.5546 16.0922C22.6482 16.2314 22.7528 16.3106 22.8683 16.3319V16.3299ZM24.314 15.3829C24.3434 15.3597 24.3874 15.3249 24.4461 15.2824C24.8956 14.948 25.3102 14.8186 25.6937 14.8901C26.0771 14.9635 26.4312 15.2418 26.7578 15.7269C27.088 16.2198 27.2238 16.6682 27.1632 17.0682C27.1027 17.4702 26.8422 17.8413 26.3817 18.1834L26.1725 18.338L24.2351 15.4486C24.2572 15.4274 24.2847 15.4061 24.314 15.381V15.3829Z" fill="#E6452D"></path>
<path d="M29.0105 14.0993C29.3132 14.2056 29.759 14.1921 30.3424 14.0568C30.4635 14.0297 30.6268 13.9911 30.8323 13.937C31.5221 13.7611 31.9386 13.8229 32.0835 14.1225C32.1771 14.3158 32.1826 14.5013 32.0982 14.681C32.0138 14.8608 31.8505 15.0154 31.6047 15.1468C31.3368 15.2918 31.0836 15.3594 30.847 15.3536C30.6103 15.3459 30.3883 15.2628 30.1792 15.1043C30.1461 15.0792 30.1021 15.0425 30.0434 14.9922C29.7994 14.7912 29.5902 14.739 29.4178 14.8318C29.2563 14.9188 29.1591 15.0173 29.1297 15.1236C29.1004 15.2319 29.1297 15.3788 29.2196 15.5624L29.2417 15.6088L29.737 16.5867C29.8232 16.7568 29.915 16.8573 30.014 16.8882C30.1131 16.9191 30.247 16.8901 30.414 16.7993C30.5131 16.7471 30.5809 16.6891 30.6213 16.6273C30.6617 16.5654 30.6855 16.4862 30.6929 16.3896C30.9057 16.3644 31.1148 16.3161 31.3203 16.2485C31.5258 16.1808 31.7514 16.0803 31.9936 15.9508C32.6137 15.6165 33.021 15.2222 33.2192 14.7642C33.4155 14.3061 33.3898 13.821 33.1403 13.305C32.9385 12.8875 32.6633 12.6208 32.3184 12.5029C31.9734 12.385 31.5166 12.4043 30.9497 12.5609C30.8763 12.5821 30.7773 12.6111 30.6507 12.6478C29.904 12.8624 29.4673 12.8411 29.3426 12.5841C29.2545 12.4024 29.2563 12.213 29.3462 12.0178C29.438 11.8226 29.6031 11.6602 29.8416 11.5307C30.0324 11.4283 30.2214 11.3819 30.4048 11.3954C30.5883 11.407 30.7644 11.4785 30.9314 11.608C30.9497 11.6235 30.9717 11.6428 30.9992 11.666C31.1956 11.8284 31.3882 11.8593 31.5772 11.7569C31.7258 11.6776 31.8157 11.5868 31.8469 11.4882C31.878 11.3896 31.8524 11.2563 31.7735 11.092L31.7515 11.0456L31.3442 10.2474C31.2524 10.0715 31.1699 9.96522 31.0965 9.9285C31.0231 9.89178 30.9093 9.91497 30.7552 9.99808C30.6525 10.0541 30.5828 10.1121 30.5479 10.172C30.5131 10.2339 30.4984 10.3189 30.5021 10.4291C30.2911 10.4445 30.0893 10.4774 29.8966 10.5334C29.704 10.5876 29.5169 10.6629 29.3352 10.7615C28.7922 11.0533 28.4252 11.4438 28.2308 11.9308C28.0363 12.4178 28.0546 12.901 28.2876 13.3803C28.4674 13.7533 28.7096 13.993 29.0142 14.0993H29.0105Z" fill="#E6452D"></path>
<path d="M32.8388 10.1315C32.9471 10.1856 33.0773 10.1856 33.2296 10.1315L33.2975 10.1064L34.257 13.4809L34.1891 13.506C34.0368 13.5601 33.9341 13.6432 33.8827 13.7534C33.8314 13.8636 33.8314 13.9969 33.8827 14.1554C33.9396 14.3313 34.0222 14.4434 34.1286 14.4898C34.235 14.5381 34.3836 14.5265 34.5726 14.4588L35.5302 14.1129C35.7192 14.0452 35.8421 13.9563 35.899 13.85C35.9559 13.7437 35.9559 13.6026 35.899 13.4268C35.8476 13.2683 35.7706 13.1639 35.666 13.1098C35.5614 13.0557 35.433 13.0557 35.2807 13.1098L35.2129 13.1349L34.3873 10.3905L35.6605 12.1956C35.7559 12.3309 35.8568 12.4159 35.9632 12.4527C36.0715 12.4894 36.1981 12.4797 36.3448 12.4275C36.4916 12.3754 36.5962 12.3 36.6586 12.2033C36.7191 12.1067 36.7485 11.9734 36.7448 11.8052L36.7044 9.55553L37.6474 12.2575L37.5796 12.2826C37.4273 12.3367 37.3245 12.4198 37.2732 12.53C37.2218 12.6401 37.2218 12.7735 37.2732 12.932C37.3319 13.1098 37.4126 13.2238 37.5172 13.2702C37.6217 13.3166 37.7704 13.305 37.963 13.2374L38.917 12.8933C39.0803 12.8353 39.1904 12.7619 39.2546 12.6769C39.3518 12.7194 39.4857 12.7252 39.66 12.6904L40.7957 12.4643C40.9957 12.4237 41.1314 12.356 41.203 12.2575C41.2745 12.1608 41.2947 12.0197 41.2617 11.8381C41.2305 11.6622 41.1645 11.5424 41.0635 11.4805C40.9626 11.4187 40.8122 11.4071 40.6141 11.4477L40.4599 11.4786L40.5517 10.8988L42.4524 10.5219L42.7294 11.0283L42.5753 11.0592C42.3735 11.0998 42.2359 11.1674 42.1643 11.2602C42.0928 11.3549 42.0726 11.4921 42.1056 11.6699C42.1386 11.8555 42.2047 11.9792 42.3038 12.041C42.4028 12.1028 42.5533 12.1144 42.7569 12.0739L44.0815 11.811C44.2815 11.7704 44.4173 11.7028 44.4888 11.6061C44.5604 11.5095 44.5806 11.3684 44.5475 11.1867C44.5182 11.0225 44.4558 10.9065 44.3567 10.8389C44.2595 10.7693 44.1311 10.7519 43.9733 10.7828L43.8981 10.7983L41.7827 7.05073V7.0372C41.6213 6.76082 41.4121 6.64873 41.1498 6.70091L39.4986 7.02947C39.2986 7.07006 39.1629 7.1377 39.0913 7.23627C39.0197 7.33291 38.9996 7.47399 39.0326 7.65567C39.0638 7.83541 39.1317 7.95524 39.2326 8.01902C39.3335 8.0828 39.4839 8.0944 39.6839 8.05381L40.0361 7.98423L39.4766 11.6777L39.4014 11.6931C39.2436 11.724 39.1298 11.7917 39.0638 11.8922C39.0638 11.8922 39.0638 11.896 39.0601 11.898C39.0583 11.898 39.0546 11.8941 39.0528 11.8922C38.95 11.8381 38.8216 11.8381 38.6693 11.8922L38.5978 11.9173L37.3979 8.62976L37.4658 8.60463C37.6181 8.55052 37.7208 8.46548 37.774 8.35338C37.8272 8.24128 37.8272 8.10406 37.7759 7.94364C37.719 7.76777 37.6364 7.6576 37.5282 7.60928C37.4199 7.56097 37.2695 7.57256 37.0769 7.64214L36.4164 7.87986C36.2659 7.93398 36.1595 8.01516 36.0935 8.12339C36.0274 8.23162 35.9963 8.37851 35.9999 8.56405L36.0128 11.3877L34.3597 9.15546C34.2478 9.00664 34.1359 8.91 34.0222 8.86748C33.9084 8.82496 33.7782 8.83076 33.6314 8.88294L32.9709 9.12067C32.7783 9.19025 32.6535 9.27722 32.5948 9.38545C32.5361 9.49368 32.5361 9.63477 32.5948 9.81065C32.6462 9.97106 32.7269 10.0793 32.8352 10.1334L32.8388 10.1315ZM40.9792 7.79289L41.968 9.62317L40.6911 9.87636L40.9792 7.79289Z" fill="#E6452D"></path>
<path d="M45.0486 7.14738L45.1238 7.14351L45.2651 10.6611L45.1899 10.6649C45.0321 10.6727 44.9129 10.721 44.834 10.8099C44.7551 10.9007 44.7202 11.0283 44.7257 11.1945C44.7331 11.38 44.7826 11.5114 44.8707 11.5888C44.9606 11.6661 45.1055 11.7009 45.3055 11.6931L46.4595 11.6429C46.6613 11.6332 46.8044 11.5868 46.8869 11.5018C46.9695 11.4167 47.0062 11.2815 46.9988 11.0959C46.9915 10.9297 46.9456 10.8041 46.8612 10.721C46.775 10.6379 46.6521 10.6011 46.4906 10.6069L46.4191 10.6108L46.3696 9.36614L46.7897 9.34681C46.8484 9.34488 46.9071 9.36034 46.9622 9.39319C47.0172 9.42605 47.0667 9.47823 47.1126 9.54394L48.2794 11.2718L48.2923 11.2815C48.4134 11.4612 48.5748 11.5482 48.7785 11.5385L49.3288 11.5134C49.5307 11.5037 49.6756 11.4573 49.76 11.3723C49.8444 11.2873 49.8829 11.152 49.8756 10.9664C49.8682 10.7963 49.8187 10.6707 49.7288 10.5895C49.6389 10.5084 49.505 10.4716 49.3325 10.4794L49.2426 10.4832H49.1931L48.4152 9.30236C48.406 9.29076 48.395 9.2753 48.3822 9.25597C48.3014 9.12648 48.2226 9.03951 48.1437 8.99312C48.4757 8.8559 48.7271 8.6549 48.8977 8.38818C49.0683 8.1234 49.1454 7.81416 49.1325 7.46241C49.1124 6.95604 48.9344 6.58109 48.5987 6.33564C48.2629 6.09018 47.7804 5.98195 47.1475 6.01094L45.0853 6.10178C44.889 6.11144 44.7477 6.15783 44.6633 6.2448C44.5789 6.33177 44.5404 6.46706 44.5478 6.64874C44.5551 6.81495 44.601 6.94058 44.689 7.02755C44.7771 7.11259 44.8963 7.15318 45.0523 7.14545L45.0486 7.14738ZM46.975 7.03528C47.2759 7.02175 47.496 7.06427 47.6373 7.16477C47.7767 7.26334 47.852 7.43149 47.8611 7.66728C47.8703 7.90694 47.8024 8.08088 47.6575 8.18911C47.5125 8.29734 47.2539 8.36112 46.8814 8.37659L46.2778 8.40364L46.2246 7.07007L46.9768 7.03721L46.975 7.03528Z" fill="#E6452D"></path>
<path d="M50.5419 11.5793L51.6904 11.705C51.8922 11.7262 52.0409 11.703 52.1363 11.6296C52.2317 11.5581 52.2885 11.4305 52.3069 11.245C52.3234 11.0788 52.294 10.9493 52.217 10.8526C52.1418 10.7579 52.0225 10.7019 51.8629 10.6825L51.7913 10.6748L51.8776 9.79736L52.3381 9.42048C52.538 9.64081 52.7087 9.88047 52.8481 10.1356C52.9875 10.3907 53.1343 10.7483 53.2866 11.2082C53.2976 11.2469 53.3141 11.2991 53.3343 11.3648C53.4499 11.7223 53.6278 11.9137 53.8682 11.9407L54.4167 12.0007C54.6185 12.0219 54.7671 11.9987 54.8625 11.9253C54.9579 11.8538 55.0148 11.7262 55.0332 11.5407C55.0497 11.3725 55.0185 11.2411 54.9414 11.1464C54.8644 11.0517 54.7359 10.9956 54.5617 10.9763L54.4718 10.9667L54.413 10.9609C54.2076 10.2999 54.0204 9.80509 53.8516 9.47847C53.6829 9.15184 53.4866 8.88126 53.2646 8.66672L54.6937 7.45298L54.7965 7.46458C54.9598 7.48197 55.0882 7.45298 55.1818 7.37567C55.2753 7.29836 55.3304 7.17467 55.3469 7.00266C55.3652 6.81905 55.3359 6.67989 55.2588 6.59099C55.1818 6.50015 55.0423 6.4441 54.8405 6.42091L53.7489 6.30108C53.5471 6.27789 53.4003 6.30301 53.3068 6.37646C53.2132 6.44797 53.1582 6.57746 53.1398 6.76107C53.1233 6.92148 53.1435 7.04131 53.1985 7.12055C53.2536 7.20173 53.3581 7.25971 53.5104 7.2945L51.9913 8.59328L52.1307 7.1708L52.2023 7.17853C52.3619 7.19593 52.4885 7.165 52.5821 7.0877C52.6756 7.00845 52.7307 6.88476 52.7472 6.71661C52.7655 6.53301 52.7343 6.39385 52.6536 6.30301C52.5729 6.21218 52.4335 6.15613 52.2335 6.13293L51.085 6.00731C50.8832 5.98605 50.7364 6.01117 50.6428 6.08268C50.5493 6.15419 50.4942 6.28369 50.4759 6.46729C50.4594 6.63544 50.4869 6.7688 50.5603 6.86543C50.6337 6.96207 50.7474 7.01812 50.9052 7.03551L50.9804 7.04324L50.6355 10.5434L50.5603 10.5357C50.4007 10.5183 50.2741 10.5473 50.1824 10.6246C50.0906 10.7019 50.0374 10.8236 50.0209 10.9879C50.0026 11.1754 50.0319 11.3145 50.1108 11.4034C50.1897 11.4924 50.331 11.5484 50.5364 11.5716L50.5419 11.5793Z" fill="#E6452D"></path>
<path d="M56.3335 12.4141L58.9112 13.1041C59.1057 13.1563 59.2543 13.1544 59.357 13.0964C59.4597 13.0403 59.5331 12.9205 59.5772 12.7408C59.6194 12.5629 59.6084 12.4238 59.5441 12.3233C59.4799 12.2209 59.3497 12.1455 59.1552 12.0933L58.4268 11.8981L59.2488 8.48685L60.1551 8.73037L59.9569 9.66581C59.9092 9.88614 59.9111 10.0485 59.9569 10.1509C60.0046 10.2534 60.1074 10.3249 60.2633 10.3674C60.4248 10.4099 60.5532 10.4002 60.6449 10.3326C60.7385 10.2669 60.8082 10.1374 60.8541 9.94605L60.8633 9.90933L61.1495 8.5313C61.2027 8.25686 61.2063 8.08291 61.1568 8.01333C61.1073 7.94182 60.988 7.87998 60.7972 7.82973L57.0637 6.83051C56.8729 6.77833 56.739 6.77253 56.6637 6.81119C56.5885 6.84984 56.5133 7.00252 56.4399 7.27117L56.062 8.62601L56.0528 8.66273C56.0069 8.85213 56.0124 9.00095 56.0675 9.10725C56.1225 9.21548 56.2326 9.29086 56.394 9.33338C56.5298 9.3701 56.6472 9.35657 56.7426 9.29473C56.8399 9.23288 56.9041 9.12851 56.9408 8.98163L56.9683 8.8676L57.2178 7.94569L58.126 8.18921L57.304 11.6005L56.5757 11.4053C56.3812 11.3531 56.2344 11.355 56.1335 11.411C56.0326 11.4671 55.9592 11.585 55.917 11.7647C55.873 11.9445 55.884 12.0856 55.9501 12.188C56.0143 12.2904 56.1427 12.3658 56.3335 12.418V12.4141Z" fill="#E6452D"></path>
<path d="M69.2376 45.22L68.9478 45.3457L68.8065 45.0635L68.4542 45.2857L68.557 45.5177L68.3203 45.622L68.4726 46.0743L68.746 45.939L68.8762 46.2308L69.3 46.0511L69.1441 45.7419L69.4321 45.6008L69.2376 45.22Z" fill="#E6452D"></path>
<path d="M51.7776 42.831C50.7796 42.6629 49.4568 42.7383 48.8789 42.7846C48.8477 42.7866 48.8183 42.7904 48.7872 42.7924C48.7376 42.7962 48.6973 42.8001 48.6661 42.804C48.6569 42.804 48.6477 42.804 48.6385 42.8059C48.6074 42.8098 48.589 42.8117 48.589 42.8117C47.413 42.9335 45.9013 43.2852 45.0243 44.2458C43.8171 45.5697 43.2997 47.2724 43.0869 48.2194L42.6429 45.705C42.8227 45.7668 43.0906 45.7804 43.2282 45.417C43.4483 44.8372 43.2594 44.0583 42.7255 43.494C42.1898 42.9296 41.4816 42.7653 41.4816 42.7653L41.3642 42.775L39.4782 33.0167C39.4782 33.0167 38.7094 29.3001 37.2417 28.1579C35.774 27.0176 34.132 28.0477 33.8183 29.4103C33.5045 30.7728 33.5045 33.3491 34.132 36.0356C34.6549 38.2737 35.4713 42.0695 35.73 43.2775H35.7226C35.7226 43.2775 34.587 43.9037 34.6439 44.8527C34.6989 45.7514 35.0585 46.1746 35.7355 45.8809L36.3574 49.3636L33.5963 43.4244L30.2921 41.0897L29.6078 39.901L29.1271 40.0904L28.9638 40.1542L28.9675 40.1619L25.1367 41.8937L25.9018 43.0823L25.3385 48.8128L28.5657 55.9001H28.3969L31.6846 64.2301L29.2188 65.4399L29.7912 66.5976L32.1689 65.4535L35.8639 74.8136H61.16L64.9284 65.1848L67.9189 66.5976L68.5004 65.4399L65.4091 63.9517L68.561 55.9001H68.0821C69.1426 54.7675 72.078 50.8383 71.5203 42.601C71.7955 42.8987 72.1092 43.2214 72.2982 43.3529V42.804C72.2982 42.804 72.9825 44.1086 73.2265 44.4023L73.243 43.7839C73.243 43.7839 73.9108 45.1406 74.2209 45.4846C74.2209 45.4846 74.1713 44.729 74.2704 44.3849C74.2704 44.3849 75.0703 46.2403 75.9179 46.8414C75.9179 46.8414 75.773 46.3602 75.8372 45.906C75.8372 45.906 76.7508 47.0289 77.3214 47.2705C77.3214 47.2705 77.8094 45.6567 77.5654 44.2728C77.5654 44.2728 77.5086 43.7839 77.1416 43.3877C77.1416 43.3877 77.6957 43.2543 78.1855 43.6041C78.1855 43.6041 77.8259 42.4947 76.9618 42.1159C76.9618 42.1159 77.4994 41.9613 77.9892 42.0811C77.9892 42.0811 77.2058 41.1882 76.7985 41.0858C76.7985 41.0858 77.1416 40.8616 77.6462 40.9911C77.6462 40.9911 77.3453 40.533 76.5252 40.2083C76.5399 40.1465 76.6353 39.7213 76.5747 39.5029C76.5747 39.5029 77.3746 40.0267 77.5929 40.3803C77.5929 40.3803 77.4645 39.673 77.4517 39.5918C77.4517 39.5918 78.4956 40.4751 78.7928 40.9911C78.7928 40.9911 78.6515 40.0325 78.4094 39.3212H78.8258C78.8717 39.3831 78.9066 39.4449 78.9231 39.5029C78.9231 39.5029 78.9139 39.4333 78.8882 39.3212H78.9231C78.8772 38.0843 77.7727 37.4658 77.7727 37.4658L78.9231 37.489C78.6515 36.8705 76.8921 36.0279 76.8921 36.0279C77.3655 36.0414 78.1782 36.3236 78.1782 36.3236C77.9984 35.5157 76.4408 35.1581 76.4408 35.1581L77.1857 34.9204C76.4408 34.302 75.0189 34.5629 75.0189 34.5629L75.3584 34.0178C74.2979 33.9019 72.944 34.5146 72.944 34.5146L73.2412 34.0952C73.7971 34.0043 74.1163 33.7299 74.1163 33.7299C73.5751 33.6584 73.3714 33.3027 73.3714 33.3027C74.364 33.4226 75.0189 32.9452 75.0189 32.9452C74.4997 32.9684 74.0704 32.6591 74.0704 32.6591L75.0189 32.4214C74.7474 31.4705 73.1898 31.4647 73.1898 31.4647L73.709 30.9951C72.9183 30.8289 71.7221 31.1613 71.7221 31.1613L71.9698 30.7342C70.9534 30.8772 70.502 31.5846 70.502 31.5846L70.5699 30.9719C70.1736 31.1284 69.5242 31.7121 69.2049 32.0136L69.0325 31.9093C69.4434 31.6928 70.2911 30.7052 70.2911 30.7052L69.4911 30.9951C70.1094 30.4404 70.2911 29.7176 70.2911 29.7176L69.6508 30.0075C70.0159 29.5745 70.2911 28.5386 70.2911 28.5386C69.2618 28.6836 68.5573 29.3329 68.5573 29.3329L68.9646 28.5386C67.7758 28.8517 67.3171 29.8644 67.3171 29.8644C67.1795 29.7195 67.3171 29.1416 67.3171 29.1416C66.7905 29.3832 66.1741 30.5158 66.1741 30.5158C66.1282 30.1775 66.3337 29.6963 66.3337 29.6963C65.6696 29.9862 65.2366 31.0936 65.2366 31.0936V30.3283C64.2074 31.1768 64.0936 33.2622 64.0936 33.2622C63.956 32.9722 63.8313 31.8397 63.8313 31.8397C63.3873 32.6591 63.3983 34.5629 63.3983 34.5629L62.9121 33.4071C62.6222 34.4914 62.9965 36.0298 62.9965 36.0298C62.7213 35.8095 62.4241 35.1659 62.4241 35.1659C62.2406 36.7082 62.9121 37.576 62.9121 37.576L62.4241 37.3112C62.5397 38.4496 62.8644 39.0816 63.0405 39.3483C62.8222 40.2064 62.6993 40.9002 62.6351 41.3138L59.9436 43.6969C59.6721 43.6196 59.274 43.8128 58.6924 44.5705C57.7274 45.8306 57.3219 47.2164 57.1513 48.1943C57.0119 46.7776 56.5495 44.986 55.1699 44.097C53.9278 43.2968 52.7005 42.9644 51.7868 42.831H51.7776ZM34.3742 29.9978C34.7227 28.5251 36.0859 27.8621 37.1702 29.3716C38.2526 30.8811 38.5517 32.2417 38.9791 33.9347C39.3552 35.4229 40.4542 41.4047 40.7129 42.8291L38.0068 43.0707C39.0709 42.4561 39.8561 41.3989 39.8561 41.3989C38.7553 41.0877 36.7537 41.5458 36.1354 41.7004L35.774 40.0383C37.5609 39.8778 39.1901 38.1655 39.1901 38.1655C37.9701 37.8311 35.9299 38.1481 35.3851 38.2447L35.075 36.8145C37.1078 36.3255 38.5131 34.7639 38.5131 34.7639C37.4252 34.3889 35.2695 34.7252 34.6439 34.8354L34.6402 34.8161C34.6402 34.8161 34.5264 34.1937 34.4237 33.3685C36.4198 32.8312 37.5206 31.6599 37.5206 31.6599C36.7739 31.3932 34.9741 31.5188 34.2733 31.5807C34.2531 30.9796 34.2733 30.4114 34.3742 29.9939V29.9978ZM36.4547 43.1751L36.2528 42.2493C37.1005 41.8337 38.9773 41.6753 38.9773 41.6753C38.4709 42.344 36.9794 42.9702 36.4547 43.1751ZM35.6859 39.6363L35.4823 38.697C36.5739 38.4109 38.2783 38.3761 38.2783 38.3761C37.6637 39.012 36.1446 39.501 35.6859 39.6363ZM34.9502 36.254L34.7594 35.3765C35.8896 34.8914 37.6105 34.9745 37.6105 34.9745C36.5189 35.9235 35.341 36.1883 34.9484 36.254H34.9502ZM34.2953 32.0272C35.3135 31.8493 36.4895 31.8841 36.4895 31.8841C35.6511 32.4659 34.7044 32.7229 34.3595 32.8022C34.3338 32.549 34.3118 32.2881 34.2953 32.0252V32.0272ZM35.253 44.9744C35.253 44.4584 35.2805 44.3018 35.8474 43.9443L41.5568 43.5539C41.6926 43.664 42.8484 44.613 42.5971 44.8256C42.3292 45.0517 41.7971 44.8256 41.7971 44.8256C41.7971 44.8256 41.2761 44.5917 40.7404 44.8256C40.2047 45.0595 40.0946 46.0026 39.2543 46.1572C38.4141 46.3119 37.9737 46.2113 37.3793 45.5678C36.7831 44.9222 36.7078 45.015 36.3739 45.015C36.04 45.015 35.253 45.5426 35.253 44.9763V44.9744ZM36.4161 45.734C36.8821 45.819 37.2032 46.2635 37.2032 46.2635C37.2032 46.2635 37.6545 46.8105 38.4452 46.8704C39.236 46.9323 39.5956 46.8028 40.0579 46.4974C40.5202 46.192 40.6872 45.5697 41.1697 45.5697C41.41 45.5697 41.654 45.5523 41.8577 45.5929L43.751 55.902H39.3974L37.4729 51.7621L36.418 45.732L36.4161 45.734ZM54.5094 55.9039H51.9299V53.7238H54.5094V55.9039ZM55.7918 57.2704L55.4689 59.1721L51.5171 57.2704H55.7918ZM58.2246 54.3693L58.7768 53.9596L58.2191 53.977C58.2172 53.4977 58.2283 52.9778 58.2613 52.4444L58.9584 52.0269L58.298 51.9805C58.32 51.7351 58.3475 51.4896 58.3805 51.2441L58.997 51.0257L58.4374 50.8711C58.4961 50.5194 58.5677 50.1734 58.6557 49.8429L59.4446 49.5627L58.7933 49.381C58.797 49.3675 58.8025 49.3539 58.8062 49.3404C59.7639 46.5245 60.5693 45.0111 60.65 45.8441C60.6848 46.1978 60.727 46.4278 60.7582 46.6114C59.8391 48.9172 58.9328 53.2194 58.9988 55.9039H58.2998C58.2704 55.5309 58.2374 54.9955 58.2246 54.3693ZM74.63 36.3352C75.4262 36.4318 76.2665 36.6193 77.149 36.915C76.5766 36.7739 75.5125 36.5845 74.386 36.7681L74.63 36.3352ZM72.8614 36.2637C73.21 36.2482 73.5696 36.2521 73.9402 36.2733C73.5402 36.3294 73.0559 36.426 72.6706 36.5903L72.8614 36.2637ZM67.4951 41.8453C67.4951 41.8453 68.9114 42.344 69.8269 42.1024C69.8269 42.1024 68.9316 41.9845 68.7683 41.7352C68.7683 41.7352 69.8196 41.913 70.4103 41.8956C69.4948 42.6378 68.0363 44.0081 66.475 46.2171C66.2713 45.8016 65.9118 45.1368 65.576 44.8797L65.055 41.9826C65.0843 41.9632 65.1137 41.9439 65.143 41.9227C65.4934 42.0792 66.6768 42.5392 68.1188 42.3247C68.1188 42.3247 67.5281 42.141 67.4969 41.8434L67.4951 41.8453ZM70.4305 41.5361L70.6396 41.7139C70.625 41.7255 70.6121 41.7352 70.5993 41.7448L70.4323 41.5361H70.4305ZM65.1394 48.291C65.1284 48.0416 65.1173 47.7111 65.1137 47.369L65.6494 46.996H65.1118C65.1174 45.7011 65.2568 44.5492 65.9264 47.0212C65.6641 47.4193 65.4017 47.8426 65.1394 48.291ZM59.7767 55.9039C59.7473 55.3937 59.74 54.5433 59.8684 53.3527L60.5197 53.1208L59.9143 52.9527C59.9767 52.456 60.0611 51.909 60.1748 51.3099L60.9674 51.0277L60.2702 50.8344C60.3014 50.6837 60.3344 50.529 60.3693 50.3725L60.9674 50.1599L60.45 50.0169C60.4904 49.8449 60.5344 49.667 60.5784 49.4892L61.182 49.0698H60.6867C60.727 48.9152 60.7692 48.7606 60.8133 48.6021C62.2755 43.3451 61.9379 46.7989 61.8755 47.5527C61.8755 47.5527 61.3251 52.2762 60.1987 55.9097H59.773L59.7767 55.9039ZM63.8221 45.5156C63.8019 45.5388 63.7817 45.5639 63.7597 45.5929C63.7102 45.3783 63.6258 45.1 63.5047 44.9087L63.8221 42.7267V45.5156ZM64.6 45.6431C64.5596 45.5639 64.5101 45.4885 64.455 45.4267V42.7267L64.8385 45.158C64.7449 45.2798 64.6642 45.4305 64.6 45.6431ZM63.3616 42.0618L62.8828 44.8758C62.8094 44.9589 62.7286 45.071 62.6442 45.2199L62.591 45.5059C62.5507 45.2199 62.4791 45.0111 62.369 44.899L63.3616 42.0618ZM61.1985 54.006C61.2352 54.3597 61.3398 55.2951 61.4756 55.902H60.7014C60.8243 55.442 61.0022 54.7733 61.1985 54.006ZM62.0498 55.185C61.9966 54.895 61.8865 54.2669 61.8003 53.5769L62.3782 53.1749H61.7544C61.7324 52.9507 61.7122 52.7265 61.7012 52.5101L62.7543 52.2917L61.6866 52.0829C61.6866 52.0675 61.6866 52.0539 61.6866 52.0385C61.7251 51.8742 61.7655 51.7119 61.804 51.5476L62.4755 51.0799H61.9122C62.0186 50.6141 62.1195 50.1599 62.2076 49.7347L62.7727 49.3404H62.2865C62.3856 48.836 62.4608 48.3857 62.503 48.0281C62.5672 47.4869 62.6112 46.9806 62.6259 46.538C62.9525 45.6238 63.2992 45.0556 63.3854 46.4027C63.0369 47.8058 63.3561 50.4111 63.5065 51.4548C62.9947 52.5854 62.503 53.8263 62.048 55.1869L62.0498 55.185ZM63.9615 50.4885C63.9487 50.2701 63.9322 49.984 63.9175 49.667L64.3872 49.3404H63.9028C63.8881 49.0003 63.8771 48.6369 63.8735 48.2813L64.3872 47.9237H63.8716C63.8716 46.5902 63.9945 45.5407 64.4642 46.5979C64.4367 47.2048 64.4697 48.0532 64.589 49.2728C64.378 49.6612 64.1688 50.0691 63.9634 50.4904L63.9615 50.4885ZM64.455 41.2907C64.2422 41.4279 64.0789 41.5438 63.9707 41.6212L63.9157 41.6076C64.0367 41.4511 64.2789 41.1631 64.655 40.8171C64.5725 40.966 64.5046 41.1244 64.455 41.2887V41.2907ZM70.7442 36.5768C71.0671 36.4937 71.3992 36.4241 71.7423 36.3719C71.3643 36.4995 70.9662 36.6676 70.658 36.8783L70.7442 36.5768ZM61.7544 44.9957C61.6792 45.0556 61.6003 45.129 61.5141 45.2199C61.4407 45.2972 61.3655 45.3977 61.2884 45.5194C61.2664 45.3126 61.2279 45.0865 61.1582 44.9068L62.7745 42.2512L61.7544 44.9957ZM61.426 57.2704L60.3803 61.5359L56.1056 59.4775L56.467 57.2704H61.426ZM41.9366 57.2704L42.1476 59.0987L37.0986 61.5745H37.0913L36.1886 57.2704H41.9347H41.9366ZM55.0598 61.5784H49.0862V57.7013L55.2268 60.6024L55.0598 61.5784ZM55.8689 60.9077L57.2889 61.5784H55.7588L55.8689 60.9077ZM49.0844 62.5138H54.8984L53.9407 68.1399H49.0844V62.5138ZM48.2826 68.1399H43.8886L43.2098 62.5138H48.2826V68.1399ZM48.2826 61.5764H43.0979L42.9401 60.2641L48.2826 57.6917V61.5784V61.5764ZM42.4338 61.5764H40.2157L42.3164 60.5637L42.4338 61.5764ZM38.2673 62.5138H42.5402L43.1896 68.1399H38.4673L37.3775 62.9429L38.2673 62.5138ZM43.2942 69.0367L43.7804 73.2539H39.5387L38.6544 69.0367H43.2924H43.2942ZM43.9969 69.0367H48.2826V73.2539H44.5051L43.9969 69.0367ZM49.0844 69.0367H53.7884L53.0711 73.2539H49.0844V69.0367ZM54.5369 69.0367H58.5401L57.5054 73.2539H53.8434L54.5351 69.0367H54.5369ZM54.6837 68.1399L55.6065 62.5138H59.2685L60.0501 62.883L58.7603 68.1399H54.6837ZM42.7622 58.7972L42.5787 57.2704H45.8756L42.7622 58.7972ZM38.6672 55.9039H35.6089L31.0535 46.0529L33.1083 44.4448L38.6654 55.9039H38.6672ZM32.7065 43.8071L30.5618 45.4808L26.8998 43.3567L29.982 41.8531L30.0462 41.94L32.7046 43.8071H32.7065ZM26.5824 44.0197V43.9733L29.8536 46.0451L29.8463 46.0509L26.1403 47.9875L26.5843 44.0197H26.5824ZM29.5601 41.2636L26.6228 42.6764V42.6629L26.3036 42.2435L29.3179 40.8229L29.5582 41.2655L29.5601 41.2636ZM26.1403 48.9848L30.371 46.6501L34.842 55.902H29.3656L26.1403 48.9848ZM35.3319 57.2704L36.2455 61.5745H32.2221L30.5343 57.2704H35.3319ZM32.5891 62.5138H35.1851L33.0074 63.5807L32.5891 62.5138ZM36.6124 63.3101L37.638 68.138H34.7961L33.4917 64.8118L36.6124 63.3082V63.3101ZM35.1484 69.0367H37.8288L38.7241 73.2539H36.8032L35.1502 69.0367H35.1484ZM60.1014 73.252H58.3255L59.3529 69.0348H61.7599L60.1014 73.252ZM62.1122 68.1399H59.5712L60.7692 63.225L63.5304 64.5296L62.1104 68.1399H62.1122ZM62.4094 62.5138H64.3248L64.0202 63.2888L62.4112 62.5138H62.4094ZM64.6917 61.5803H61.171L62.2204 57.2723H66.3851L64.6917 61.5803ZM69.115 52.9391C68.0179 54.1819 68.3115 52.483 68.3115 52.483L67.9592 52.4637C66.7979 53.8359 66.9722 52.2414 66.9722 52.2414H66.497C66.5502 54.3384 67.7299 53.2619 67.7299 53.2619C67.9647 54.0253 68.3775 53.9731 68.7096 53.7567C68.3133 54.5027 67.8473 55.2236 67.3024 55.902H62.558C62.6938 55.4826 62.9415 54.7598 63.2955 53.8475C63.646 55.1985 64.5761 54.1877 64.5761 54.1877C64.6642 55.6353 66.02 54.3887 66.02 54.3887L65.7209 54.0562C64.6293 55.0207 65.0348 53.5731 65.0348 53.5731L64.7889 53.461C63.7872 54.7482 63.6515 53.6388 63.6478 52.9701C64.1083 51.8607 64.6972 50.5696 65.4127 49.2476C65.9099 50.1193 66.6383 49.3056 66.6383 49.3056C67.0254 50.5851 68.117 49.4486 68.117 49.4486L67.7831 49.1143C66.8144 50.129 67.1134 48.5074 67.1134 48.5074L66.7961 48.5635C65.9833 49.5182 65.8017 49.0312 65.7686 48.6021C67.0951 46.2732 68.8123 43.9269 70.9038 42.3807C70.9038 42.3807 71.3918 47.9663 69.1132 52.9333L69.115 52.9391ZM76.8719 41.6212C76.8719 41.6212 75.8941 41.8608 75.6812 42.1372C75.6812 42.1372 77.0187 42.3942 77.3122 42.8929C77.3122 42.8929 76.294 43.1171 75.995 43.0475C75.995 43.0475 77.0499 43.5964 77.1159 44.2748C77.1159 44.2748 77.2462 45.5368 77.0829 46.6018C77.0829 46.6018 75.795 45.7804 75.5987 44.7734C75.5987 44.7734 75.4024 45.0382 75.4849 45.5697C75.4849 45.5697 74.164 43.6969 74.0172 42.9412C74.0172 42.9412 73.8374 44.1781 73.9677 44.5396C73.9677 44.5396 73.0705 43.0108 73.0705 42.4619C73.0705 42.4619 72.8742 42.9953 72.9403 43.2524C72.9403 43.2524 72.2725 42.4657 72.1734 41.7332C72.1734 41.7332 71.9459 42.0657 71.9771 42.4445C71.9771 42.4445 71.7019 42.1179 71.4414 41.7468C71.423 41.5593 71.4084 41.3757 71.3882 41.1824C71.3882 41.1824 71.3111 41.2269 71.1698 41.3235C71.102 41.2037 71.0469 41.0877 71.0157 40.9911L71.0689 41.3931C71.0102 41.4337 70.9442 41.4801 70.8708 41.5342C70.5167 41.2578 69.8416 40.7862 69.2967 40.7263C69.2967 40.7263 69.482 41.1728 69.8251 41.4298C69.8251 41.4298 68.1794 41.4511 67.8198 41.1824C67.8198 41.1824 68.0821 41.6385 68.3188 41.7313C68.3188 41.7313 67.2749 41.6038 67.0382 41.3042C67.0382 41.3042 67.1189 41.8473 67.2987 41.9903C67.2987 41.9903 66.1081 41.9652 65.4476 41.7217C72.045 37.5914 75.9931 44.2709 75.9931 44.2709C72.6431 38.4167 68.117 39.4352 65.6366 40.6277C66.3741 39.8489 67.9115 38.5365 69.8251 38.6467C69.8251 38.6467 69.4911 38.9907 69.4306 39.1956C69.4306 39.1956 70.5461 38.4264 72.289 38.639L71.2928 39.5899C71.2928 39.5899 73.5586 39.2284 74.7327 39.5899C74.7327 39.5899 73.8356 40.1388 73.6081 40.4654C73.6081 40.4654 75.4336 39.9165 76.6243 40.6548C76.6243 40.6548 75.7436 40.8809 75.4336 41.1805C75.4336 41.1805 76.494 41.2037 76.8683 41.6173L76.8719 41.6212ZM76.993 39.0043L77.0205 39.5048C77.0205 39.5048 76.6554 39.1879 76.2628 39.0893C76.2628 39.0893 76.3325 39.6343 76.2335 39.9745C76.2298 39.988 76.2243 40.0015 76.2188 40.017C76.2151 40.0267 76.2115 40.0383 76.2078 40.0479C76.2004 40.0672 76.1931 40.0827 76.1858 40.1001C75.8684 40.0054 75.4923 39.932 75.0446 39.9049C75.0446 39.9049 75.0611 39.7638 75.762 39.7136C75.762 39.7136 75.2244 38.925 72.7128 39.0468C72.7128 39.0468 72.9403 38.6854 73.2668 38.523C73.2668 38.523 72.3532 38.0128 70.625 38.3607L70.7882 38.2312C72.3202 38.065 74.131 38.121 76.261 38.5655C76.261 38.5655 72.4761 37.058 67.5501 38.61C68.2711 38.0611 69.5976 37.1218 70.28 37.0986L70.1039 37.6146C70.1039 37.6146 70.724 36.915 72.2871 36.5922L71.9679 37.2493C71.9679 37.2493 73.2247 36.6116 73.8649 36.5922C73.8649 36.5922 73.5035 36.9807 73.4778 37.2764C73.4778 37.2764 75.2611 36.9382 75.9931 37.1914L75.4959 37.4581C75.4959 37.4581 76.9251 37.4368 77.5526 38.1345C77.5526 38.1345 77.1123 37.9799 76.7105 38.007C76.7105 38.007 77.8058 39.0139 78.0589 39.7136C78.0589 39.7136 77.404 39.0758 76.9893 39.0062L76.993 39.0043ZM77.9856 38.6022C77.9856 38.6022 78.1268 38.695 78.2993 38.8284H78.1855C78.1232 38.724 78.0553 38.6428 77.9856 38.6022ZM74.6942 34.4025L74.2887 35.1639C75.0556 34.7832 76.2647 34.8779 76.2647 34.8779C75.9142 34.8779 75.1914 35.4017 75.1914 35.4017C76.2298 35.4017 77.404 35.9235 77.404 35.9235C76.1858 35.7786 75.8684 36.0337 75.8684 36.0337C76.6591 36.2134 78.1488 37.2088 78.1488 37.2088L77.2645 37.2262C77.3324 37.143 77.4388 37.0503 77.5874 37.0406C77.5874 37.0406 77.4755 37.002 77.2829 36.9498C76.8169 36.6521 70.9075 33.1423 63.49 41.0916C63.6129 40.4248 63.8735 39.3135 64.3927 38.0978L65.3705 36.8396C65.0275 37.9161 65.3834 38.6525 65.3834 38.6525C65.4091 38.5037 66.5007 36.4202 66.5007 36.4202C66.3722 37.3131 66.8346 37.7055 66.8346 37.7055C66.9612 37.1701 67.5996 35.5544 67.5996 35.5544C67.5684 36.0607 68.0675 36.5149 68.0675 36.5149C68.0289 36.109 68.4913 35.1755 68.4913 35.1755C68.4142 35.7979 68.9664 36.1361 68.9664 36.1361C68.9793 35.6896 69.9039 34.7368 69.9039 34.7368C69.6966 35.307 69.8911 35.8655 69.8911 35.8655C69.9938 35.6375 70.6029 34.9649 70.924 34.617C71.0304 34.6093 71.1277 34.6015 71.2084 34.5957L71.357 34.9282C71.812 34.503 72.2908 34.4218 72.5055 34.4063C72.577 34.4063 72.6211 34.4063 72.6211 34.4063L71.9661 35.5002C72.7568 35.0016 74.6979 34.4063 74.6979 34.4063L74.6942 34.4025ZM70.6983 34.0236C70.7937 34.1068 70.924 34.1705 71.0708 34.2227C71.0359 34.244 71.0029 34.2652 70.9699 34.2884C70.8084 34.1531 70.6965 34.0236 70.6965 34.0236H70.6983ZM72.1661 34.0236C72.1972 34.0333 72.2248 34.0391 72.256 34.0468C72.2395 34.0507 72.2248 34.0565 72.2101 34.0604L72.1679 34.0236H72.1661ZM71.4487 34.3174C71.4964 34.3271 71.5423 34.3348 71.59 34.3406C71.4616 34.4469 71.445 34.532 71.4432 34.559L71.4487 34.3174ZM70.2067 34.6247C70.3167 34.6305 70.4323 34.6325 70.5497 34.6305C70.2672 34.9011 70.1076 35.1388 70.1076 35.1388L70.2067 34.6247ZM69.4545 34.7755C69.4123 34.7368 69.3609 34.6962 69.304 34.6576L69.6416 34.5996C69.5755 34.6556 69.5132 34.7156 69.4545 34.7755ZM69.1646 35.1079C68.9793 35.3476 68.8692 35.5428 68.8692 35.5428C68.7188 35.3843 68.75 35.0035 68.7995 34.7233C68.9958 34.8605 69.1095 35.0151 69.1646 35.1079ZM70.1076 31.6193C70.0636 32.0214 70.4048 32.203 70.4048 32.203C70.5406 31.6445 71.2634 31.2869 71.2634 31.2869L71.2854 31.8107C71.7991 31.3874 72.821 31.3352 72.821 31.3352L72.6633 31.8107C73.454 31.7875 74.4465 32.203 74.4465 32.203L72.821 32.4755C73.3512 32.6862 73.6796 32.9278 73.6796 32.9278C73.2962 33.1887 72.2908 32.8563 72.2908 32.8563L72.8889 33.6178C72.1422 33.6642 71.1056 33.2138 71.1056 33.2138L71.2634 33.7376C70.4965 33.7376 69.7058 33.4052 69.7058 33.4052L70.1076 34.1667C69.7645 34.3561 67.9005 34.2382 67.9005 34.2382C68.0014 34.329 68.3537 34.5049 68.5995 34.6228C68.1812 35.0924 67.9005 36.0356 67.9005 36.0356C67.7207 35.7399 67.9005 34.7368 67.9005 34.7368C67.3116 35.2084 66.7502 37.0909 66.7502 37.0909C66.5924 36.4724 66.9979 35.4983 66.9979 35.4983C66.4108 35.9506 65.4182 37.9065 65.4182 37.9065C65.3962 37.1759 65.9154 36.1632 65.9154 36.1632C65.7173 36.2192 65.2494 36.6811 64.8954 37.0541C66.1319 34.7716 68.3482 32.4717 72.2927 32.2668C72.2927 32.2668 70.9277 32.0078 69.2104 32.5413C69.2215 32.52 69.2343 32.4987 69.2471 32.4775L69.5077 32.203L69.471 32.1818C69.7627 31.8513 70.1094 31.6213 70.1094 31.6213L70.1076 31.6193ZM62.736 36.3487C63.0754 36.685 63.5359 36.5903 63.5359 36.5903C63.2937 36.2134 63.1469 34.7832 63.1469 34.7832C63.3763 35.506 63.8221 35.6259 63.8221 35.6259C63.6148 34.9204 63.7175 33.2641 63.7175 33.2641C63.6955 33.6023 64.4257 34.2768 64.4257 34.2768C64.4037 33.1559 64.9064 31.4338 64.9064 31.4338C64.8917 32.2166 65.1118 33.0244 65.1118 33.0244C64.9981 32.4214 65.776 30.7361 65.776 30.7361C65.787 31.3043 66.1649 31.6039 66.1649 31.6039C66.3704 30.8579 66.919 30.0616 66.919 30.0616C66.919 30.3747 67.3538 30.5679 67.3538 30.5679C67.5372 29.8934 68.1996 29.2672 68.1996 29.2672C67.9702 29.5571 67.9702 30.3322 67.9702 30.3322C68.9077 29.3735 69.6177 29.2421 69.6177 29.2421C69.3902 29.8451 68.8857 30.3322 68.8857 30.3322L69.3425 30.5911C68.8857 30.9526 68.1537 31.4106 68.1537 31.4106L68.8619 31.5304L67.7868 32.3248L68.5463 32.348L67.6308 33.239C66.4548 33.9347 65.2549 35.0808 64.2973 36.9556C65.9136 32.8911 68.5463 30.3283 68.5463 30.3283C65.809 32.2301 64.2899 35.3379 63.4698 37.8292C63.0974 37.5199 62.7323 36.3468 62.7323 36.3468L62.736 36.3487ZM62.78 38.0108L63.2974 38.38C63.2644 38.4882 63.2332 38.5945 63.2038 38.6989L62.78 38.0089V38.0108ZM60.8169 44.5724C60.7234 44.5666 60.6133 44.6072 60.4812 44.7058C60.4518 44.5183 60.4005 44.2883 60.3124 44.0912L62.2278 42.2493L60.8151 44.5724H60.8169ZM59.9271 44.9686C59.9455 45.0633 59.9528 45.1735 59.9473 45.2875C58.8557 46.7409 57.2761 50.2643 57.5953 55.9039H56.8724C56.8816 55.728 56.8926 55.5135 56.9091 55.27L57.377 55.1038L56.9275 54.9781C56.944 54.7327 56.9623 54.464 56.9844 54.1761L57.3623 54.0872L56.999 53.9867C57.1642 51.9496 57.4889 49.0892 58.098 47.1352L58.6374 46.9439L58.2007 46.8221C58.298 46.5399 58.4025 46.2809 58.5163 46.0509C59.3511 44.3443 59.8207 44.439 59.9253 44.9667L59.9271 44.9686ZM56.2633 47.5469C56.7037 49.611 56.1569 54.4795 55.9808 55.9039H55.1222V53.0706H51.4034V55.9039H44.4427L43.5015 50.5716C43.5768 49.4119 43.8281 47.5256 44.6427 46.2326C45.8958 44.2458 46.9011 43.7278 49.7595 43.6814C52.6179 43.6331 54.3938 44.5724 54.3938 44.5724C54.3938 44.5724 55.7441 45.1174 56.2633 47.5488V47.5469Z" fill="#E6452D"></path>
<path d="M46.5412 45.5778C45.9431 45.8039 45.6349 46.4977 45.8495 47.1259C46.0642 47.7559 46.7228 48.0806 47.3191 47.8545C47.9172 47.6284 48.2254 46.9345 48.0107 46.3064C47.7961 45.6763 47.1374 45.3516 46.5412 45.5778ZM46.9173 47.3327C46.1412 47.3327 46.1412 46.0629 46.9173 46.0629C47.6933 46.0629 47.6933 47.3327 46.9173 47.3327Z" fill="#E6452D"></path>
<path d="M46.0927 48.4726C46.0927 48.0107 45.7368 47.6357 45.2983 47.6357C44.8598 47.6357 44.5039 48.0107 44.5039 48.4726C44.5039 48.9345 44.8598 49.3095 45.2983 49.3095C45.7368 49.3095 46.0927 48.9345 46.0927 48.4726ZM45.269 48.8881C44.7516 48.8881 44.7516 48.0416 45.269 48.0416C45.7863 48.0416 45.7863 48.8881 45.269 48.8881Z" fill="#E6452D"></path>
<path d="M54.0469 50.4791C54.0469 50.9622 54.4175 51.3526 54.8761 51.3526C55.3348 51.3526 55.7054 50.9622 55.7054 50.4791C55.7054 49.9959 55.3348 49.6055 54.8761 49.6055C54.4175 49.6055 54.0469 49.9959 54.0469 50.4791ZM54.8963 50.8772C54.3789 50.8772 54.3789 50.0307 54.8963 50.0307C55.4137 50.0307 55.4137 50.8772 54.8963 50.8772Z" fill="#E6452D"></path>
<path d="M46.0917 49.3096C45.7725 49.3096 45.5156 49.5821 45.5156 49.9164C45.5156 50.2508 45.7743 50.5233 46.0917 50.5233C46.4091 50.5233 46.6678 50.2508 46.6678 49.9164C46.6678 49.5821 46.4091 49.3096 46.0917 49.3096ZM46.0844 50.2315C45.6954 50.2315 45.6973 49.5975 46.0844 49.5975C46.4715 49.5975 46.4715 50.2315 46.0844 50.2315Z" fill="#E6452D"></path>
<path d="M49.1967 53.8418C48.7583 53.8418 48.4023 54.2167 48.4023 54.6787C48.4023 55.1406 48.7583 55.5155 49.1967 55.5155C49.6352 55.5155 49.9911 55.1406 49.9911 54.6787C49.9911 54.2167 49.6352 53.8418 49.1967 53.8418ZM49.1894 55.0961C48.672 55.0961 48.672 54.2496 49.1894 54.2496C49.7068 54.2496 49.7068 55.0961 49.1894 55.0961Z" fill="#E6452D"></path>
</svg><style>@media (prefers-color-scheme: light) { :root { filter: none; } }
@media (prefers-color-scheme: dark) { :root { filter: none; } }
</style></svg>